%TF.GenerationSoftware,KiCad,Pcbnew,(5.1.6)-1*%
%TF.CreationDate,2021-06-08T09:34:39+02:00*%
%TF.ProjectId,Joyadapter_SMD,4a6f7961-6461-4707-9465-725f534d442e,rev?*%
%TF.SameCoordinates,Original*%
%TF.FileFunction,Copper,L1,Top*%
%TF.FilePolarity,Positive*%
%FSLAX46Y46*%
G04 Gerber Fmt 4.6, Leading zero omitted, Abs format (unit mm)*
G04 Created by KiCad (PCBNEW (5.1.6)-1) date 2021-06-08 09:34:39*
%MOMM*%
%LPD*%
G01*
G04 APERTURE LIST*
%TA.AperFunction,NonConductor*%
%ADD10C,0.200000*%
%TD*%
%TA.AperFunction,NonConductor*%
%ADD11C,0.250000*%
%TD*%
%TA.AperFunction,ComponentPad*%
%ADD12C,1.000000*%
%TD*%
%TA.AperFunction,ComponentPad*%
%ADD13O,1.800000X2.500000*%
%TD*%
%TA.AperFunction,SMDPad,CuDef*%
%ADD14R,5.000000X2.000000*%
%TD*%
%TA.AperFunction,ComponentPad*%
%ADD15C,1.600000*%
%TD*%
%TA.AperFunction,ComponentPad*%
%ADD16R,1.600000X1.600000*%
%TD*%
%TA.AperFunction,SMDPad,CuDef*%
%ADD17R,2.000000X1.250000*%
%TD*%
%TA.AperFunction,ViaPad*%
%ADD18C,0.800000*%
%TD*%
%TA.AperFunction,Conductor*%
%ADD19C,0.300000*%
%TD*%
%TA.AperFunction,Conductor*%
%ADD20C,0.250000*%
%TD*%
%TA.AperFunction,Conductor*%
%ADD21C,0.500000*%
%TD*%
G04 APERTURE END LIST*
D10*
X126407857Y-89142380D02*
X126407857Y-89951904D01*
X126455476Y-90047142D01*
X126503095Y-90094761D01*
X126598333Y-90142380D01*
X126788809Y-90142380D01*
X126884047Y-90094761D01*
X126931666Y-90047142D01*
X126979285Y-89951904D01*
X126979285Y-89142380D01*
X127407857Y-90094761D02*
X127550714Y-90142380D01*
X127788809Y-90142380D01*
X127884047Y-90094761D01*
X127931666Y-90047142D01*
X127979285Y-89951904D01*
X127979285Y-89856666D01*
X127931666Y-89761428D01*
X127884047Y-89713809D01*
X127788809Y-89666190D01*
X127598333Y-89618571D01*
X127503095Y-89570952D01*
X127455476Y-89523333D01*
X127407857Y-89428095D01*
X127407857Y-89332857D01*
X127455476Y-89237619D01*
X127503095Y-89190000D01*
X127598333Y-89142380D01*
X127836428Y-89142380D01*
X127979285Y-89190000D01*
X128741190Y-89618571D02*
X128884047Y-89666190D01*
X128931666Y-89713809D01*
X128979285Y-89809047D01*
X128979285Y-89951904D01*
X128931666Y-90047142D01*
X128884047Y-90094761D01*
X128788809Y-90142380D01*
X128407857Y-90142380D01*
X128407857Y-89142380D01*
X128741190Y-89142380D01*
X128836428Y-89190000D01*
X128884047Y-89237619D01*
X128931666Y-89332857D01*
X128931666Y-89428095D01*
X128884047Y-89523333D01*
X128836428Y-89570952D01*
X128741190Y-89618571D01*
X128407857Y-89618571D01*
X129407857Y-89761428D02*
X130169761Y-89761428D01*
X130931666Y-89142380D02*
X130931666Y-89856666D01*
X130884047Y-89999523D01*
X130788809Y-90094761D01*
X130645952Y-90142380D01*
X130550714Y-90142380D01*
X131550714Y-90142380D02*
X131455476Y-90094761D01*
X131407857Y-90047142D01*
X131360238Y-89951904D01*
X131360238Y-89666190D01*
X131407857Y-89570952D01*
X131455476Y-89523333D01*
X131550714Y-89475714D01*
X131693571Y-89475714D01*
X131788809Y-89523333D01*
X131836428Y-89570952D01*
X131884047Y-89666190D01*
X131884047Y-89951904D01*
X131836428Y-90047142D01*
X131788809Y-90094761D01*
X131693571Y-90142380D01*
X131550714Y-90142380D01*
X132217380Y-89475714D02*
X132455476Y-90142380D01*
X132693571Y-89475714D02*
X132455476Y-90142380D01*
X132360238Y-90380476D01*
X132312619Y-90428095D01*
X132217380Y-90475714D01*
X133503095Y-90142380D02*
X133503095Y-89618571D01*
X133455476Y-89523333D01*
X133360238Y-89475714D01*
X133169761Y-89475714D01*
X133074523Y-89523333D01*
X133503095Y-90094761D02*
X133407857Y-90142380D01*
X133169761Y-90142380D01*
X133074523Y-90094761D01*
X133026904Y-89999523D01*
X133026904Y-89904285D01*
X133074523Y-89809047D01*
X133169761Y-89761428D01*
X133407857Y-89761428D01*
X133503095Y-89713809D01*
X134407857Y-90142380D02*
X134407857Y-89142380D01*
X134407857Y-90094761D02*
X134312619Y-90142380D01*
X134122142Y-90142380D01*
X134026904Y-90094761D01*
X133979285Y-90047142D01*
X133931666Y-89951904D01*
X133931666Y-89666190D01*
X133979285Y-89570952D01*
X134026904Y-89523333D01*
X134122142Y-89475714D01*
X134312619Y-89475714D01*
X134407857Y-89523333D01*
X135312619Y-90142380D02*
X135312619Y-89618571D01*
X135265000Y-89523333D01*
X135169761Y-89475714D01*
X134979285Y-89475714D01*
X134884047Y-89523333D01*
X135312619Y-90094761D02*
X135217380Y-90142380D01*
X134979285Y-90142380D01*
X134884047Y-90094761D01*
X134836428Y-89999523D01*
X134836428Y-89904285D01*
X134884047Y-89809047D01*
X134979285Y-89761428D01*
X135217380Y-89761428D01*
X135312619Y-89713809D01*
X135788809Y-89475714D02*
X135788809Y-90475714D01*
X135788809Y-89523333D02*
X135884047Y-89475714D01*
X136074523Y-89475714D01*
X136169761Y-89523333D01*
X136217380Y-89570952D01*
X136265000Y-89666190D01*
X136265000Y-89951904D01*
X136217380Y-90047142D01*
X136169761Y-90094761D01*
X136074523Y-90142380D01*
X135884047Y-90142380D01*
X135788809Y-90094761D01*
X136550714Y-89475714D02*
X136931666Y-89475714D01*
X136693571Y-89142380D02*
X136693571Y-89999523D01*
X136741190Y-90094761D01*
X136836428Y-90142380D01*
X136931666Y-90142380D01*
X137645952Y-90094761D02*
X137550714Y-90142380D01*
X137360238Y-90142380D01*
X137265000Y-90094761D01*
X137217380Y-89999523D01*
X137217380Y-89618571D01*
X137265000Y-89523333D01*
X137360238Y-89475714D01*
X137550714Y-89475714D01*
X137645952Y-89523333D01*
X137693571Y-89618571D01*
X137693571Y-89713809D01*
X137217380Y-89809047D01*
X138122142Y-90142380D02*
X138122142Y-89475714D01*
X138122142Y-89666190D02*
X138169761Y-89570952D01*
X138217380Y-89523333D01*
X138312619Y-89475714D01*
X138407857Y-89475714D01*
X138503095Y-90237619D02*
X139265000Y-90237619D01*
X139455476Y-90094761D02*
X139598333Y-90142380D01*
X139836428Y-90142380D01*
X139931666Y-90094761D01*
X139979285Y-90047142D01*
X140026904Y-89951904D01*
X140026904Y-89856666D01*
X139979285Y-89761428D01*
X139931666Y-89713809D01*
X139836428Y-89666190D01*
X139645952Y-89618571D01*
X139550714Y-89570952D01*
X139503095Y-89523333D01*
X139455476Y-89428095D01*
X139455476Y-89332857D01*
X139503095Y-89237619D01*
X139550714Y-89190000D01*
X139645952Y-89142380D01*
X139884047Y-89142380D01*
X140026904Y-89190000D01*
X140455476Y-90142380D02*
X140455476Y-89142380D01*
X140788809Y-89856666D01*
X141122142Y-89142380D01*
X141122142Y-90142380D01*
X141598333Y-90142380D02*
X141598333Y-89142380D01*
X141836428Y-89142380D01*
X141979285Y-89190000D01*
X142074523Y-89285238D01*
X142122142Y-89380476D01*
X142169761Y-89570952D01*
X142169761Y-89713809D01*
X142122142Y-89904285D01*
X142074523Y-89999523D01*
X141979285Y-90094761D01*
X141836428Y-90142380D01*
X141598333Y-90142380D01*
D11*
X162069761Y-90047142D02*
X162022142Y-90094761D01*
X161879285Y-90142380D01*
X161784047Y-90142380D01*
X161641190Y-90094761D01*
X161545952Y-89999523D01*
X161498333Y-89904285D01*
X161450714Y-89713809D01*
X161450714Y-89570952D01*
X161498333Y-89380476D01*
X161545952Y-89285238D01*
X161641190Y-89190000D01*
X161784047Y-89142380D01*
X161879285Y-89142380D01*
X162022142Y-89190000D01*
X162069761Y-89237619D01*
X163069761Y-90047142D02*
X163022142Y-90094761D01*
X162879285Y-90142380D01*
X162784047Y-90142380D01*
X162641190Y-90094761D01*
X162545952Y-89999523D01*
X162498333Y-89904285D01*
X162450714Y-89713809D01*
X162450714Y-89570952D01*
X162498333Y-89380476D01*
X162545952Y-89285238D01*
X162641190Y-89190000D01*
X162784047Y-89142380D01*
X162879285Y-89142380D01*
X163022142Y-89190000D01*
X163069761Y-89237619D01*
X164593571Y-89618571D02*
X164736428Y-89666190D01*
X164784047Y-89713809D01*
X164831666Y-89809047D01*
X164831666Y-89951904D01*
X164784047Y-90047142D01*
X164736428Y-90094761D01*
X164641190Y-90142380D01*
X164260238Y-90142380D01*
X164260238Y-89142380D01*
X164593571Y-89142380D01*
X164688809Y-89190000D01*
X164736428Y-89237619D01*
X164784047Y-89332857D01*
X164784047Y-89428095D01*
X164736428Y-89523333D01*
X164688809Y-89570952D01*
X164593571Y-89618571D01*
X164260238Y-89618571D01*
X165450714Y-89666190D02*
X165450714Y-90142380D01*
X165117380Y-89142380D02*
X165450714Y-89666190D01*
X165784047Y-89142380D01*
X166117380Y-89761428D02*
X166879285Y-89761428D01*
X167307857Y-90094761D02*
X167450714Y-90142380D01*
X167688809Y-90142380D01*
X167784047Y-90094761D01*
X167831666Y-90047142D01*
X167879285Y-89951904D01*
X167879285Y-89856666D01*
X167831666Y-89761428D01*
X167784047Y-89713809D01*
X167688809Y-89666190D01*
X167498333Y-89618571D01*
X167403095Y-89570952D01*
X167355476Y-89523333D01*
X167307857Y-89428095D01*
X167307857Y-89332857D01*
X167355476Y-89237619D01*
X167403095Y-89190000D01*
X167498333Y-89142380D01*
X167736428Y-89142380D01*
X167879285Y-89190000D01*
X168260238Y-89856666D02*
X168736428Y-89856666D01*
X168165000Y-90142380D02*
X168498333Y-89142380D01*
X168831666Y-90142380D01*
X170355476Y-89475714D02*
X170355476Y-90142380D01*
X170117380Y-89094761D02*
X169879285Y-89809047D01*
X170498333Y-89809047D01*
X170879285Y-90047142D02*
X170926904Y-90094761D01*
X170879285Y-90142380D01*
X170831666Y-90094761D01*
X170879285Y-90047142D01*
X170879285Y-90142380D01*
X171545952Y-89142380D02*
X171641190Y-89142380D01*
X171736428Y-89190000D01*
X171784047Y-89237619D01*
X171831666Y-89332857D01*
X171879285Y-89523333D01*
X171879285Y-89761428D01*
X171831666Y-89951904D01*
X171784047Y-90047142D01*
X171736428Y-90094761D01*
X171641190Y-90142380D01*
X171545952Y-90142380D01*
X171450714Y-90094761D01*
X171403095Y-90047142D01*
X171355476Y-89951904D01*
X171307857Y-89761428D01*
X171307857Y-89523333D01*
X171355476Y-89332857D01*
X171403095Y-89237619D01*
X171450714Y-89190000D01*
X171545952Y-89142380D01*
D12*
%TO.P,J3,2*%
%TO.N,/D-*%
X149965000Y-94690000D03*
%TO.P,J3,4*%
%TO.N,Net-(J3-Pad4)*%
X148365000Y-94690000D03*
%TO.P,J3,1*%
%TO.N,Net-(F1-Pad2)*%
X150765000Y-95890000D03*
%TO.P,J3,5*%
%TO.N,GND*%
X147565000Y-95890000D03*
%TO.P,J3,3*%
%TO.N,/D+*%
X149165000Y-95890000D03*
D13*
%TO.P,J3,6*%
%TO.N,GND*%
X152915000Y-90240000D03*
X145415000Y-90240000D03*
%TD*%
%TO.P,F1,2*%
%TO.N,Net-(F1-Pad2)*%
%TA.AperFunction,SMDPad,CuDef*%
G36*
G01*
X155514999Y-92840000D02*
X156415001Y-92840000D01*
G75*
G02*
X156665000Y-93089999I0J-249999D01*
G01*
X156665000Y-93740001D01*
G75*
G02*
X156415001Y-93990000I-249999J0D01*
G01*
X155514999Y-93990000D01*
G75*
G02*
X155265000Y-93740001I0J249999D01*
G01*
X155265000Y-93089999D01*
G75*
G02*
X155514999Y-92840000I249999J0D01*
G01*
G37*
%TD.AperFunction*%
%TO.P,F1,1*%
%TO.N,VCC*%
%TA.AperFunction,SMDPad,CuDef*%
G36*
G01*
X155514999Y-90790000D02*
X156415001Y-90790000D01*
G75*
G02*
X156665000Y-91039999I0J-249999D01*
G01*
X156665000Y-91690001D01*
G75*
G02*
X156415001Y-91940000I-249999J0D01*
G01*
X155514999Y-91940000D01*
G75*
G02*
X155265000Y-91690001I0J249999D01*
G01*
X155265000Y-91039999D01*
G75*
G02*
X155514999Y-90790000I249999J0D01*
G01*
G37*
%TD.AperFunction*%
%TD*%
%TO.P,R4,2*%
%TO.N,VCC*%
%TA.AperFunction,SMDPad,CuDef*%
G36*
G01*
X148714999Y-100490000D02*
X149615001Y-100490000D01*
G75*
G02*
X149865000Y-100739999I0J-249999D01*
G01*
X149865000Y-101440001D01*
G75*
G02*
X149615001Y-101690000I-249999J0D01*
G01*
X148714999Y-101690000D01*
G75*
G02*
X148465000Y-101440001I0J249999D01*
G01*
X148465000Y-100739999D01*
G75*
G02*
X148714999Y-100490000I249999J0D01*
G01*
G37*
%TD.AperFunction*%
%TO.P,R4,1*%
%TO.N,Net-(R1-Pad1)*%
%TA.AperFunction,SMDPad,CuDef*%
G36*
G01*
X148714999Y-98490000D02*
X149615001Y-98490000D01*
G75*
G02*
X149865000Y-98739999I0J-249999D01*
G01*
X149865000Y-99440001D01*
G75*
G02*
X149615001Y-99690000I-249999J0D01*
G01*
X148714999Y-99690000D01*
G75*
G02*
X148465000Y-99440001I0J249999D01*
G01*
X148465000Y-98739999D01*
G75*
G02*
X148714999Y-98490000I249999J0D01*
G01*
G37*
%TD.AperFunction*%
%TD*%
D14*
%TO.P,Y1,1*%
%TO.N,Net-(C3-Pad1)*%
X153635000Y-122670000D03*
%TO.P,Y1,2*%
%TO.N,Net-(C4-Pad1)*%
X144635000Y-122670000D03*
%TD*%
D15*
%TO.P,X2,9*%
%TO.N,Net-(U1-Pad3)*%
X131025000Y-111835000D03*
%TO.P,X2,8*%
%TO.N,GND*%
X131025000Y-109065000D03*
%TO.P,X2,7*%
%TO.N,VCC*%
X131025000Y-106295000D03*
%TO.P,X2,6*%
%TO.N,Net-(U1-Pad2)*%
X131025000Y-103525000D03*
%TO.P,X2,5*%
%TO.N,Net-(X2-Pad5)*%
X133865000Y-113220000D03*
%TO.P,X2,4*%
%TO.N,Net-(U1-Pad8)*%
X133865000Y-110450000D03*
%TO.P,X2,3*%
%TO.N,Net-(U1-Pad7)*%
X133865000Y-107680000D03*
%TO.P,X2,2*%
%TO.N,Net-(U1-Pad11)*%
X133865000Y-104910000D03*
D16*
%TO.P,X2,1*%
%TO.N,Net-(U1-Pad9)*%
X133865000Y-102140000D03*
%TD*%
%TO.P,R2,2*%
%TO.N,/D+*%
%TA.AperFunction,SMDPad,CuDef*%
G36*
G01*
X146515001Y-99690000D02*
X145614999Y-99690000D01*
G75*
G02*
X145365000Y-99440001I0J249999D01*
G01*
X145365000Y-98739999D01*
G75*
G02*
X145614999Y-98490000I249999J0D01*
G01*
X146515001Y-98490000D01*
G75*
G02*
X146765000Y-98739999I0J-249999D01*
G01*
X146765000Y-99440001D01*
G75*
G02*
X146515001Y-99690000I-249999J0D01*
G01*
G37*
%TD.AperFunction*%
%TO.P,R2,1*%
%TO.N,Net-(R2-Pad1)*%
%TA.AperFunction,SMDPad,CuDef*%
G36*
G01*
X146515001Y-101690000D02*
X145614999Y-101690000D01*
G75*
G02*
X145365000Y-101440001I0J249999D01*
G01*
X145365000Y-100739999D01*
G75*
G02*
X145614999Y-100490000I249999J0D01*
G01*
X146515001Y-100490000D01*
G75*
G02*
X146765000Y-100739999I0J-249999D01*
G01*
X146765000Y-101440001D01*
G75*
G02*
X146515001Y-101690000I-249999J0D01*
G01*
G37*
%TD.AperFunction*%
%TD*%
%TO.P,R1,2*%
%TO.N,/D-*%
%TA.AperFunction,SMDPad,CuDef*%
G36*
G01*
X152715001Y-99690000D02*
X151814999Y-99690000D01*
G75*
G02*
X151565000Y-99440001I0J249999D01*
G01*
X151565000Y-98739999D01*
G75*
G02*
X151814999Y-98490000I249999J0D01*
G01*
X152715001Y-98490000D01*
G75*
G02*
X152965000Y-98739999I0J-249999D01*
G01*
X152965000Y-99440001D01*
G75*
G02*
X152715001Y-99690000I-249999J0D01*
G01*
G37*
%TD.AperFunction*%
%TO.P,R1,1*%
%TO.N,Net-(R1-Pad1)*%
%TA.AperFunction,SMDPad,CuDef*%
G36*
G01*
X152715001Y-101690000D02*
X151814999Y-101690000D01*
G75*
G02*
X151565000Y-101440001I0J249999D01*
G01*
X151565000Y-100739999D01*
G75*
G02*
X151814999Y-100490000I249999J0D01*
G01*
X152715001Y-100490000D01*
G75*
G02*
X152965000Y-100739999I0J-249999D01*
G01*
X152965000Y-101440001D01*
G75*
G02*
X152715001Y-101690000I-249999J0D01*
G01*
G37*
%TD.AperFunction*%
%TD*%
%TO.P,C2,2*%
%TO.N,GND*%
%TA.AperFunction,SMDPad,CuDef*%
G36*
G01*
X148415000Y-104854999D02*
X148415000Y-105705001D01*
G75*
G02*
X148165001Y-105955000I-249999J0D01*
G01*
X147089999Y-105955000D01*
G75*
G02*
X146840000Y-105705001I0J249999D01*
G01*
X146840000Y-104854999D01*
G75*
G02*
X147089999Y-104605000I249999J0D01*
G01*
X148165001Y-104605000D01*
G75*
G02*
X148415000Y-104854999I0J-249999D01*
G01*
G37*
%TD.AperFunction*%
%TO.P,C2,1*%
%TO.N,VCC*%
%TA.AperFunction,SMDPad,CuDef*%
G36*
G01*
X151290000Y-104854999D02*
X151290000Y-105705001D01*
G75*
G02*
X151040001Y-105955000I-249999J0D01*
G01*
X149964999Y-105955000D01*
G75*
G02*
X149715000Y-105705001I0J249999D01*
G01*
X149715000Y-104854999D01*
G75*
G02*
X149964999Y-104605000I249999J0D01*
G01*
X151040001Y-104605000D01*
G75*
G02*
X151290000Y-104854999I0J-249999D01*
G01*
G37*
%TD.AperFunction*%
%TD*%
%TO.P,C1,2*%
%TO.N,GND*%
%TA.AperFunction,SMDPad,CuDef*%
G36*
G01*
X155515000Y-105755000D02*
X155515000Y-104805000D01*
G75*
G02*
X155765000Y-104555000I250000J0D01*
G01*
X156440000Y-104555000D01*
G75*
G02*
X156690000Y-104805000I0J-250000D01*
G01*
X156690000Y-105755000D01*
G75*
G02*
X156440000Y-106005000I-250000J0D01*
G01*
X155765000Y-106005000D01*
G75*
G02*
X155515000Y-105755000I0J250000D01*
G01*
G37*
%TD.AperFunction*%
%TO.P,C1,1*%
%TO.N,VCC*%
%TA.AperFunction,SMDPad,CuDef*%
G36*
G01*
X153440000Y-105755000D02*
X153440000Y-104805000D01*
G75*
G02*
X153690000Y-104555000I250000J0D01*
G01*
X154365000Y-104555000D01*
G75*
G02*
X154615000Y-104805000I0J-250000D01*
G01*
X154615000Y-105755000D01*
G75*
G02*
X154365000Y-106005000I-250000J0D01*
G01*
X153690000Y-106005000D01*
G75*
G02*
X153440000Y-105755000I0J250000D01*
G01*
G37*
%TD.AperFunction*%
%TD*%
D17*
%TO.P,D2,2*%
%TO.N,GND*%
X142365000Y-100955000D03*
%TO.P,D2,1*%
%TO.N,/D+*%
X142365000Y-97205000D03*
%TD*%
%TO.P,D1,2*%
%TO.N,GND*%
X155965000Y-100955000D03*
%TO.P,D1,1*%
%TO.N,/D-*%
X155965000Y-97205000D03*
%TD*%
D15*
%TO.P,X1,9*%
%TO.N,/SCK*%
X167265000Y-103545000D03*
%TO.P,X1,8*%
%TO.N,GND*%
X167265000Y-106315000D03*
%TO.P,X1,7*%
%TO.N,VCC*%
X167265000Y-109085000D03*
%TO.P,X1,6*%
%TO.N,/MISO*%
X167265000Y-111855000D03*
%TO.P,X1,5*%
%TO.N,Net-(X1-Pad5)*%
X164425000Y-102160000D03*
%TO.P,X1,4*%
%TO.N,Net-(U1-Pad15)*%
X164425000Y-104930000D03*
%TO.P,X1,3*%
%TO.N,Net-(U1-Pad14)*%
X164425000Y-107700000D03*
%TO.P,X1,2*%
%TO.N,/MOSI*%
X164425000Y-110470000D03*
D16*
%TO.P,X1,1*%
%TO.N,Net-(U1-Pad16)*%
X164425000Y-113240000D03*
%TD*%
%TO.P,U1,20*%
%TO.N,VCC*%
%TA.AperFunction,SMDPad,CuDef*%
G36*
G01*
X152780000Y-107745000D02*
X152780000Y-107445000D01*
G75*
G02*
X152930000Y-107295000I150000J0D01*
G01*
X154680000Y-107295000D01*
G75*
G02*
X154830000Y-107445000I0J-150000D01*
G01*
X154830000Y-107745000D01*
G75*
G02*
X154680000Y-107895000I-150000J0D01*
G01*
X152930000Y-107895000D01*
G75*
G02*
X152780000Y-107745000I0J150000D01*
G01*
G37*
%TD.AperFunction*%
%TO.P,U1,19*%
%TO.N,/SCK*%
%TA.AperFunction,SMDPad,CuDef*%
G36*
G01*
X152780000Y-109015000D02*
X152780000Y-108715000D01*
G75*
G02*
X152930000Y-108565000I150000J0D01*
G01*
X154680000Y-108565000D01*
G75*
G02*
X154830000Y-108715000I0J-150000D01*
G01*
X154830000Y-109015000D01*
G75*
G02*
X154680000Y-109165000I-150000J0D01*
G01*
X152930000Y-109165000D01*
G75*
G02*
X152780000Y-109015000I0J150000D01*
G01*
G37*
%TD.AperFunction*%
%TO.P,U1,18*%
%TO.N,/MISO*%
%TA.AperFunction,SMDPad,CuDef*%
G36*
G01*
X152780000Y-110285000D02*
X152780000Y-109985000D01*
G75*
G02*
X152930000Y-109835000I150000J0D01*
G01*
X154680000Y-109835000D01*
G75*
G02*
X154830000Y-109985000I0J-150000D01*
G01*
X154830000Y-110285000D01*
G75*
G02*
X154680000Y-110435000I-150000J0D01*
G01*
X152930000Y-110435000D01*
G75*
G02*
X152780000Y-110285000I0J150000D01*
G01*
G37*
%TD.AperFunction*%
%TO.P,U1,17*%
%TO.N,/MOSI*%
%TA.AperFunction,SMDPad,CuDef*%
G36*
G01*
X152780000Y-111555000D02*
X152780000Y-111255000D01*
G75*
G02*
X152930000Y-111105000I150000J0D01*
G01*
X154680000Y-111105000D01*
G75*
G02*
X154830000Y-111255000I0J-150000D01*
G01*
X154830000Y-111555000D01*
G75*
G02*
X154680000Y-111705000I-150000J0D01*
G01*
X152930000Y-111705000D01*
G75*
G02*
X152780000Y-111555000I0J150000D01*
G01*
G37*
%TD.AperFunction*%
%TO.P,U1,16*%
%TO.N,Net-(U1-Pad16)*%
%TA.AperFunction,SMDPad,CuDef*%
G36*
G01*
X152780000Y-112825000D02*
X152780000Y-112525000D01*
G75*
G02*
X152930000Y-112375000I150000J0D01*
G01*
X154680000Y-112375000D01*
G75*
G02*
X154830000Y-112525000I0J-150000D01*
G01*
X154830000Y-112825000D01*
G75*
G02*
X154680000Y-112975000I-150000J0D01*
G01*
X152930000Y-112975000D01*
G75*
G02*
X152780000Y-112825000I0J150000D01*
G01*
G37*
%TD.AperFunction*%
%TO.P,U1,15*%
%TO.N,Net-(U1-Pad15)*%
%TA.AperFunction,SMDPad,CuDef*%
G36*
G01*
X152780000Y-114095000D02*
X152780000Y-113795000D01*
G75*
G02*
X152930000Y-113645000I150000J0D01*
G01*
X154680000Y-113645000D01*
G75*
G02*
X154830000Y-113795000I0J-150000D01*
G01*
X154830000Y-114095000D01*
G75*
G02*
X154680000Y-114245000I-150000J0D01*
G01*
X152930000Y-114245000D01*
G75*
G02*
X152780000Y-114095000I0J150000D01*
G01*
G37*
%TD.AperFunction*%
%TO.P,U1,14*%
%TO.N,Net-(U1-Pad14)*%
%TA.AperFunction,SMDPad,CuDef*%
G36*
G01*
X152780000Y-115365000D02*
X152780000Y-115065000D01*
G75*
G02*
X152930000Y-114915000I150000J0D01*
G01*
X154680000Y-114915000D01*
G75*
G02*
X154830000Y-115065000I0J-150000D01*
G01*
X154830000Y-115365000D01*
G75*
G02*
X154680000Y-115515000I-150000J0D01*
G01*
X152930000Y-115515000D01*
G75*
G02*
X152780000Y-115365000I0J150000D01*
G01*
G37*
%TD.AperFunction*%
%TO.P,U1,13*%
%TO.N,Net-(R2-Pad1)*%
%TA.AperFunction,SMDPad,CuDef*%
G36*
G01*
X152780000Y-116635000D02*
X152780000Y-116335000D01*
G75*
G02*
X152930000Y-116185000I150000J0D01*
G01*
X154680000Y-116185000D01*
G75*
G02*
X154830000Y-116335000I0J-150000D01*
G01*
X154830000Y-116635000D01*
G75*
G02*
X154680000Y-116785000I-150000J0D01*
G01*
X152930000Y-116785000D01*
G75*
G02*
X152780000Y-116635000I0J150000D01*
G01*
G37*
%TD.AperFunction*%
%TO.P,U1,12*%
%TO.N,Net-(R1-Pad1)*%
%TA.AperFunction,SMDPad,CuDef*%
G36*
G01*
X152780000Y-117905000D02*
X152780000Y-117605000D01*
G75*
G02*
X152930000Y-117455000I150000J0D01*
G01*
X154680000Y-117455000D01*
G75*
G02*
X154830000Y-117605000I0J-150000D01*
G01*
X154830000Y-117905000D01*
G75*
G02*
X154680000Y-118055000I-150000J0D01*
G01*
X152930000Y-118055000D01*
G75*
G02*
X152780000Y-117905000I0J150000D01*
G01*
G37*
%TD.AperFunction*%
%TO.P,U1,11*%
%TO.N,Net-(U1-Pad11)*%
%TA.AperFunction,SMDPad,CuDef*%
G36*
G01*
X152780000Y-119175000D02*
X152780000Y-118875000D01*
G75*
G02*
X152930000Y-118725000I150000J0D01*
G01*
X154680000Y-118725000D01*
G75*
G02*
X154830000Y-118875000I0J-150000D01*
G01*
X154830000Y-119175000D01*
G75*
G02*
X154680000Y-119325000I-150000J0D01*
G01*
X152930000Y-119325000D01*
G75*
G02*
X152780000Y-119175000I0J150000D01*
G01*
G37*
%TD.AperFunction*%
%TO.P,U1,10*%
%TO.N,GND*%
%TA.AperFunction,SMDPad,CuDef*%
G36*
G01*
X143480000Y-119175000D02*
X143480000Y-118875000D01*
G75*
G02*
X143630000Y-118725000I150000J0D01*
G01*
X145380000Y-118725000D01*
G75*
G02*
X145530000Y-118875000I0J-150000D01*
G01*
X145530000Y-119175000D01*
G75*
G02*
X145380000Y-119325000I-150000J0D01*
G01*
X143630000Y-119325000D01*
G75*
G02*
X143480000Y-119175000I0J150000D01*
G01*
G37*
%TD.AperFunction*%
%TO.P,U1,9*%
%TO.N,Net-(U1-Pad9)*%
%TA.AperFunction,SMDPad,CuDef*%
G36*
G01*
X143480000Y-117905000D02*
X143480000Y-117605000D01*
G75*
G02*
X143630000Y-117455000I150000J0D01*
G01*
X145380000Y-117455000D01*
G75*
G02*
X145530000Y-117605000I0J-150000D01*
G01*
X145530000Y-117905000D01*
G75*
G02*
X145380000Y-118055000I-150000J0D01*
G01*
X143630000Y-118055000D01*
G75*
G02*
X143480000Y-117905000I0J150000D01*
G01*
G37*
%TD.AperFunction*%
%TO.P,U1,8*%
%TO.N,Net-(U1-Pad8)*%
%TA.AperFunction,SMDPad,CuDef*%
G36*
G01*
X143480000Y-116635000D02*
X143480000Y-116335000D01*
G75*
G02*
X143630000Y-116185000I150000J0D01*
G01*
X145380000Y-116185000D01*
G75*
G02*
X145530000Y-116335000I0J-150000D01*
G01*
X145530000Y-116635000D01*
G75*
G02*
X145380000Y-116785000I-150000J0D01*
G01*
X143630000Y-116785000D01*
G75*
G02*
X143480000Y-116635000I0J150000D01*
G01*
G37*
%TD.AperFunction*%
%TO.P,U1,7*%
%TO.N,Net-(U1-Pad7)*%
%TA.AperFunction,SMDPad,CuDef*%
G36*
G01*
X143480000Y-115365000D02*
X143480000Y-115065000D01*
G75*
G02*
X143630000Y-114915000I150000J0D01*
G01*
X145380000Y-114915000D01*
G75*
G02*
X145530000Y-115065000I0J-150000D01*
G01*
X145530000Y-115365000D01*
G75*
G02*
X145380000Y-115515000I-150000J0D01*
G01*
X143630000Y-115515000D01*
G75*
G02*
X143480000Y-115365000I0J150000D01*
G01*
G37*
%TD.AperFunction*%
%TO.P,U1,6*%
%TO.N,Net-(R2-Pad1)*%
%TA.AperFunction,SMDPad,CuDef*%
G36*
G01*
X143480000Y-114095000D02*
X143480000Y-113795000D01*
G75*
G02*
X143630000Y-113645000I150000J0D01*
G01*
X145380000Y-113645000D01*
G75*
G02*
X145530000Y-113795000I0J-150000D01*
G01*
X145530000Y-114095000D01*
G75*
G02*
X145380000Y-114245000I-150000J0D01*
G01*
X143630000Y-114245000D01*
G75*
G02*
X143480000Y-114095000I0J150000D01*
G01*
G37*
%TD.AperFunction*%
%TO.P,U1,5*%
%TO.N,Net-(C3-Pad1)*%
%TA.AperFunction,SMDPad,CuDef*%
G36*
G01*
X143480000Y-112825000D02*
X143480000Y-112525000D01*
G75*
G02*
X143630000Y-112375000I150000J0D01*
G01*
X145380000Y-112375000D01*
G75*
G02*
X145530000Y-112525000I0J-150000D01*
G01*
X145530000Y-112825000D01*
G75*
G02*
X145380000Y-112975000I-150000J0D01*
G01*
X143630000Y-112975000D01*
G75*
G02*
X143480000Y-112825000I0J150000D01*
G01*
G37*
%TD.AperFunction*%
%TO.P,U1,4*%
%TO.N,Net-(C4-Pad1)*%
%TA.AperFunction,SMDPad,CuDef*%
G36*
G01*
X143480000Y-111555000D02*
X143480000Y-111255000D01*
G75*
G02*
X143630000Y-111105000I150000J0D01*
G01*
X145380000Y-111105000D01*
G75*
G02*
X145530000Y-111255000I0J-150000D01*
G01*
X145530000Y-111555000D01*
G75*
G02*
X145380000Y-111705000I-150000J0D01*
G01*
X143630000Y-111705000D01*
G75*
G02*
X143480000Y-111555000I0J150000D01*
G01*
G37*
%TD.AperFunction*%
%TO.P,U1,3*%
%TO.N,Net-(U1-Pad3)*%
%TA.AperFunction,SMDPad,CuDef*%
G36*
G01*
X143480000Y-110285000D02*
X143480000Y-109985000D01*
G75*
G02*
X143630000Y-109835000I150000J0D01*
G01*
X145380000Y-109835000D01*
G75*
G02*
X145530000Y-109985000I0J-150000D01*
G01*
X145530000Y-110285000D01*
G75*
G02*
X145380000Y-110435000I-150000J0D01*
G01*
X143630000Y-110435000D01*
G75*
G02*
X143480000Y-110285000I0J150000D01*
G01*
G37*
%TD.AperFunction*%
%TO.P,U1,2*%
%TO.N,Net-(U1-Pad2)*%
%TA.AperFunction,SMDPad,CuDef*%
G36*
G01*
X143480000Y-109015000D02*
X143480000Y-108715000D01*
G75*
G02*
X143630000Y-108565000I150000J0D01*
G01*
X145380000Y-108565000D01*
G75*
G02*
X145530000Y-108715000I0J-150000D01*
G01*
X145530000Y-109015000D01*
G75*
G02*
X145380000Y-109165000I-150000J0D01*
G01*
X143630000Y-109165000D01*
G75*
G02*
X143480000Y-109015000I0J150000D01*
G01*
G37*
%TD.AperFunction*%
%TO.P,U1,1*%
%TO.N,/RST*%
%TA.AperFunction,SMDPad,CuDef*%
G36*
G01*
X143480000Y-107745000D02*
X143480000Y-107445000D01*
G75*
G02*
X143630000Y-107295000I150000J0D01*
G01*
X145380000Y-107295000D01*
G75*
G02*
X145530000Y-107445000I0J-150000D01*
G01*
X145530000Y-107745000D01*
G75*
G02*
X145380000Y-107895000I-150000J0D01*
G01*
X143630000Y-107895000D01*
G75*
G02*
X143480000Y-107745000I0J150000D01*
G01*
G37*
%TD.AperFunction*%
%TD*%
%TO.P,R3,2*%
%TO.N,VCC*%
%TA.AperFunction,SMDPad,CuDef*%
G36*
G01*
X143665000Y-105730001D02*
X143665000Y-104829999D01*
G75*
G02*
X143914999Y-104580000I249999J0D01*
G01*
X144615001Y-104580000D01*
G75*
G02*
X144865000Y-104829999I0J-249999D01*
G01*
X144865000Y-105730001D01*
G75*
G02*
X144615001Y-105980000I-249999J0D01*
G01*
X143914999Y-105980000D01*
G75*
G02*
X143665000Y-105730001I0J249999D01*
G01*
G37*
%TD.AperFunction*%
%TO.P,R3,1*%
%TO.N,/RST*%
%TA.AperFunction,SMDPad,CuDef*%
G36*
G01*
X141665000Y-105730001D02*
X141665000Y-104829999D01*
G75*
G02*
X141914999Y-104580000I249999J0D01*
G01*
X142615001Y-104580000D01*
G75*
G02*
X142865000Y-104829999I0J-249999D01*
G01*
X142865000Y-105730001D01*
G75*
G02*
X142615001Y-105980000I-249999J0D01*
G01*
X141914999Y-105980000D01*
G75*
G02*
X141665000Y-105730001I0J249999D01*
G01*
G37*
%TD.AperFunction*%
%TD*%
%TO.P,C4,2*%
%TO.N,GND*%
%TA.AperFunction,SMDPad,CuDef*%
G36*
G01*
X140690000Y-121305000D02*
X139740000Y-121305000D01*
G75*
G02*
X139490000Y-121055000I0J250000D01*
G01*
X139490000Y-120380000D01*
G75*
G02*
X139740000Y-120130000I250000J0D01*
G01*
X140690000Y-120130000D01*
G75*
G02*
X140940000Y-120380000I0J-250000D01*
G01*
X140940000Y-121055000D01*
G75*
G02*
X140690000Y-121305000I-250000J0D01*
G01*
G37*
%TD.AperFunction*%
%TO.P,C4,1*%
%TO.N,Net-(C4-Pad1)*%
%TA.AperFunction,SMDPad,CuDef*%
G36*
G01*
X140690000Y-123380000D02*
X139740000Y-123380000D01*
G75*
G02*
X139490000Y-123130000I0J250000D01*
G01*
X139490000Y-122455000D01*
G75*
G02*
X139740000Y-122205000I250000J0D01*
G01*
X140690000Y-122205000D01*
G75*
G02*
X140940000Y-122455000I0J-250000D01*
G01*
X140940000Y-123130000D01*
G75*
G02*
X140690000Y-123380000I-250000J0D01*
G01*
G37*
%TD.AperFunction*%
%TD*%
%TO.P,C3,2*%
%TO.N,GND*%
%TA.AperFunction,SMDPad,CuDef*%
G36*
G01*
X158600000Y-121310000D02*
X157650000Y-121310000D01*
G75*
G02*
X157400000Y-121060000I0J250000D01*
G01*
X157400000Y-120385000D01*
G75*
G02*
X157650000Y-120135000I250000J0D01*
G01*
X158600000Y-120135000D01*
G75*
G02*
X158850000Y-120385000I0J-250000D01*
G01*
X158850000Y-121060000D01*
G75*
G02*
X158600000Y-121310000I-250000J0D01*
G01*
G37*
%TD.AperFunction*%
%TO.P,C3,1*%
%TO.N,Net-(C3-Pad1)*%
%TA.AperFunction,SMDPad,CuDef*%
G36*
G01*
X158600000Y-123385000D02*
X157650000Y-123385000D01*
G75*
G02*
X157400000Y-123135000I0J250000D01*
G01*
X157400000Y-122460000D01*
G75*
G02*
X157650000Y-122210000I250000J0D01*
G01*
X158600000Y-122210000D01*
G75*
G02*
X158850000Y-122460000I0J-250000D01*
G01*
X158850000Y-123135000D01*
G75*
G02*
X158600000Y-123385000I-250000J0D01*
G01*
G37*
%TD.AperFunction*%
%TD*%
D18*
%TO.N,GND*%
X145245000Y-119050000D03*
X148065000Y-105280000D03*
X142365000Y-100780000D03*
X155965000Y-100680000D03*
X158165000Y-121080000D03*
X140265000Y-121080000D03*
X157765000Y-105180000D03*
%TO.N,VCC*%
X150765000Y-103080000D03*
X155865000Y-107880000D03*
X157765000Y-93690000D03*
%TO.N,Net-(U1-Pad15)*%
X159065000Y-114280000D03*
%TO.N,Net-(U1-Pad14)*%
X159565000Y-115480000D03*
%TO.N,Net-(U1-Pad11)*%
X149165000Y-117580000D03*
%TO.N,Net-(U1-Pad9)*%
X139065000Y-118080000D03*
%TO.N,Net-(U1-Pad7)*%
X139865000Y-112380000D03*
%TO.N,Net-(R1-Pad1)*%
X153665000Y-102380000D03*
X157465000Y-117980000D03*
%TO.N,Net-(R2-Pad1)*%
X147865000Y-102580000D03*
X148630000Y-114215000D03*
%TO.N,/MISO*%
X151665000Y-111580000D03*
%TO.N,/SCK*%
X150165000Y-111980000D03*
%TO.N,/MOSI*%
X149965000Y-114480000D03*
%TO.N,/RST*%
X146565000Y-112680000D03*
%TO.N,/D-*%
X152300000Y-97205000D03*
%TO.N,Net-(C4-Pad1)*%
X142065000Y-119080000D03*
X145165000Y-111680000D03*
%TD*%
D19*
%TO.N,GND*%
X156102500Y-105280000D02*
X156102500Y-105577500D01*
X156202500Y-105180000D02*
X156102500Y-105280000D01*
X157765000Y-105180000D02*
X156202500Y-105180000D01*
D20*
%TO.N,Net-(C3-Pad1)*%
X153982500Y-122797500D02*
X153665000Y-122480000D01*
X158125000Y-122797500D02*
X153982500Y-122797500D01*
X153665000Y-122480000D02*
X151965000Y-122480000D01*
X151965000Y-122480000D02*
X146765000Y-117280000D01*
X146765000Y-117280000D02*
X146765000Y-115200020D01*
X143433242Y-114570010D02*
X142935000Y-114071768D01*
X146765000Y-115200020D02*
X146134990Y-114570010D01*
X146134990Y-114570010D02*
X143433242Y-114570010D01*
X143480000Y-112675000D02*
X144505000Y-112675000D01*
X142935000Y-113220000D02*
X143480000Y-112675000D01*
X142935000Y-114071768D02*
X142935000Y-113220000D01*
%TO.N,VCC*%
X155865000Y-107880000D02*
X155865000Y-107880000D01*
D21*
X154027500Y-105280000D02*
X156227500Y-103080000D01*
X156227500Y-103080000D02*
X160565000Y-103080000D01*
X160565000Y-103080000D02*
X163265000Y-100380000D01*
X163265000Y-100380000D02*
X167165000Y-100380000D01*
X167165000Y-100380000D02*
X169365000Y-102580000D01*
X169365000Y-106985000D02*
X167265000Y-109085000D01*
X169365000Y-102580000D02*
X169365000Y-106985000D01*
X154027500Y-105280000D02*
X150502500Y-105280000D01*
X150502500Y-105342500D02*
X149365000Y-106480000D01*
X150502500Y-105280000D02*
X150502500Y-105342500D01*
X145465000Y-106480000D02*
X144265000Y-105280000D01*
X149365000Y-106480000D02*
X145465000Y-106480000D01*
X144265000Y-105280000D02*
X142265000Y-103280000D01*
X142265000Y-103280000D02*
X139565000Y-103280000D01*
X139565000Y-103280000D02*
X136465000Y-100180000D01*
X136465000Y-100180000D02*
X130765000Y-100180000D01*
X130765000Y-100180000D02*
X128965000Y-101980000D01*
X128965000Y-104235000D02*
X131025000Y-106295000D01*
X128965000Y-101980000D02*
X128965000Y-104235000D01*
X150765000Y-105017500D02*
X150502500Y-105280000D01*
X150765000Y-103080000D02*
X150765000Y-105017500D01*
X154027500Y-105280000D02*
X154027500Y-107652500D01*
D20*
X154090000Y-107880000D02*
X153805000Y-107595000D01*
X155865000Y-107880000D02*
X154090000Y-107880000D01*
X149165000Y-101480000D02*
X150765000Y-103080000D01*
X149165000Y-101090000D02*
X149165000Y-101480000D01*
D21*
X155965000Y-91365000D02*
X157040000Y-91365000D01*
X157765000Y-92090000D02*
X157765000Y-93690000D01*
X157040000Y-91365000D02*
X157765000Y-92090000D01*
D20*
%TO.N,Net-(U1-Pad16)*%
X164130000Y-112945000D02*
X164425000Y-113240000D01*
X163860000Y-112675000D02*
X164425000Y-113240000D01*
X153805000Y-112675000D02*
X163860000Y-112675000D01*
%TO.N,Net-(U1-Pad15)*%
X153880000Y-114280000D02*
X153815000Y-114215000D01*
X159065000Y-114280000D02*
X153880000Y-114280000D01*
%TO.N,Net-(U1-Pad14)*%
X159300000Y-115215000D02*
X159565000Y-115480000D01*
X153805000Y-115215000D02*
X159300000Y-115215000D01*
%TO.N,Net-(U1-Pad11)*%
X153805000Y-119025000D02*
X150610000Y-119025000D01*
X149165000Y-117580000D02*
X150585000Y-119000000D01*
X150610000Y-119025000D02*
X150585000Y-119000000D01*
%TO.N,Net-(U1-Pad9)*%
X139120000Y-118025000D02*
X139065000Y-118080000D01*
X139390000Y-117755000D02*
X139065000Y-118080000D01*
X144505000Y-117755000D02*
X139390000Y-117755000D01*
%TO.N,Net-(U1-Pad8)*%
X139900000Y-116485000D02*
X139835000Y-116420000D01*
X144505000Y-116485000D02*
X139900000Y-116485000D01*
X139835000Y-116420000D02*
X133865000Y-110450000D01*
%TO.N,Net-(U1-Pad7)*%
X139865000Y-112380000D02*
X139865000Y-114580000D01*
X140500000Y-115215000D02*
X140415000Y-115130000D01*
X144505000Y-115215000D02*
X140500000Y-115215000D01*
X139865000Y-114580000D02*
X140415000Y-115130000D01*
%TO.N,Net-(U1-Pad3)*%
X135230000Y-110135000D02*
X135222501Y-110142499D01*
X131025000Y-111270000D02*
X131025000Y-111835000D01*
X135222501Y-110142499D02*
X134405001Y-109324999D01*
X144505000Y-110135000D02*
X135230000Y-110135000D01*
X134405001Y-109324999D02*
X132970001Y-109324999D01*
X132970001Y-109324999D02*
X131025000Y-111270000D01*
%TO.N,Net-(U1-Pad2)*%
X134145002Y-103525000D02*
X131025000Y-103525000D01*
X139485002Y-108865000D02*
X139482501Y-108862499D01*
X144505000Y-108865000D02*
X139485002Y-108865000D01*
X139482501Y-108862499D02*
X134145002Y-103525000D01*
%TO.N,Net-(R1-Pad1)*%
X152565000Y-100880000D02*
X152565000Y-101280000D01*
X152565000Y-101280000D02*
X153665000Y-102380000D01*
X153665000Y-102380000D02*
X153665000Y-102380000D01*
X157240000Y-117755000D02*
X157465000Y-117980000D01*
X153805000Y-117755000D02*
X157240000Y-117755000D01*
X150265000Y-99090000D02*
X152265000Y-101090000D01*
X149165000Y-99090000D02*
X150265000Y-99090000D01*
D19*
%TO.N,Net-(R2-Pad1)*%
X147865000Y-102580000D02*
X147865000Y-102580000D01*
X147865000Y-102580000D02*
X147865000Y-102580000D01*
D20*
X148630000Y-114215000D02*
X148630000Y-114215000D01*
X150900000Y-116485000D02*
X150430000Y-116015000D01*
D19*
X148630000Y-114215000D02*
X150430000Y-116015000D01*
D20*
X153805000Y-116485000D02*
X150900000Y-116485000D01*
X148360000Y-113945000D02*
X148630000Y-114215000D01*
X144505000Y-113945000D02*
X148360000Y-113945000D01*
X147555000Y-102580000D02*
X146065000Y-101090000D01*
X147865000Y-102580000D02*
X147555000Y-102580000D01*
%TO.N,/MISO*%
X153815000Y-110405000D02*
X152840000Y-110405000D01*
X152840000Y-110405000D02*
X151665000Y-111580000D01*
X151665000Y-111580000D02*
X151665000Y-111580000D01*
X166093185Y-109708185D02*
X166093185Y-110683185D01*
X165575000Y-109190000D02*
X166093185Y-109708185D01*
X153927499Y-110257499D02*
X162727501Y-110257499D01*
X153805000Y-110135000D02*
X153927499Y-110257499D01*
X166093185Y-110683185D02*
X167265000Y-111855000D01*
X162727501Y-110217499D02*
X163755000Y-109190000D01*
X162727501Y-110257499D02*
X162727501Y-110217499D01*
X163755000Y-109190000D02*
X165575000Y-109190000D01*
%TO.N,/SCK*%
X164144998Y-103545000D02*
X167265000Y-103545000D01*
X153010000Y-109135000D02*
X150865000Y-111280000D01*
X153815000Y-109135000D02*
X153010000Y-109135000D01*
X150865000Y-111280000D02*
X150165000Y-111980000D01*
X158797499Y-108892499D02*
X153832499Y-108892499D01*
X158797499Y-108892499D02*
X164144998Y-103545000D01*
X153832499Y-108892499D02*
X153805000Y-108865000D01*
%TO.N,/MOSI*%
X152790000Y-111675000D02*
X150965000Y-113500000D01*
X153815000Y-111675000D02*
X152790000Y-111675000D01*
X163220000Y-111675000D02*
X164425000Y-110470000D01*
X153815000Y-111675000D02*
X163220000Y-111675000D01*
X150965000Y-113500000D02*
X150945000Y-113500000D01*
X150945000Y-113500000D02*
X149965000Y-114480000D01*
X149965000Y-114480000D02*
X149965000Y-114480000D01*
%TO.N,/RST*%
X144515000Y-107530000D02*
X142265000Y-105280000D01*
X146139999Y-108464999D02*
X146139999Y-112254999D01*
X145540000Y-107865000D02*
X146139999Y-108464999D01*
X146139999Y-112254999D02*
X146565000Y-112680000D01*
X146565000Y-112680000D02*
X146565000Y-112680000D01*
X145270000Y-107595000D02*
X144505000Y-107595000D01*
X146139999Y-108464999D02*
X145270000Y-107595000D01*
%TO.N,/D-*%
X155590000Y-97580000D02*
X155965000Y-97205000D01*
X155965000Y-97205000D02*
X152300000Y-97205000D01*
X152300000Y-99055000D02*
X152265000Y-99090000D01*
X152300000Y-97205000D02*
X152300000Y-99055000D01*
X152300000Y-97205000D02*
X152300000Y-97205000D01*
%TO.N,/D+*%
X142990000Y-97830000D02*
X142365000Y-97205000D01*
X145965000Y-97830000D02*
X142990000Y-97830000D01*
X145965000Y-98990000D02*
X146065000Y-99090000D01*
X145965000Y-97830000D02*
X145965000Y-98990000D01*
X149165000Y-96590000D02*
X149165000Y-95890000D01*
X145965000Y-97830000D02*
X147925000Y-97830000D01*
X147925000Y-97830000D02*
X149165000Y-96590000D01*
%TO.N,Net-(C4-Pad1)*%
X140527500Y-122480000D02*
X140215000Y-122792500D01*
X144665000Y-122480000D02*
X140527500Y-122480000D01*
X144665000Y-122480000D02*
X144665000Y-121680000D01*
X144665000Y-121680000D02*
X142065000Y-119080000D01*
X142065000Y-119080000D02*
X142065000Y-119080000D01*
D21*
%TO.N,Net-(F1-Pad2)*%
X155490000Y-93890000D02*
X155965000Y-93415000D01*
X150765000Y-95890000D02*
X152765000Y-93890000D01*
X152765000Y-93890000D02*
X155490000Y-93890000D01*
%TD*%
M02*
