%TF.GenerationSoftware,KiCad,Pcbnew,(5.1.6)-1*%
%TF.CreationDate,2021-06-08T09:34:39+02:00*%
%TF.ProjectId,Joyadapter_SMD,4a6f7961-6461-4707-9465-725f534d442e,rev?*%
%TF.SameCoordinates,Original*%
%TF.FileFunction,Legend,Top*%
%TF.FilePolarity,Positive*%
%FSLAX46Y46*%
G04 Gerber Fmt 4.6, Leading zero omitted, Abs format (unit mm)*
G04 Created by KiCad (PCBNEW (5.1.6)-1) date 2021-06-08 09:34:39*
%MOMM*%
%LPD*%
G01*
G04 APERTURE LIST*
%ADD10C,0.150000*%
%ADD11C,0.120000*%
G04 APERTURE END LIST*
D10*
%TO.C,J3*%
X145165000Y-88240000D02*
X145165000Y-96740000D01*
X153165000Y-88240000D02*
X153165000Y-96740000D01*
X153165000Y-96740000D02*
X145165000Y-96740000D01*
X145165000Y-88240000D02*
X153165000Y-88240000D01*
D11*
%TO.C,F1*%
X155255000Y-92128748D02*
X155255000Y-92651252D01*
X156675000Y-92128748D02*
X156675000Y-92651252D01*
%TO.C,R4*%
X148430000Y-99862936D02*
X148430000Y-100317064D01*
X149900000Y-99862936D02*
X149900000Y-100317064D01*
D10*
%TO.C,Y1*%
X152635000Y-125170000D02*
X145635000Y-125170000D01*
X152635000Y-120170000D02*
X145635000Y-120170000D01*
X145635000Y-125170000D02*
G75*
G02*
X145635000Y-120170000I0J2500000D01*
G01*
X152635000Y-120170000D02*
G75*
G02*
X152635000Y-125170000I0J-2500000D01*
G01*
D11*
%TO.C,X2*%
X138755000Y-93255000D02*
X138755000Y-122105000D01*
X137695000Y-123165000D02*
X127195000Y-123165000D01*
X126135000Y-122105000D02*
X126135000Y-93255000D01*
X127195000Y-92195000D02*
X137695000Y-92195000D01*
X139649338Y-101890000D02*
X139649338Y-102390000D01*
X139649338Y-102390000D02*
X139216325Y-102140000D01*
X139216325Y-102140000D02*
X139649338Y-101890000D01*
X136655000Y-101448311D02*
X136655000Y-113911689D01*
X128235000Y-102347579D02*
X128235000Y-113012421D01*
X134706744Y-115546470D02*
X129606744Y-114647202D01*
X134706744Y-99813530D02*
X129606744Y-100712798D01*
X129606744Y-114647202D02*
G75*
G02*
X128235000Y-113012421I288256J1634781D01*
G01*
X129606744Y-100712798D02*
G75*
G03*
X128235000Y-102347579I288256J-1634781D01*
G01*
X134706744Y-115546470D02*
G75*
G03*
X136655000Y-113911689I288256J1634781D01*
G01*
X134706744Y-99813530D02*
G75*
G02*
X136655000Y-101448311I288256J-1634781D01*
G01*
X126135000Y-122105000D02*
G75*
G03*
X127195000Y-123165000I1060000J0D01*
G01*
X126135000Y-93255000D02*
G75*
G02*
X127195000Y-92195000I1060000J0D01*
G01*
X137695000Y-123165000D02*
G75*
G03*
X138755000Y-122105000I0J1060000D01*
G01*
X138755000Y-93255000D02*
G75*
G03*
X137695000Y-92195000I-1060000J0D01*
G01*
%TO.C,R2*%
X145330000Y-100317064D02*
X145330000Y-99862936D01*
X146800000Y-100317064D02*
X146800000Y-99862936D01*
%TO.C,R1*%
X151530000Y-100317064D02*
X151530000Y-99862936D01*
X153000000Y-100317064D02*
X153000000Y-99862936D01*
%TO.C,C2*%
X147465000Y-106215000D02*
X151550000Y-106215000D01*
X151550000Y-106215000D02*
X151550000Y-104345000D01*
X151550000Y-104345000D02*
X147465000Y-104345000D01*
%TO.C,C1*%
X154803748Y-104545000D02*
X155326252Y-104545000D01*
X154803748Y-106015000D02*
X155326252Y-106015000D01*
D10*
%TO.C,D2*%
X141115000Y-96330000D02*
X143615000Y-96330000D01*
X141715000Y-98080000D02*
X143015000Y-98080000D01*
X143015000Y-98480000D02*
X141715000Y-98480000D01*
X141715000Y-98280000D02*
X143015000Y-98280000D01*
X141715000Y-100080000D02*
X141715000Y-98080000D01*
X143015000Y-98080000D02*
X143015000Y-100080000D01*
%TO.C,D1*%
X154715000Y-96330000D02*
X157215000Y-96330000D01*
X155315000Y-98080000D02*
X156615000Y-98080000D01*
X156615000Y-98480000D02*
X155315000Y-98480000D01*
X155315000Y-98280000D02*
X156615000Y-98280000D01*
X155315000Y-100080000D02*
X155315000Y-98080000D01*
X156615000Y-98080000D02*
X156615000Y-100080000D01*
D11*
%TO.C,X1*%
X159535000Y-122125000D02*
X159535000Y-93275000D01*
X160595000Y-92215000D02*
X171095000Y-92215000D01*
X172155000Y-93275000D02*
X172155000Y-122125000D01*
X171095000Y-123185000D02*
X160595000Y-123185000D01*
X158640662Y-113490000D02*
X158640662Y-112990000D01*
X158640662Y-112990000D02*
X159073675Y-113240000D01*
X159073675Y-113240000D02*
X158640662Y-113490000D01*
X161635000Y-113931689D02*
X161635000Y-101468311D01*
X170055000Y-113032421D02*
X170055000Y-102367579D01*
X163583256Y-99833530D02*
X168683256Y-100732798D01*
X163583256Y-115566470D02*
X168683256Y-114667202D01*
X168683256Y-100732798D02*
G75*
G02*
X170055000Y-102367579I-288256J-1634781D01*
G01*
X168683256Y-114667202D02*
G75*
G03*
X170055000Y-113032421I-288256J1634781D01*
G01*
X163583256Y-99833530D02*
G75*
G03*
X161635000Y-101468311I-288256J-1634781D01*
G01*
X163583256Y-115566470D02*
G75*
G02*
X161635000Y-113931689I-288256J1634781D01*
G01*
X172155000Y-93275000D02*
G75*
G03*
X171095000Y-92215000I-1060000J0D01*
G01*
X172155000Y-122125000D02*
G75*
G02*
X171095000Y-123185000I-1060000J0D01*
G01*
X160595000Y-92215000D02*
G75*
G03*
X159535000Y-93275000I0J-1060000D01*
G01*
X159535000Y-122125000D02*
G75*
G03*
X160595000Y-123185000I1060000J0D01*
G01*
%TO.C,U1*%
X149155000Y-119820000D02*
X153015000Y-119820000D01*
X153015000Y-119820000D02*
X153015000Y-119585000D01*
X149155000Y-119820000D02*
X145295000Y-119820000D01*
X145295000Y-119820000D02*
X145295000Y-119585000D01*
X149155000Y-106800000D02*
X153015000Y-106800000D01*
X153015000Y-106800000D02*
X153015000Y-107035000D01*
X149155000Y-106800000D02*
X145295000Y-106800000D01*
X145295000Y-106800000D02*
X145295000Y-107035000D01*
X145295000Y-107035000D02*
X143480000Y-107035000D01*
%TO.C,R3*%
X143037936Y-104545000D02*
X143492064Y-104545000D01*
X143037936Y-106015000D02*
X143492064Y-106015000D01*
%TO.C,C4*%
X139480000Y-122016252D02*
X139480000Y-121493748D01*
X140950000Y-122016252D02*
X140950000Y-121493748D01*
%TO.C,C3*%
X157390000Y-122021252D02*
X157390000Y-121498748D01*
X158860000Y-122021252D02*
X158860000Y-121498748D01*
%TO.C,J3*%
D10*
X148781666Y-91142380D02*
X148781666Y-91856666D01*
X148734047Y-91999523D01*
X148638809Y-92094761D01*
X148495952Y-92142380D01*
X148400714Y-92142380D01*
X149162619Y-91142380D02*
X149781666Y-91142380D01*
X149448333Y-91523333D01*
X149591190Y-91523333D01*
X149686428Y-91570952D01*
X149734047Y-91618571D01*
X149781666Y-91713809D01*
X149781666Y-91951904D01*
X149734047Y-92047142D01*
X149686428Y-92094761D01*
X149591190Y-92142380D01*
X149305476Y-92142380D01*
X149210238Y-92094761D01*
X149162619Y-92047142D01*
%TO.C,F1*%
X155698333Y-90032857D02*
X155431666Y-90032857D01*
X155431666Y-90451904D02*
X155431666Y-89651904D01*
X155812619Y-89651904D01*
X156536428Y-90451904D02*
X156079285Y-90451904D01*
X156307857Y-90451904D02*
X156307857Y-89651904D01*
X156231666Y-89766190D01*
X156155476Y-89842380D01*
X156079285Y-89880476D01*
%TO.C,R4*%
X149031666Y-98151904D02*
X148765000Y-97770952D01*
X148574523Y-98151904D02*
X148574523Y-97351904D01*
X148879285Y-97351904D01*
X148955476Y-97390000D01*
X148993571Y-97428095D01*
X149031666Y-97504285D01*
X149031666Y-97618571D01*
X148993571Y-97694761D01*
X148955476Y-97732857D01*
X148879285Y-97770952D01*
X148574523Y-97770952D01*
X149717380Y-97618571D02*
X149717380Y-98151904D01*
X149526904Y-97313809D02*
X149336428Y-97885238D01*
X149831666Y-97885238D01*
%TO.C,Y1*%
X148708809Y-122776190D02*
X148708809Y-123252380D01*
X148375476Y-122252380D02*
X148708809Y-122776190D01*
X149042142Y-122252380D01*
X149899285Y-123252380D02*
X149327857Y-123252380D01*
X149613571Y-123252380D02*
X149613571Y-122252380D01*
X149518333Y-122395238D01*
X149423095Y-122490476D01*
X149327857Y-122538095D01*
%TO.C,X2*%
X136005476Y-121682380D02*
X136672142Y-122682380D01*
X136672142Y-121682380D02*
X136005476Y-122682380D01*
X137005476Y-121777619D02*
X137053095Y-121730000D01*
X137148333Y-121682380D01*
X137386428Y-121682380D01*
X137481666Y-121730000D01*
X137529285Y-121777619D01*
X137576904Y-121872857D01*
X137576904Y-121968095D01*
X137529285Y-122110952D01*
X136957857Y-122682380D01*
X137576904Y-122682380D01*
%TO.C,R2*%
X145931666Y-98151904D02*
X145665000Y-97770952D01*
X145474523Y-98151904D02*
X145474523Y-97351904D01*
X145779285Y-97351904D01*
X145855476Y-97390000D01*
X145893571Y-97428095D01*
X145931666Y-97504285D01*
X145931666Y-97618571D01*
X145893571Y-97694761D01*
X145855476Y-97732857D01*
X145779285Y-97770952D01*
X145474523Y-97770952D01*
X146236428Y-97428095D02*
X146274523Y-97390000D01*
X146350714Y-97351904D01*
X146541190Y-97351904D01*
X146617380Y-97390000D01*
X146655476Y-97428095D01*
X146693571Y-97504285D01*
X146693571Y-97580476D01*
X146655476Y-97694761D01*
X146198333Y-98151904D01*
X146693571Y-98151904D01*
%TO.C,R1*%
X152131666Y-98151904D02*
X151865000Y-97770952D01*
X151674523Y-98151904D02*
X151674523Y-97351904D01*
X151979285Y-97351904D01*
X152055476Y-97390000D01*
X152093571Y-97428095D01*
X152131666Y-97504285D01*
X152131666Y-97618571D01*
X152093571Y-97694761D01*
X152055476Y-97732857D01*
X151979285Y-97770952D01*
X151674523Y-97770952D01*
X152893571Y-98151904D02*
X152436428Y-98151904D01*
X152665000Y-98151904D02*
X152665000Y-97351904D01*
X152588809Y-97466190D01*
X152512619Y-97542380D01*
X152436428Y-97580476D01*
%TO.C,C2*%
X148931666Y-103865714D02*
X148893571Y-103903809D01*
X148779285Y-103941904D01*
X148703095Y-103941904D01*
X148588809Y-103903809D01*
X148512619Y-103827619D01*
X148474523Y-103751428D01*
X148436428Y-103599047D01*
X148436428Y-103484761D01*
X148474523Y-103332380D01*
X148512619Y-103256190D01*
X148588809Y-103180000D01*
X148703095Y-103141904D01*
X148779285Y-103141904D01*
X148893571Y-103180000D01*
X148931666Y-103218095D01*
X149236428Y-103218095D02*
X149274523Y-103180000D01*
X149350714Y-103141904D01*
X149541190Y-103141904D01*
X149617380Y-103180000D01*
X149655476Y-103218095D01*
X149693571Y-103294285D01*
X149693571Y-103370476D01*
X149655476Y-103484761D01*
X149198333Y-103941904D01*
X149693571Y-103941904D01*
%TO.C,C1*%
X154931666Y-103885714D02*
X154893571Y-103923809D01*
X154779285Y-103961904D01*
X154703095Y-103961904D01*
X154588809Y-103923809D01*
X154512619Y-103847619D01*
X154474523Y-103771428D01*
X154436428Y-103619047D01*
X154436428Y-103504761D01*
X154474523Y-103352380D01*
X154512619Y-103276190D01*
X154588809Y-103200000D01*
X154703095Y-103161904D01*
X154779285Y-103161904D01*
X154893571Y-103200000D01*
X154931666Y-103238095D01*
X155693571Y-103961904D02*
X155236428Y-103961904D01*
X155465000Y-103961904D02*
X155465000Y-103161904D01*
X155388809Y-103276190D01*
X155312619Y-103352380D01*
X155236428Y-103390476D01*
%TO.C,D2*%
X141804523Y-96061904D02*
X141804523Y-95261904D01*
X141995000Y-95261904D01*
X142109285Y-95300000D01*
X142185476Y-95376190D01*
X142223571Y-95452380D01*
X142261666Y-95604761D01*
X142261666Y-95719047D01*
X142223571Y-95871428D01*
X142185476Y-95947619D01*
X142109285Y-96023809D01*
X141995000Y-96061904D01*
X141804523Y-96061904D01*
X142566428Y-95338095D02*
X142604523Y-95300000D01*
X142680714Y-95261904D01*
X142871190Y-95261904D01*
X142947380Y-95300000D01*
X142985476Y-95338095D01*
X143023571Y-95414285D01*
X143023571Y-95490476D01*
X142985476Y-95604761D01*
X142528333Y-96061904D01*
X143023571Y-96061904D01*
%TO.C,D1*%
X155444523Y-96061904D02*
X155444523Y-95261904D01*
X155635000Y-95261904D01*
X155749285Y-95300000D01*
X155825476Y-95376190D01*
X155863571Y-95452380D01*
X155901666Y-95604761D01*
X155901666Y-95719047D01*
X155863571Y-95871428D01*
X155825476Y-95947619D01*
X155749285Y-96023809D01*
X155635000Y-96061904D01*
X155444523Y-96061904D01*
X156663571Y-96061904D02*
X156206428Y-96061904D01*
X156435000Y-96061904D02*
X156435000Y-95261904D01*
X156358809Y-95376190D01*
X156282619Y-95452380D01*
X156206428Y-95490476D01*
%TO.C,X1*%
X160665476Y-121702380D02*
X161332142Y-122702380D01*
X161332142Y-121702380D02*
X160665476Y-122702380D01*
X162236904Y-122702380D02*
X161665476Y-122702380D01*
X161951190Y-122702380D02*
X161951190Y-121702380D01*
X161855952Y-121845238D01*
X161760714Y-121940476D01*
X161665476Y-121988095D01*
%TO.C,U1*%
X148393095Y-108562380D02*
X148393095Y-109371904D01*
X148440714Y-109467142D01*
X148488333Y-109514761D01*
X148583571Y-109562380D01*
X148774047Y-109562380D01*
X148869285Y-109514761D01*
X148916904Y-109467142D01*
X148964523Y-109371904D01*
X148964523Y-108562380D01*
X149964523Y-109562380D02*
X149393095Y-109562380D01*
X149678809Y-109562380D02*
X149678809Y-108562380D01*
X149583571Y-108705238D01*
X149488333Y-108800476D01*
X149393095Y-108848095D01*
%TO.C,R3*%
X143131666Y-103991904D02*
X142865000Y-103610952D01*
X142674523Y-103991904D02*
X142674523Y-103191904D01*
X142979285Y-103191904D01*
X143055476Y-103230000D01*
X143093571Y-103268095D01*
X143131666Y-103344285D01*
X143131666Y-103458571D01*
X143093571Y-103534761D01*
X143055476Y-103572857D01*
X142979285Y-103610952D01*
X142674523Y-103610952D01*
X143398333Y-103191904D02*
X143893571Y-103191904D01*
X143626904Y-103496666D01*
X143741190Y-103496666D01*
X143817380Y-103534761D01*
X143855476Y-103572857D01*
X143893571Y-103649047D01*
X143893571Y-103839523D01*
X143855476Y-103915714D01*
X143817380Y-103953809D01*
X143741190Y-103991904D01*
X143512619Y-103991904D01*
X143436428Y-103953809D01*
X143398333Y-103915714D01*
%TO.C,C4*%
X140091666Y-119655714D02*
X140053571Y-119693809D01*
X139939285Y-119731904D01*
X139863095Y-119731904D01*
X139748809Y-119693809D01*
X139672619Y-119617619D01*
X139634523Y-119541428D01*
X139596428Y-119389047D01*
X139596428Y-119274761D01*
X139634523Y-119122380D01*
X139672619Y-119046190D01*
X139748809Y-118970000D01*
X139863095Y-118931904D01*
X139939285Y-118931904D01*
X140053571Y-118970000D01*
X140091666Y-119008095D01*
X140777380Y-119198571D02*
X140777380Y-119731904D01*
X140586904Y-118893809D02*
X140396428Y-119465238D01*
X140891666Y-119465238D01*
%TO.C,C3*%
X157981666Y-119605714D02*
X157943571Y-119643809D01*
X157829285Y-119681904D01*
X157753095Y-119681904D01*
X157638809Y-119643809D01*
X157562619Y-119567619D01*
X157524523Y-119491428D01*
X157486428Y-119339047D01*
X157486428Y-119224761D01*
X157524523Y-119072380D01*
X157562619Y-118996190D01*
X157638809Y-118920000D01*
X157753095Y-118881904D01*
X157829285Y-118881904D01*
X157943571Y-118920000D01*
X157981666Y-118958095D01*
X158248333Y-118881904D02*
X158743571Y-118881904D01*
X158476904Y-119186666D01*
X158591190Y-119186666D01*
X158667380Y-119224761D01*
X158705476Y-119262857D01*
X158743571Y-119339047D01*
X158743571Y-119529523D01*
X158705476Y-119605714D01*
X158667380Y-119643809D01*
X158591190Y-119681904D01*
X158362619Y-119681904D01*
X158286428Y-119643809D01*
X158248333Y-119605714D01*
%TD*%
M02*
