M48
; DRILL file {KiCad (5.1.6)-1} date 06/08/21 09:34:43
; FORMAT={-:-/ absolute / inch / decimal}
; #@! TF.CreationDate,2021-06-08T09:34:43+02:00
; #@! TF.GenerationSoftware,Kicad,Pcbnew,(5.1.6)-1
FMAT,2
INCH
T1C0.0157
T2C0.0197
T3C0.0315
T4C0.0394
T5C0.1969
%
G90
G05
T1
X5.475Y-4.6488
X5.5065Y-4.4244
X5.5222Y-4.7669
X5.5931Y-4.6882
X5.6049Y-3.9677
X5.7152Y-4.3969
X5.7183Y-4.687
X5.7703Y-4.4362
X5.8215Y-4.0386
X5.8293Y-4.1449
X5.8516Y-4.4967
X5.8726Y-4.6291
X5.9041Y-4.5071
X5.912Y-4.4087
X5.9356Y-4.0583
X5.9711Y-4.3929
X5.9961Y-3.827
X6.0498Y-4.0307
X6.1364Y-4.2472
X6.1404Y-3.9638
X6.1994Y-4.6449
X6.2112Y-3.6886
X6.2112Y-4.1409
X6.227Y-4.7669
X6.2624Y-4.4992
X6.2821Y-4.5465
T2
X5.8096Y-3.7752
X5.8411Y-3.728
X5.8726Y-3.7752
X5.9041Y-3.728
X5.9356Y-3.7752
T4
X5.1585Y-4.0758
X5.1585Y-4.1848
X5.1585Y-4.2939
X5.1585Y-4.403
X5.2703Y-4.0213
X5.2703Y-4.1303
X5.2703Y-4.2394
X5.2703Y-4.3484
X5.2703Y-4.4575
X6.4734Y-4.022
X6.4734Y-4.1311
X6.4734Y-4.2402
X6.4734Y-4.3492
X6.4734Y-4.4583
X6.5852Y-4.0766
X6.5852Y-4.1856
X6.5852Y-4.2947
X6.5852Y-4.4037
T5
X5.2144Y-3.7472
X5.2144Y-4.7315
X6.5293Y-3.748
X6.5293Y-4.7323
T3
G00X5.725Y-3.5665
M15
G01X5.725Y-3.539
M16
G05
G00X6.0203Y-3.5665
M15
G01X6.0203Y-3.539
M16
G05
T0
M30
