%TF.GenerationSoftware,KiCad,Pcbnew,(5.1.6)-1*%
%TF.CreationDate,2021-06-08T09:34:39+02:00*%
%TF.ProjectId,Joyadapter_SMD,4a6f7961-6461-4707-9465-725f534d442e,rev?*%
%TF.SameCoordinates,Original*%
%TF.FileFunction,Copper,L2,Bot*%
%TF.FilePolarity,Positive*%
%FSLAX46Y46*%
G04 Gerber Fmt 4.6, Leading zero omitted, Abs format (unit mm)*
G04 Created by KiCad (PCBNEW (5.1.6)-1) date 2021-06-08 09:34:39*
%MOMM*%
%LPD*%
G01*
G04 APERTURE LIST*
%TA.AperFunction,ComponentPad*%
%ADD10C,1.000000*%
%TD*%
%TA.AperFunction,ComponentPad*%
%ADD11O,1.800000X2.500000*%
%TD*%
%TA.AperFunction,SMDPad,CuDef*%
%ADD12C,1.700000*%
%TD*%
%TA.AperFunction,SMDPad,CuDef*%
%ADD13O,1.700000X1.700000*%
%TD*%
%TA.AperFunction,ComponentPad*%
%ADD14C,1.600000*%
%TD*%
%TA.AperFunction,ComponentPad*%
%ADD15R,1.600000X1.600000*%
%TD*%
%TA.AperFunction,ViaPad*%
%ADD16C,0.800000*%
%TD*%
%TA.AperFunction,Conductor*%
%ADD17C,0.300000*%
%TD*%
%TA.AperFunction,Conductor*%
%ADD18C,0.250000*%
%TD*%
%TA.AperFunction,Conductor*%
%ADD19C,0.500000*%
%TD*%
%TA.AperFunction,Conductor*%
%ADD20C,0.254000*%
%TD*%
G04 APERTURE END LIST*
D10*
%TO.P,J3,2*%
%TO.N,/D-*%
X149965000Y-94690000D03*
%TO.P,J3,4*%
%TO.N,Net-(J3-Pad4)*%
X148365000Y-94690000D03*
%TO.P,J3,1*%
%TO.N,Net-(F1-Pad2)*%
X150765000Y-95890000D03*
%TO.P,J3,5*%
%TO.N,GND*%
X147565000Y-95890000D03*
%TO.P,J3,3*%
%TO.N,/D+*%
X149165000Y-95890000D03*
D11*
%TO.P,J3,6*%
%TO.N,GND*%
X152915000Y-90240000D03*
X145415000Y-90240000D03*
%TD*%
D12*
%TO.P,J1,2*%
%TO.N,VCC*%
X155565000Y-121880000D03*
D13*
%TO.P,J1,1*%
%TO.N,/MISO*%
X153025000Y-121880000D03*
%TO.P,J1,3*%
%TO.N,/SCK*%
X150485000Y-121880000D03*
%TO.P,J1,4*%
%TO.N,/MOSI*%
X147945000Y-121880000D03*
%TO.P,J1,5*%
%TO.N,/RST*%
X145405000Y-121880000D03*
%TO.P,J1,6*%
%TO.N,GND*%
X142865000Y-121880000D03*
%TD*%
D14*
%TO.P,X2,9*%
%TO.N,Net-(U1-Pad3)*%
X131025000Y-111835000D03*
%TO.P,X2,8*%
%TO.N,GND*%
X131025000Y-109065000D03*
%TO.P,X2,7*%
%TO.N,VCC*%
X131025000Y-106295000D03*
%TO.P,X2,6*%
%TO.N,Net-(U1-Pad2)*%
X131025000Y-103525000D03*
%TO.P,X2,5*%
%TO.N,Net-(X2-Pad5)*%
X133865000Y-113220000D03*
%TO.P,X2,4*%
%TO.N,Net-(U1-Pad8)*%
X133865000Y-110450000D03*
%TO.P,X2,3*%
%TO.N,Net-(U1-Pad7)*%
X133865000Y-107680000D03*
%TO.P,X2,2*%
%TO.N,Net-(U1-Pad11)*%
X133865000Y-104910000D03*
D15*
%TO.P,X2,1*%
%TO.N,Net-(U1-Pad9)*%
X133865000Y-102140000D03*
%TD*%
D14*
%TO.P,X1,9*%
%TO.N,/SCK*%
X167265000Y-103545000D03*
%TO.P,X1,8*%
%TO.N,GND*%
X167265000Y-106315000D03*
%TO.P,X1,7*%
%TO.N,VCC*%
X167265000Y-109085000D03*
%TO.P,X1,6*%
%TO.N,/MISO*%
X167265000Y-111855000D03*
%TO.P,X1,5*%
%TO.N,Net-(X1-Pad5)*%
X164425000Y-102160000D03*
%TO.P,X1,4*%
%TO.N,Net-(U1-Pad15)*%
X164425000Y-104930000D03*
%TO.P,X1,3*%
%TO.N,Net-(U1-Pad14)*%
X164425000Y-107700000D03*
%TO.P,X1,2*%
%TO.N,/MOSI*%
X164425000Y-110470000D03*
D15*
%TO.P,X1,1*%
%TO.N,Net-(U1-Pad16)*%
X164425000Y-113240000D03*
%TD*%
D16*
%TO.N,GND*%
X145245000Y-119050000D03*
X148065000Y-105280000D03*
X142365000Y-100780000D03*
X155965000Y-100680000D03*
X158165000Y-121080000D03*
X140265000Y-121080000D03*
X157765000Y-105180000D03*
%TO.N,VCC*%
X150765000Y-103080000D03*
X155865000Y-107880000D03*
X157765000Y-93690000D03*
%TO.N,Net-(U1-Pad15)*%
X159065000Y-114280000D03*
%TO.N,Net-(U1-Pad14)*%
X159565000Y-115480000D03*
%TO.N,Net-(U1-Pad11)*%
X149165000Y-117580000D03*
%TO.N,Net-(U1-Pad9)*%
X139065000Y-118080000D03*
%TO.N,Net-(U1-Pad7)*%
X139865000Y-112380000D03*
%TO.N,Net-(R1-Pad1)*%
X153665000Y-102380000D03*
X157465000Y-117980000D03*
%TO.N,Net-(R2-Pad1)*%
X147865000Y-102580000D03*
X148630000Y-114215000D03*
%TO.N,/MISO*%
X151665000Y-111580000D03*
%TO.N,/SCK*%
X150165000Y-111980000D03*
%TO.N,/MOSI*%
X149965000Y-114480000D03*
%TO.N,/RST*%
X146565000Y-112680000D03*
%TO.N,/D-*%
X152300000Y-97205000D03*
%TO.N,Net-(C4-Pad1)*%
X142065000Y-119080000D03*
X145165000Y-111680000D03*
%TD*%
D17*
%TO.N,VCC*%
X150765000Y-103080000D02*
X150765000Y-103080000D01*
D18*
X155865000Y-121580000D02*
X155565000Y-121880000D01*
X155865000Y-107880000D02*
X155865000Y-121580000D01*
D19*
X150765000Y-103080000D02*
X150765000Y-101190000D01*
X150765000Y-100690000D02*
X157765000Y-93690000D01*
X150765000Y-101190000D02*
X150765000Y-100690000D01*
D18*
%TO.N,Net-(U1-Pad15)*%
X160065000Y-109290000D02*
X160065000Y-113280000D01*
X160065000Y-113280000D02*
X159065000Y-114280000D01*
X159065000Y-114280000D02*
X159065000Y-114280000D01*
X164425000Y-104930000D02*
X160420000Y-108935000D01*
X160775000Y-108580000D02*
X160420000Y-108935000D01*
X160420000Y-108935000D02*
X160065000Y-109290000D01*
%TO.N,Net-(U1-Pad14)*%
X159565000Y-115480000D02*
X159565000Y-115480000D01*
X159565000Y-115480000D02*
X160865000Y-114180000D01*
X160865000Y-114180000D02*
X160865000Y-110280000D01*
X160865000Y-110280000D02*
X163445000Y-107700000D01*
X163445000Y-107700000D02*
X164425000Y-107700000D01*
%TO.N,Net-(U1-Pad11)*%
X133865000Y-104910000D02*
X141795000Y-104910000D01*
X141795000Y-104910000D02*
X146865000Y-109980000D01*
X146865000Y-109980000D02*
X146865000Y-109980000D01*
X147904999Y-111019999D02*
X147904999Y-116319999D01*
X146865000Y-109980000D02*
X147904999Y-111019999D01*
X147904999Y-116319999D02*
X149165000Y-117580000D01*
X149165000Y-117580000D02*
X149165000Y-117580000D01*
%TO.N,Net-(U1-Pad9)*%
X137639999Y-112531999D02*
X137639999Y-116654999D01*
X132739999Y-103265001D02*
X132739999Y-108220001D01*
X133913001Y-108805001D02*
X137639999Y-112531999D01*
X133865000Y-102140000D02*
X132739999Y-103265001D01*
X132739999Y-108220001D02*
X133324999Y-108805001D01*
X133324999Y-108805001D02*
X133913001Y-108805001D01*
X137639999Y-116654999D02*
X139065000Y-118080000D01*
X139065000Y-118080000D02*
X139065000Y-118080000D01*
%TO.N,Net-(U1-Pad7)*%
X133865000Y-107680000D02*
X136165000Y-107680000D01*
X136165000Y-107680000D02*
X139865000Y-111380000D01*
X139865000Y-111380000D02*
X139865000Y-112380000D01*
X139865000Y-112380000D02*
X139865000Y-112380000D01*
%TO.N,Net-(R1-Pad1)*%
X156665000Y-117180000D02*
X157465000Y-117980000D01*
X156665000Y-107180000D02*
X156665000Y-117180000D01*
X153665000Y-102380000D02*
X153665000Y-104180000D01*
X153665000Y-104180000D02*
X156665000Y-107180000D01*
%TO.N,Net-(R2-Pad1)*%
X149065000Y-113780000D02*
X148630000Y-114215000D01*
X147865000Y-102580000D02*
X149065000Y-103780000D01*
X149065000Y-103780000D02*
X149065000Y-113780000D01*
%TO.N,/MISO*%
X151665000Y-120520000D02*
X152245000Y-121100000D01*
X151665000Y-111580000D02*
X151665000Y-120520000D01*
D17*
X151765000Y-120620000D02*
X152245000Y-121100000D01*
X152245000Y-121100000D02*
X153025000Y-121880000D01*
D18*
%TO.N,/SCK*%
X150865000Y-121500000D02*
X150485000Y-121880000D01*
X150865000Y-112680000D02*
X150865000Y-114880000D01*
X150165000Y-111980000D02*
X150865000Y-112680000D01*
X150865000Y-114880000D02*
X150865000Y-121500000D01*
%TO.N,/MOSI*%
X149965000Y-119860000D02*
X147945000Y-121880000D01*
X149965000Y-114480000D02*
X149965000Y-119860000D01*
%TO.N,/RST*%
X146565000Y-120720000D02*
X145405000Y-121880000D01*
X146565000Y-112680000D02*
X146565000Y-120720000D01*
%TO.N,/D-*%
X152300000Y-95950000D02*
X152300000Y-97205000D01*
X151040000Y-94690000D02*
X152300000Y-95950000D01*
X149965000Y-94690000D02*
X151040000Y-94690000D01*
%TO.N,Net-(C4-Pad1)*%
X142065000Y-119080000D02*
X142065000Y-114780000D01*
X142065000Y-114780000D02*
X145165000Y-111680000D01*
X145165000Y-111680000D02*
X145165000Y-111680000D01*
%TD*%
D20*
%TO.N,GND*%
G36*
X172005000Y-124630000D02*
G01*
X126325000Y-124630000D01*
X126325000Y-119871229D01*
X129310000Y-119871229D01*
X129310000Y-120488771D01*
X129430476Y-121094446D01*
X129666799Y-121664979D01*
X130009886Y-122178446D01*
X130446554Y-122615114D01*
X130960021Y-122958201D01*
X131530554Y-123194524D01*
X132136229Y-123315000D01*
X132753771Y-123315000D01*
X133359446Y-123194524D01*
X133929979Y-122958201D01*
X134443446Y-122615114D01*
X134821669Y-122236891D01*
X141423519Y-122236891D01*
X141520843Y-122511252D01*
X141669822Y-122761355D01*
X141864731Y-122977588D01*
X142098080Y-123151641D01*
X142360901Y-123276825D01*
X142508110Y-123321476D01*
X142738000Y-123200155D01*
X142738000Y-122007000D01*
X141544186Y-122007000D01*
X141423519Y-122236891D01*
X134821669Y-122236891D01*
X134880114Y-122178446D01*
X135223201Y-121664979D01*
X135281965Y-121523109D01*
X141423519Y-121523109D01*
X141544186Y-121753000D01*
X142738000Y-121753000D01*
X142738000Y-120559845D01*
X142508110Y-120438524D01*
X142360901Y-120483175D01*
X142098080Y-120608359D01*
X141864731Y-120782412D01*
X141669822Y-120998645D01*
X141520843Y-121248748D01*
X141423519Y-121523109D01*
X135281965Y-121523109D01*
X135459524Y-121094446D01*
X135580000Y-120488771D01*
X135580000Y-119871229D01*
X135459524Y-119265554D01*
X135223201Y-118695021D01*
X134880114Y-118181554D01*
X134443446Y-117744886D01*
X133929979Y-117401799D01*
X133359446Y-117165476D01*
X132753771Y-117045000D01*
X132136229Y-117045000D01*
X131530554Y-117165476D01*
X130960021Y-117401799D01*
X130446554Y-117744886D01*
X130009886Y-118181554D01*
X129666799Y-118695021D01*
X129430476Y-119265554D01*
X129310000Y-119871229D01*
X126325000Y-119871229D01*
X126325000Y-111693665D01*
X129590000Y-111693665D01*
X129590000Y-111976335D01*
X129645147Y-112253574D01*
X129753320Y-112514727D01*
X129910363Y-112749759D01*
X130110241Y-112949637D01*
X130345273Y-113106680D01*
X130606426Y-113214853D01*
X130883665Y-113270000D01*
X131166335Y-113270000D01*
X131443574Y-113214853D01*
X131704727Y-113106680D01*
X131939759Y-112949637D01*
X132139637Y-112749759D01*
X132296680Y-112514727D01*
X132404853Y-112253574D01*
X132460000Y-111976335D01*
X132460000Y-111693665D01*
X132404853Y-111416426D01*
X132296680Y-111155273D01*
X132139637Y-110920241D01*
X131939759Y-110720363D01*
X131704727Y-110563320D01*
X131443574Y-110455147D01*
X131415118Y-110449487D01*
X131641292Y-110368603D01*
X131766514Y-110301671D01*
X131838097Y-110057702D01*
X131025000Y-109244605D01*
X130211903Y-110057702D01*
X130283486Y-110301671D01*
X130538996Y-110422571D01*
X130641289Y-110448212D01*
X130606426Y-110455147D01*
X130345273Y-110563320D01*
X130110241Y-110720363D01*
X129910363Y-110920241D01*
X129753320Y-111155273D01*
X129645147Y-111416426D01*
X129590000Y-111693665D01*
X126325000Y-111693665D01*
X126325000Y-109135512D01*
X129584783Y-109135512D01*
X129626213Y-109415130D01*
X129721397Y-109681292D01*
X129788329Y-109806514D01*
X130032298Y-109878097D01*
X130845395Y-109065000D01*
X130032298Y-108251903D01*
X129788329Y-108323486D01*
X129667429Y-108578996D01*
X129598700Y-108853184D01*
X129584783Y-109135512D01*
X126325000Y-109135512D01*
X126325000Y-103383665D01*
X129590000Y-103383665D01*
X129590000Y-103666335D01*
X129645147Y-103943574D01*
X129753320Y-104204727D01*
X129910363Y-104439759D01*
X130110241Y-104639637D01*
X130345273Y-104796680D01*
X130606426Y-104904853D01*
X130632301Y-104910000D01*
X130606426Y-104915147D01*
X130345273Y-105023320D01*
X130110241Y-105180363D01*
X129910363Y-105380241D01*
X129753320Y-105615273D01*
X129645147Y-105876426D01*
X129590000Y-106153665D01*
X129590000Y-106436335D01*
X129645147Y-106713574D01*
X129753320Y-106974727D01*
X129910363Y-107209759D01*
X130110241Y-107409637D01*
X130345273Y-107566680D01*
X130606426Y-107674853D01*
X130634882Y-107680513D01*
X130408708Y-107761397D01*
X130283486Y-107828329D01*
X130211903Y-108072298D01*
X131025000Y-108885395D01*
X131039143Y-108871253D01*
X131218748Y-109050858D01*
X131204605Y-109065000D01*
X132017702Y-109878097D01*
X132261671Y-109806514D01*
X132382571Y-109551004D01*
X132451300Y-109276816D01*
X132464018Y-109018821D01*
X132761199Y-109316003D01*
X132784998Y-109345002D01*
X132813996Y-109368800D01*
X132870463Y-109415141D01*
X132750363Y-109535241D01*
X132593320Y-109770273D01*
X132485147Y-110031426D01*
X132430000Y-110308665D01*
X132430000Y-110591335D01*
X132485147Y-110868574D01*
X132593320Y-111129727D01*
X132750363Y-111364759D01*
X132950241Y-111564637D01*
X133185273Y-111721680D01*
X133446426Y-111829853D01*
X133472301Y-111835000D01*
X133446426Y-111840147D01*
X133185273Y-111948320D01*
X132950241Y-112105363D01*
X132750363Y-112305241D01*
X132593320Y-112540273D01*
X132485147Y-112801426D01*
X132430000Y-113078665D01*
X132430000Y-113361335D01*
X132485147Y-113638574D01*
X132593320Y-113899727D01*
X132750363Y-114134759D01*
X132950241Y-114334637D01*
X133185273Y-114491680D01*
X133446426Y-114599853D01*
X133723665Y-114655000D01*
X134006335Y-114655000D01*
X134283574Y-114599853D01*
X134544727Y-114491680D01*
X134779759Y-114334637D01*
X134979637Y-114134759D01*
X135136680Y-113899727D01*
X135244853Y-113638574D01*
X135300000Y-113361335D01*
X135300000Y-113078665D01*
X135244853Y-112801426D01*
X135136680Y-112540273D01*
X134979637Y-112305241D01*
X134779759Y-112105363D01*
X134544727Y-111948320D01*
X134283574Y-111840147D01*
X134257699Y-111835000D01*
X134283574Y-111829853D01*
X134544727Y-111721680D01*
X134779759Y-111564637D01*
X134979637Y-111364759D01*
X135136680Y-111129727D01*
X135144367Y-111111169D01*
X136879999Y-112846801D01*
X136880000Y-116617667D01*
X136876323Y-116654999D01*
X136890997Y-116803984D01*
X136934453Y-116947245D01*
X137005025Y-117079275D01*
X137067766Y-117155724D01*
X137099999Y-117195000D01*
X137128997Y-117218798D01*
X138030000Y-118119802D01*
X138030000Y-118181939D01*
X138069774Y-118381898D01*
X138147795Y-118570256D01*
X138261063Y-118739774D01*
X138405226Y-118883937D01*
X138574744Y-118997205D01*
X138763102Y-119075226D01*
X138963061Y-119115000D01*
X139166939Y-119115000D01*
X139366898Y-119075226D01*
X139555256Y-118997205D01*
X139724774Y-118883937D01*
X139868937Y-118739774D01*
X139982205Y-118570256D01*
X140060226Y-118381898D01*
X140100000Y-118181939D01*
X140100000Y-117978061D01*
X140060226Y-117778102D01*
X139982205Y-117589744D01*
X139868937Y-117420226D01*
X139724774Y-117276063D01*
X139555256Y-117162795D01*
X139366898Y-117084774D01*
X139166939Y-117045000D01*
X139104802Y-117045000D01*
X138399999Y-116340198D01*
X138399999Y-112569321D01*
X138403675Y-112531998D01*
X138399999Y-112494675D01*
X138399999Y-112494666D01*
X138389002Y-112383013D01*
X138345545Y-112239752D01*
X138294191Y-112143676D01*
X138274973Y-112107722D01*
X138203798Y-112020996D01*
X138180000Y-111991998D01*
X138151003Y-111968201D01*
X134878599Y-108695797D01*
X134979637Y-108594759D01*
X135083043Y-108440000D01*
X135850199Y-108440000D01*
X139095744Y-111685545D01*
X139061063Y-111720226D01*
X138947795Y-111889744D01*
X138869774Y-112078102D01*
X138830000Y-112278061D01*
X138830000Y-112481939D01*
X138869774Y-112681898D01*
X138947795Y-112870256D01*
X139061063Y-113039774D01*
X139205226Y-113183937D01*
X139374744Y-113297205D01*
X139563102Y-113375226D01*
X139763061Y-113415000D01*
X139966939Y-113415000D01*
X140166898Y-113375226D01*
X140355256Y-113297205D01*
X140524774Y-113183937D01*
X140668937Y-113039774D01*
X140782205Y-112870256D01*
X140860226Y-112681898D01*
X140900000Y-112481939D01*
X140900000Y-112278061D01*
X140860226Y-112078102D01*
X140782205Y-111889744D01*
X140668937Y-111720226D01*
X140625000Y-111676289D01*
X140625000Y-111417322D01*
X140628676Y-111379999D01*
X140625000Y-111342676D01*
X140625000Y-111342667D01*
X140614003Y-111231014D01*
X140570546Y-111087753D01*
X140499974Y-110955724D01*
X140405001Y-110839999D01*
X140376004Y-110816202D01*
X136728804Y-107169003D01*
X136705001Y-107139999D01*
X136589276Y-107045026D01*
X136457247Y-106974454D01*
X136313986Y-106930997D01*
X136202333Y-106920000D01*
X136202322Y-106920000D01*
X136165000Y-106916324D01*
X136127678Y-106920000D01*
X135083043Y-106920000D01*
X134979637Y-106765241D01*
X134779759Y-106565363D01*
X134544727Y-106408320D01*
X134283574Y-106300147D01*
X134257699Y-106295000D01*
X134283574Y-106289853D01*
X134544727Y-106181680D01*
X134779759Y-106024637D01*
X134979637Y-105824759D01*
X135083043Y-105670000D01*
X141480199Y-105670000D01*
X146301200Y-110491002D01*
X146324999Y-110520001D01*
X146354002Y-110543804D01*
X147144999Y-111334801D01*
X147144999Y-111822759D01*
X147055256Y-111762795D01*
X146866898Y-111684774D01*
X146666939Y-111645000D01*
X146463061Y-111645000D01*
X146263102Y-111684774D01*
X146200000Y-111710912D01*
X146200000Y-111578061D01*
X146160226Y-111378102D01*
X146082205Y-111189744D01*
X145968937Y-111020226D01*
X145824774Y-110876063D01*
X145655256Y-110762795D01*
X145466898Y-110684774D01*
X145266939Y-110645000D01*
X145063061Y-110645000D01*
X144863102Y-110684774D01*
X144674744Y-110762795D01*
X144505226Y-110876063D01*
X144361063Y-111020226D01*
X144247795Y-111189744D01*
X144169774Y-111378102D01*
X144130000Y-111578061D01*
X144130000Y-111640198D01*
X141553998Y-114216201D01*
X141525000Y-114239999D01*
X141501202Y-114268997D01*
X141501201Y-114268998D01*
X141430026Y-114355724D01*
X141359454Y-114487754D01*
X141334343Y-114570537D01*
X141325451Y-114599853D01*
X141315998Y-114631015D01*
X141301324Y-114780000D01*
X141305001Y-114817332D01*
X141305000Y-118376289D01*
X141261063Y-118420226D01*
X141147795Y-118589744D01*
X141069774Y-118778102D01*
X141030000Y-118978061D01*
X141030000Y-119181939D01*
X141069774Y-119381898D01*
X141147795Y-119570256D01*
X141261063Y-119739774D01*
X141405226Y-119883937D01*
X141574744Y-119997205D01*
X141763102Y-120075226D01*
X141963061Y-120115000D01*
X142166939Y-120115000D01*
X142366898Y-120075226D01*
X142555256Y-119997205D01*
X142724774Y-119883937D01*
X142868937Y-119739774D01*
X142982205Y-119570256D01*
X143060226Y-119381898D01*
X143100000Y-119181939D01*
X143100000Y-118978061D01*
X143060226Y-118778102D01*
X142982205Y-118589744D01*
X142868937Y-118420226D01*
X142825000Y-118376289D01*
X142825000Y-115094801D01*
X145204802Y-112715000D01*
X145266939Y-112715000D01*
X145466898Y-112675226D01*
X145530000Y-112649088D01*
X145530000Y-112781939D01*
X145569774Y-112981898D01*
X145647795Y-113170256D01*
X145761063Y-113339774D01*
X145805000Y-113383711D01*
X145805001Y-120405197D01*
X145771408Y-120438790D01*
X145551260Y-120395000D01*
X145258740Y-120395000D01*
X144971842Y-120452068D01*
X144701589Y-120564010D01*
X144458368Y-120726525D01*
X144251525Y-120933368D01*
X144129805Y-121115534D01*
X144060178Y-120998645D01*
X143865269Y-120782412D01*
X143631920Y-120608359D01*
X143369099Y-120483175D01*
X143221890Y-120438524D01*
X142992000Y-120559845D01*
X142992000Y-121753000D01*
X143012000Y-121753000D01*
X143012000Y-122007000D01*
X142992000Y-122007000D01*
X142992000Y-123200155D01*
X143221890Y-123321476D01*
X143369099Y-123276825D01*
X143631920Y-123151641D01*
X143865269Y-122977588D01*
X144060178Y-122761355D01*
X144129805Y-122644466D01*
X144251525Y-122826632D01*
X144458368Y-123033475D01*
X144701589Y-123195990D01*
X144971842Y-123307932D01*
X145258740Y-123365000D01*
X145551260Y-123365000D01*
X145838158Y-123307932D01*
X146108411Y-123195990D01*
X146351632Y-123033475D01*
X146558475Y-122826632D01*
X146675000Y-122652240D01*
X146791525Y-122826632D01*
X146998368Y-123033475D01*
X147241589Y-123195990D01*
X147511842Y-123307932D01*
X147798740Y-123365000D01*
X148091260Y-123365000D01*
X148378158Y-123307932D01*
X148648411Y-123195990D01*
X148891632Y-123033475D01*
X149098475Y-122826632D01*
X149215000Y-122652240D01*
X149331525Y-122826632D01*
X149538368Y-123033475D01*
X149781589Y-123195990D01*
X150051842Y-123307932D01*
X150338740Y-123365000D01*
X150631260Y-123365000D01*
X150918158Y-123307932D01*
X151188411Y-123195990D01*
X151431632Y-123033475D01*
X151638475Y-122826632D01*
X151755000Y-122652240D01*
X151871525Y-122826632D01*
X152078368Y-123033475D01*
X152321589Y-123195990D01*
X152591842Y-123307932D01*
X152878740Y-123365000D01*
X153171260Y-123365000D01*
X153458158Y-123307932D01*
X153728411Y-123195990D01*
X153971632Y-123033475D01*
X154178475Y-122826632D01*
X154295000Y-122652240D01*
X154411525Y-122826632D01*
X154618368Y-123033475D01*
X154861589Y-123195990D01*
X155131842Y-123307932D01*
X155418740Y-123365000D01*
X155711260Y-123365000D01*
X155998158Y-123307932D01*
X156268411Y-123195990D01*
X156511632Y-123033475D01*
X156718475Y-122826632D01*
X156880990Y-122583411D01*
X156992932Y-122313158D01*
X157050000Y-122026260D01*
X157050000Y-121733740D01*
X156992932Y-121446842D01*
X156880990Y-121176589D01*
X156718475Y-120933368D01*
X156625000Y-120839893D01*
X156625000Y-119891229D01*
X162710000Y-119891229D01*
X162710000Y-120508771D01*
X162830476Y-121114446D01*
X163066799Y-121684979D01*
X163409886Y-122198446D01*
X163846554Y-122635114D01*
X164360021Y-122978201D01*
X164930554Y-123214524D01*
X165536229Y-123335000D01*
X166153771Y-123335000D01*
X166759446Y-123214524D01*
X167329979Y-122978201D01*
X167843446Y-122635114D01*
X168280114Y-122198446D01*
X168623201Y-121684979D01*
X168859524Y-121114446D01*
X168980000Y-120508771D01*
X168980000Y-119891229D01*
X168859524Y-119285554D01*
X168623201Y-118715021D01*
X168280114Y-118201554D01*
X167843446Y-117764886D01*
X167329979Y-117421799D01*
X166759446Y-117185476D01*
X166153771Y-117065000D01*
X165536229Y-117065000D01*
X164930554Y-117185476D01*
X164360021Y-117421799D01*
X163846554Y-117764886D01*
X163409886Y-118201554D01*
X163066799Y-118715021D01*
X162830476Y-119285554D01*
X162710000Y-119891229D01*
X156625000Y-119891229D01*
X156625000Y-118585802D01*
X156661063Y-118639774D01*
X156805226Y-118783937D01*
X156974744Y-118897205D01*
X157163102Y-118975226D01*
X157363061Y-119015000D01*
X157566939Y-119015000D01*
X157766898Y-118975226D01*
X157955256Y-118897205D01*
X158124774Y-118783937D01*
X158268937Y-118639774D01*
X158382205Y-118470256D01*
X158460226Y-118281898D01*
X158500000Y-118081939D01*
X158500000Y-117878061D01*
X158460226Y-117678102D01*
X158382205Y-117489744D01*
X158268937Y-117320226D01*
X158124774Y-117176063D01*
X157955256Y-117062795D01*
X157766898Y-116984774D01*
X157566939Y-116945000D01*
X157504801Y-116945000D01*
X157425000Y-116865199D01*
X157425000Y-114178061D01*
X158030000Y-114178061D01*
X158030000Y-114381939D01*
X158069774Y-114581898D01*
X158147795Y-114770256D01*
X158261063Y-114939774D01*
X158405226Y-115083937D01*
X158567003Y-115192033D01*
X158530000Y-115378061D01*
X158530000Y-115581939D01*
X158569774Y-115781898D01*
X158647795Y-115970256D01*
X158761063Y-116139774D01*
X158905226Y-116283937D01*
X159074744Y-116397205D01*
X159263102Y-116475226D01*
X159463061Y-116515000D01*
X159666939Y-116515000D01*
X159866898Y-116475226D01*
X160055256Y-116397205D01*
X160224774Y-116283937D01*
X160368937Y-116139774D01*
X160482205Y-115970256D01*
X160560226Y-115781898D01*
X160600000Y-115581939D01*
X160600000Y-115519801D01*
X161376004Y-114743798D01*
X161405001Y-114720001D01*
X161499974Y-114604276D01*
X161570546Y-114472247D01*
X161614003Y-114328986D01*
X161625000Y-114217333D01*
X161625000Y-114217325D01*
X161628676Y-114180000D01*
X161625000Y-114142675D01*
X161625000Y-110594801D01*
X163457703Y-108762099D01*
X163510241Y-108814637D01*
X163745273Y-108971680D01*
X164006426Y-109079853D01*
X164032301Y-109085000D01*
X164006426Y-109090147D01*
X163745273Y-109198320D01*
X163510241Y-109355363D01*
X163310363Y-109555241D01*
X163153320Y-109790273D01*
X163045147Y-110051426D01*
X162990000Y-110328665D01*
X162990000Y-110611335D01*
X163045147Y-110888574D01*
X163153320Y-111149727D01*
X163310363Y-111384759D01*
X163510241Y-111584637D01*
X163745273Y-111741680D01*
X163890725Y-111801928D01*
X163625000Y-111801928D01*
X163500518Y-111814188D01*
X163380820Y-111850498D01*
X163270506Y-111909463D01*
X163173815Y-111988815D01*
X163094463Y-112085506D01*
X163035498Y-112195820D01*
X162999188Y-112315518D01*
X162986928Y-112440000D01*
X162986928Y-114040000D01*
X162999188Y-114164482D01*
X163035498Y-114284180D01*
X163094463Y-114394494D01*
X163173815Y-114491185D01*
X163270506Y-114570537D01*
X163380820Y-114629502D01*
X163500518Y-114665812D01*
X163625000Y-114678072D01*
X165225000Y-114678072D01*
X165349482Y-114665812D01*
X165469180Y-114629502D01*
X165579494Y-114570537D01*
X165676185Y-114491185D01*
X165755537Y-114394494D01*
X165814502Y-114284180D01*
X165850812Y-114164482D01*
X165863072Y-114040000D01*
X165863072Y-112440000D01*
X165850812Y-112315518D01*
X165814502Y-112195820D01*
X165755537Y-112085506D01*
X165676185Y-111988815D01*
X165579494Y-111909463D01*
X165469180Y-111850498D01*
X165349482Y-111814188D01*
X165225000Y-111801928D01*
X164959275Y-111801928D01*
X165104727Y-111741680D01*
X165339759Y-111584637D01*
X165539637Y-111384759D01*
X165696680Y-111149727D01*
X165804853Y-110888574D01*
X165860000Y-110611335D01*
X165860000Y-110328665D01*
X165804853Y-110051426D01*
X165696680Y-109790273D01*
X165539637Y-109555241D01*
X165339759Y-109355363D01*
X165104727Y-109198320D01*
X164843574Y-109090147D01*
X164817699Y-109085000D01*
X164843574Y-109079853D01*
X165104727Y-108971680D01*
X165146654Y-108943665D01*
X165830000Y-108943665D01*
X165830000Y-109226335D01*
X165885147Y-109503574D01*
X165993320Y-109764727D01*
X166150363Y-109999759D01*
X166350241Y-110199637D01*
X166585273Y-110356680D01*
X166846426Y-110464853D01*
X166872301Y-110470000D01*
X166846426Y-110475147D01*
X166585273Y-110583320D01*
X166350241Y-110740363D01*
X166150363Y-110940241D01*
X165993320Y-111175273D01*
X165885147Y-111436426D01*
X165830000Y-111713665D01*
X165830000Y-111996335D01*
X165885147Y-112273574D01*
X165993320Y-112534727D01*
X166150363Y-112769759D01*
X166350241Y-112969637D01*
X166585273Y-113126680D01*
X166846426Y-113234853D01*
X167123665Y-113290000D01*
X167406335Y-113290000D01*
X167683574Y-113234853D01*
X167944727Y-113126680D01*
X168179759Y-112969637D01*
X168379637Y-112769759D01*
X168536680Y-112534727D01*
X168644853Y-112273574D01*
X168700000Y-111996335D01*
X168700000Y-111713665D01*
X168644853Y-111436426D01*
X168536680Y-111175273D01*
X168379637Y-110940241D01*
X168179759Y-110740363D01*
X167944727Y-110583320D01*
X167683574Y-110475147D01*
X167657699Y-110470000D01*
X167683574Y-110464853D01*
X167944727Y-110356680D01*
X168179759Y-110199637D01*
X168379637Y-109999759D01*
X168536680Y-109764727D01*
X168644853Y-109503574D01*
X168700000Y-109226335D01*
X168700000Y-108943665D01*
X168644853Y-108666426D01*
X168536680Y-108405273D01*
X168379637Y-108170241D01*
X168179759Y-107970363D01*
X167944727Y-107813320D01*
X167683574Y-107705147D01*
X167655118Y-107699487D01*
X167881292Y-107618603D01*
X168006514Y-107551671D01*
X168078097Y-107307702D01*
X167265000Y-106494605D01*
X166451903Y-107307702D01*
X166523486Y-107551671D01*
X166778996Y-107672571D01*
X166881289Y-107698212D01*
X166846426Y-107705147D01*
X166585273Y-107813320D01*
X166350241Y-107970363D01*
X166150363Y-108170241D01*
X165993320Y-108405273D01*
X165885147Y-108666426D01*
X165830000Y-108943665D01*
X165146654Y-108943665D01*
X165339759Y-108814637D01*
X165539637Y-108614759D01*
X165696680Y-108379727D01*
X165804853Y-108118574D01*
X165860000Y-107841335D01*
X165860000Y-107558665D01*
X165804853Y-107281426D01*
X165696680Y-107020273D01*
X165539637Y-106785241D01*
X165339759Y-106585363D01*
X165104727Y-106428320D01*
X165001380Y-106385512D01*
X165824783Y-106385512D01*
X165866213Y-106665130D01*
X165961397Y-106931292D01*
X166028329Y-107056514D01*
X166272298Y-107128097D01*
X167085395Y-106315000D01*
X167444605Y-106315000D01*
X168257702Y-107128097D01*
X168501671Y-107056514D01*
X168622571Y-106801004D01*
X168691300Y-106526816D01*
X168705217Y-106244488D01*
X168663787Y-105964870D01*
X168568603Y-105698708D01*
X168501671Y-105573486D01*
X168257702Y-105501903D01*
X167444605Y-106315000D01*
X167085395Y-106315000D01*
X166272298Y-105501903D01*
X166028329Y-105573486D01*
X165907429Y-105828996D01*
X165838700Y-106103184D01*
X165824783Y-106385512D01*
X165001380Y-106385512D01*
X164843574Y-106320147D01*
X164817699Y-106315000D01*
X164843574Y-106309853D01*
X165104727Y-106201680D01*
X165339759Y-106044637D01*
X165539637Y-105844759D01*
X165696680Y-105609727D01*
X165804853Y-105348574D01*
X165860000Y-105071335D01*
X165860000Y-104788665D01*
X165804853Y-104511426D01*
X165696680Y-104250273D01*
X165539637Y-104015241D01*
X165339759Y-103815363D01*
X165104727Y-103658320D01*
X164843574Y-103550147D01*
X164817699Y-103545000D01*
X164843574Y-103539853D01*
X165104727Y-103431680D01*
X165146654Y-103403665D01*
X165830000Y-103403665D01*
X165830000Y-103686335D01*
X165885147Y-103963574D01*
X165993320Y-104224727D01*
X166150363Y-104459759D01*
X166350241Y-104659637D01*
X166585273Y-104816680D01*
X166846426Y-104924853D01*
X166874882Y-104930513D01*
X166648708Y-105011397D01*
X166523486Y-105078329D01*
X166451903Y-105322298D01*
X167265000Y-106135395D01*
X168078097Y-105322298D01*
X168006514Y-105078329D01*
X167751004Y-104957429D01*
X167648711Y-104931788D01*
X167683574Y-104924853D01*
X167944727Y-104816680D01*
X168179759Y-104659637D01*
X168379637Y-104459759D01*
X168536680Y-104224727D01*
X168644853Y-103963574D01*
X168700000Y-103686335D01*
X168700000Y-103403665D01*
X168644853Y-103126426D01*
X168536680Y-102865273D01*
X168379637Y-102630241D01*
X168179759Y-102430363D01*
X167944727Y-102273320D01*
X167683574Y-102165147D01*
X167406335Y-102110000D01*
X167123665Y-102110000D01*
X166846426Y-102165147D01*
X166585273Y-102273320D01*
X166350241Y-102430363D01*
X166150363Y-102630241D01*
X165993320Y-102865273D01*
X165885147Y-103126426D01*
X165830000Y-103403665D01*
X165146654Y-103403665D01*
X165339759Y-103274637D01*
X165539637Y-103074759D01*
X165696680Y-102839727D01*
X165804853Y-102578574D01*
X165860000Y-102301335D01*
X165860000Y-102018665D01*
X165804853Y-101741426D01*
X165696680Y-101480273D01*
X165539637Y-101245241D01*
X165339759Y-101045363D01*
X165104727Y-100888320D01*
X164843574Y-100780147D01*
X164566335Y-100725000D01*
X164283665Y-100725000D01*
X164006426Y-100780147D01*
X163745273Y-100888320D01*
X163510241Y-101045363D01*
X163310363Y-101245241D01*
X163153320Y-101480273D01*
X163045147Y-101741426D01*
X162990000Y-102018665D01*
X162990000Y-102301335D01*
X163045147Y-102578574D01*
X163153320Y-102839727D01*
X163310363Y-103074759D01*
X163510241Y-103274637D01*
X163745273Y-103431680D01*
X164006426Y-103539853D01*
X164032301Y-103545000D01*
X164006426Y-103550147D01*
X163745273Y-103658320D01*
X163510241Y-103815363D01*
X163310363Y-104015241D01*
X163153320Y-104250273D01*
X163045147Y-104511426D01*
X162990000Y-104788665D01*
X162990000Y-105071335D01*
X163026312Y-105253886D01*
X160263997Y-108016201D01*
X160263998Y-108016201D01*
X159554003Y-108726196D01*
X159524999Y-108749999D01*
X159471952Y-108814637D01*
X159430026Y-108865724D01*
X159384081Y-108951680D01*
X159359454Y-108997754D01*
X159315997Y-109141015D01*
X159305000Y-109252668D01*
X159305000Y-109252678D01*
X159301324Y-109290000D01*
X159305000Y-109327323D01*
X159305001Y-112965197D01*
X159025199Y-113245000D01*
X158963061Y-113245000D01*
X158763102Y-113284774D01*
X158574744Y-113362795D01*
X158405226Y-113476063D01*
X158261063Y-113620226D01*
X158147795Y-113789744D01*
X158069774Y-113978102D01*
X158030000Y-114178061D01*
X157425000Y-114178061D01*
X157425000Y-107217325D01*
X157428676Y-107180000D01*
X157425000Y-107142675D01*
X157425000Y-107142667D01*
X157414003Y-107031014D01*
X157370546Y-106887753D01*
X157299974Y-106755724D01*
X157205001Y-106639999D01*
X157176004Y-106616202D01*
X154425000Y-103865199D01*
X154425000Y-103083711D01*
X154468937Y-103039774D01*
X154582205Y-102870256D01*
X154660226Y-102681898D01*
X154700000Y-102481939D01*
X154700000Y-102278061D01*
X154660226Y-102078102D01*
X154582205Y-101889744D01*
X154468937Y-101720226D01*
X154324774Y-101576063D01*
X154155256Y-101462795D01*
X153966898Y-101384774D01*
X153766939Y-101345000D01*
X153563061Y-101345000D01*
X153363102Y-101384774D01*
X153174744Y-101462795D01*
X153005226Y-101576063D01*
X152861063Y-101720226D01*
X152747795Y-101889744D01*
X152669774Y-102078102D01*
X152630000Y-102278061D01*
X152630000Y-102481939D01*
X152669774Y-102681898D01*
X152747795Y-102870256D01*
X152861063Y-103039774D01*
X152905000Y-103083711D01*
X152905001Y-104142668D01*
X152901324Y-104180000D01*
X152905001Y-104217333D01*
X152915998Y-104328986D01*
X152921220Y-104346201D01*
X152959454Y-104472246D01*
X153030026Y-104604276D01*
X153101201Y-104691002D01*
X153125000Y-104720001D01*
X153153998Y-104743799D01*
X155373695Y-106963496D01*
X155205226Y-107076063D01*
X155061063Y-107220226D01*
X154947795Y-107389744D01*
X154869774Y-107578102D01*
X154830000Y-107778061D01*
X154830000Y-107981939D01*
X154869774Y-108181898D01*
X154947795Y-108370256D01*
X155061063Y-108539774D01*
X155105000Y-108583711D01*
X155105001Y-120463186D01*
X154861589Y-120564010D01*
X154618368Y-120726525D01*
X154411525Y-120933368D01*
X154295000Y-121107760D01*
X154178475Y-120933368D01*
X153971632Y-120726525D01*
X153728411Y-120564010D01*
X153458158Y-120452068D01*
X153171260Y-120395000D01*
X152878740Y-120395000D01*
X152688081Y-120432925D01*
X152425000Y-120169843D01*
X152425000Y-112283711D01*
X152468937Y-112239774D01*
X152582205Y-112070256D01*
X152660226Y-111881898D01*
X152700000Y-111681939D01*
X152700000Y-111478061D01*
X152660226Y-111278102D01*
X152582205Y-111089744D01*
X152468937Y-110920226D01*
X152324774Y-110776063D01*
X152155256Y-110662795D01*
X151966898Y-110584774D01*
X151766939Y-110545000D01*
X151563061Y-110545000D01*
X151363102Y-110584774D01*
X151174744Y-110662795D01*
X151005226Y-110776063D01*
X150861063Y-110920226D01*
X150747795Y-111089744D01*
X150736478Y-111117066D01*
X150655256Y-111062795D01*
X150466898Y-110984774D01*
X150266939Y-110945000D01*
X150063061Y-110945000D01*
X149863102Y-110984774D01*
X149825000Y-111000556D01*
X149825000Y-103817322D01*
X149828676Y-103779999D01*
X149825000Y-103742676D01*
X149825000Y-103742667D01*
X149814003Y-103631014D01*
X149770546Y-103487753D01*
X149699974Y-103355724D01*
X149605001Y-103239999D01*
X149576004Y-103216202D01*
X148900000Y-102540199D01*
X148900000Y-102478061D01*
X148860226Y-102278102D01*
X148782205Y-102089744D01*
X148668937Y-101920226D01*
X148524774Y-101776063D01*
X148355256Y-101662795D01*
X148166898Y-101584774D01*
X147966939Y-101545000D01*
X147763061Y-101545000D01*
X147563102Y-101584774D01*
X147374744Y-101662795D01*
X147205226Y-101776063D01*
X147061063Y-101920226D01*
X146947795Y-102089744D01*
X146869774Y-102278102D01*
X146830000Y-102478061D01*
X146830000Y-102681939D01*
X146869774Y-102881898D01*
X146947795Y-103070256D01*
X147061063Y-103239774D01*
X147205226Y-103383937D01*
X147374744Y-103497205D01*
X147563102Y-103575226D01*
X147763061Y-103615000D01*
X147825199Y-103615000D01*
X148305000Y-104094802D01*
X148305001Y-110345199D01*
X147428804Y-109469002D01*
X147405001Y-109439999D01*
X147376003Y-109416201D01*
X142358804Y-104399003D01*
X142335001Y-104369999D01*
X142219276Y-104275026D01*
X142087247Y-104204454D01*
X141943986Y-104160997D01*
X141832333Y-104150000D01*
X141832322Y-104150000D01*
X141795000Y-104146324D01*
X141757678Y-104150000D01*
X135083043Y-104150000D01*
X134979637Y-103995241D01*
X134779759Y-103795363D01*
X134544727Y-103638320D01*
X134399275Y-103578072D01*
X134665000Y-103578072D01*
X134789482Y-103565812D01*
X134909180Y-103529502D01*
X135019494Y-103470537D01*
X135116185Y-103391185D01*
X135195537Y-103294494D01*
X135254502Y-103184180D01*
X135290812Y-103064482D01*
X135303072Y-102940000D01*
X135303072Y-101340000D01*
X135290812Y-101215518D01*
X135254502Y-101095820D01*
X135195537Y-100985506D01*
X135116185Y-100888815D01*
X135019494Y-100809463D01*
X134909180Y-100750498D01*
X134789482Y-100714188D01*
X134665000Y-100701928D01*
X133065000Y-100701928D01*
X132940518Y-100714188D01*
X132820820Y-100750498D01*
X132710506Y-100809463D01*
X132613815Y-100888815D01*
X132534463Y-100985506D01*
X132475498Y-101095820D01*
X132439188Y-101215518D01*
X132426928Y-101340000D01*
X132426928Y-102503271D01*
X132229001Y-102701197D01*
X132210537Y-102716351D01*
X132139637Y-102610241D01*
X131939759Y-102410363D01*
X131704727Y-102253320D01*
X131443574Y-102145147D01*
X131166335Y-102090000D01*
X130883665Y-102090000D01*
X130606426Y-102145147D01*
X130345273Y-102253320D01*
X130110241Y-102410363D01*
X129910363Y-102610241D01*
X129753320Y-102845273D01*
X129645147Y-103106426D01*
X129590000Y-103383665D01*
X126325000Y-103383665D01*
X126325000Y-94871229D01*
X129310000Y-94871229D01*
X129310000Y-95488771D01*
X129430476Y-96094446D01*
X129666799Y-96664979D01*
X130009886Y-97178446D01*
X130446554Y-97615114D01*
X130960021Y-97958201D01*
X131530554Y-98194524D01*
X132136229Y-98315000D01*
X132753771Y-98315000D01*
X133359446Y-98194524D01*
X133929979Y-97958201D01*
X134443446Y-97615114D01*
X134880114Y-97178446D01*
X135223201Y-96664979D01*
X135459524Y-96094446D01*
X135483799Y-95972406D01*
X146427489Y-95972406D01*
X146465423Y-96192740D01*
X146545613Y-96401440D01*
X146573412Y-96453450D01*
X146786834Y-96488561D01*
X147385395Y-95890000D01*
X146786834Y-95291439D01*
X146573412Y-95326550D01*
X146482542Y-95530826D01*
X146433269Y-95748905D01*
X146427489Y-95972406D01*
X135483799Y-95972406D01*
X135580000Y-95488771D01*
X135580000Y-95111834D01*
X146966439Y-95111834D01*
X147565000Y-95710395D01*
X147579143Y-95696253D01*
X147758748Y-95875858D01*
X147744605Y-95890000D01*
X147758748Y-95904143D01*
X147579143Y-96083748D01*
X147565000Y-96069605D01*
X146966439Y-96668166D01*
X147001550Y-96881588D01*
X147205826Y-96972458D01*
X147423905Y-97021731D01*
X147647406Y-97027511D01*
X147867740Y-96989577D01*
X148076440Y-96909387D01*
X148128450Y-96881588D01*
X148163561Y-96668169D01*
X148281211Y-96785819D01*
X148368449Y-96698581D01*
X148441480Y-96771612D01*
X148627376Y-96895824D01*
X148833933Y-96981383D01*
X149053212Y-97025000D01*
X149276788Y-97025000D01*
X149496067Y-96981383D01*
X149702624Y-96895824D01*
X149888520Y-96771612D01*
X149965000Y-96695132D01*
X150041480Y-96771612D01*
X150227376Y-96895824D01*
X150433933Y-96981383D01*
X150653212Y-97025000D01*
X150876788Y-97025000D01*
X151096067Y-96981383D01*
X151302624Y-96895824D01*
X151309765Y-96891052D01*
X151304774Y-96903102D01*
X151265000Y-97103061D01*
X151265000Y-97306939D01*
X151304774Y-97506898D01*
X151382795Y-97695256D01*
X151496063Y-97864774D01*
X151640226Y-98008937D01*
X151809744Y-98122205D01*
X151998102Y-98200226D01*
X152002351Y-98201071D01*
X150169952Y-100033470D01*
X150136184Y-100061183D01*
X150108471Y-100094951D01*
X150108468Y-100094954D01*
X150025590Y-100195941D01*
X149943411Y-100349687D01*
X149892805Y-100516510D01*
X149880000Y-100646523D01*
X149880000Y-100646531D01*
X149875719Y-100690000D01*
X149880000Y-100733469D01*
X149880000Y-101233476D01*
X149880001Y-101233486D01*
X149880000Y-102541545D01*
X149847795Y-102589744D01*
X149769774Y-102778102D01*
X149730000Y-102978061D01*
X149730000Y-103181939D01*
X149769774Y-103381898D01*
X149847795Y-103570256D01*
X149961063Y-103739774D01*
X150105226Y-103883937D01*
X150274744Y-103997205D01*
X150463102Y-104075226D01*
X150663061Y-104115000D01*
X150866939Y-104115000D01*
X151066898Y-104075226D01*
X151255256Y-103997205D01*
X151424774Y-103883937D01*
X151568937Y-103739774D01*
X151682205Y-103570256D01*
X151760226Y-103381898D01*
X151800000Y-103181939D01*
X151800000Y-102978061D01*
X151760226Y-102778102D01*
X151682205Y-102589744D01*
X151650000Y-102541546D01*
X151650000Y-101056578D01*
X157815349Y-94891229D01*
X162710000Y-94891229D01*
X162710000Y-95508771D01*
X162830476Y-96114446D01*
X163066799Y-96684979D01*
X163409886Y-97198446D01*
X163846554Y-97635114D01*
X164360021Y-97978201D01*
X164930554Y-98214524D01*
X165536229Y-98335000D01*
X166153771Y-98335000D01*
X166759446Y-98214524D01*
X167329979Y-97978201D01*
X167843446Y-97635114D01*
X168280114Y-97198446D01*
X168623201Y-96684979D01*
X168859524Y-96114446D01*
X168980000Y-95508771D01*
X168980000Y-94891229D01*
X168859524Y-94285554D01*
X168623201Y-93715021D01*
X168280114Y-93201554D01*
X167843446Y-92764886D01*
X167329979Y-92421799D01*
X166759446Y-92185476D01*
X166153771Y-92065000D01*
X165536229Y-92065000D01*
X164930554Y-92185476D01*
X164360021Y-92421799D01*
X163846554Y-92764886D01*
X163409886Y-93201554D01*
X163066799Y-93715021D01*
X162830476Y-94285554D01*
X162710000Y-94891229D01*
X157815349Y-94891229D01*
X158010044Y-94696535D01*
X158066898Y-94685226D01*
X158255256Y-94607205D01*
X158424774Y-94493937D01*
X158568937Y-94349774D01*
X158682205Y-94180256D01*
X158760226Y-93991898D01*
X158800000Y-93791939D01*
X158800000Y-93588061D01*
X158760226Y-93388102D01*
X158682205Y-93199744D01*
X158568937Y-93030226D01*
X158424774Y-92886063D01*
X158255256Y-92772795D01*
X158066898Y-92694774D01*
X157866939Y-92655000D01*
X157663061Y-92655000D01*
X157463102Y-92694774D01*
X157274744Y-92772795D01*
X157105226Y-92886063D01*
X156961063Y-93030226D01*
X156847795Y-93199744D01*
X156769774Y-93388102D01*
X156758465Y-93444956D01*
X153296071Y-96907350D01*
X153295226Y-96903102D01*
X153217205Y-96714744D01*
X153103937Y-96545226D01*
X153060000Y-96501289D01*
X153060000Y-95987322D01*
X153063676Y-95949999D01*
X153060000Y-95912676D01*
X153060000Y-95912667D01*
X153049003Y-95801014D01*
X153005546Y-95657753D01*
X152952725Y-95558933D01*
X152934974Y-95525723D01*
X152863799Y-95438997D01*
X152840001Y-95409999D01*
X152811004Y-95386202D01*
X151603804Y-94179003D01*
X151580001Y-94149999D01*
X151464276Y-94055026D01*
X151332247Y-93984454D01*
X151188986Y-93940997D01*
X151077333Y-93930000D01*
X151077322Y-93930000D01*
X151040000Y-93926324D01*
X151002678Y-93930000D01*
X150810132Y-93930000D01*
X150688520Y-93808388D01*
X150502624Y-93684176D01*
X150296067Y-93598617D01*
X150076788Y-93555000D01*
X149853212Y-93555000D01*
X149633933Y-93598617D01*
X149427376Y-93684176D01*
X149241480Y-93808388D01*
X149165000Y-93884868D01*
X149088520Y-93808388D01*
X148902624Y-93684176D01*
X148696067Y-93598617D01*
X148476788Y-93555000D01*
X148253212Y-93555000D01*
X148033933Y-93598617D01*
X147827376Y-93684176D01*
X147641480Y-93808388D01*
X147483388Y-93966480D01*
X147359176Y-94152376D01*
X147273617Y-94358933D01*
X147230000Y-94578212D01*
X147230000Y-94801788D01*
X147230190Y-94802745D01*
X147053560Y-94870613D01*
X147001550Y-94898412D01*
X146966439Y-95111834D01*
X135580000Y-95111834D01*
X135580000Y-94871229D01*
X135459524Y-94265554D01*
X135223201Y-93695021D01*
X134880114Y-93181554D01*
X134443446Y-92744886D01*
X133929979Y-92401799D01*
X133359446Y-92165476D01*
X132753771Y-92045000D01*
X132136229Y-92045000D01*
X131530554Y-92165476D01*
X130960021Y-92401799D01*
X130446554Y-92744886D01*
X130009886Y-93181554D01*
X129666799Y-93695021D01*
X129430476Y-94265554D01*
X129310000Y-94871229D01*
X126325000Y-94871229D01*
X126325000Y-90367000D01*
X143880000Y-90367000D01*
X143880000Y-90717000D01*
X143934271Y-91014023D01*
X144045446Y-91294751D01*
X144209252Y-91548396D01*
X144419394Y-91765210D01*
X144667796Y-91936862D01*
X144944913Y-92056755D01*
X145050260Y-92081036D01*
X145288000Y-91960378D01*
X145288000Y-90367000D01*
X145542000Y-90367000D01*
X145542000Y-91960378D01*
X145779740Y-92081036D01*
X145885087Y-92056755D01*
X146162204Y-91936862D01*
X146410606Y-91765210D01*
X146620748Y-91548396D01*
X146784554Y-91294751D01*
X146895729Y-91014023D01*
X146950000Y-90717000D01*
X146950000Y-90367000D01*
X151380000Y-90367000D01*
X151380000Y-90717000D01*
X151434271Y-91014023D01*
X151545446Y-91294751D01*
X151709252Y-91548396D01*
X151919394Y-91765210D01*
X152167796Y-91936862D01*
X152444913Y-92056755D01*
X152550260Y-92081036D01*
X152788000Y-91960378D01*
X152788000Y-90367000D01*
X153042000Y-90367000D01*
X153042000Y-91960378D01*
X153279740Y-92081036D01*
X153385087Y-92056755D01*
X153662204Y-91936862D01*
X153910606Y-91765210D01*
X154120748Y-91548396D01*
X154284554Y-91294751D01*
X154395729Y-91014023D01*
X154450000Y-90717000D01*
X154450000Y-90367000D01*
X153042000Y-90367000D01*
X152788000Y-90367000D01*
X151380000Y-90367000D01*
X146950000Y-90367000D01*
X145542000Y-90367000D01*
X145288000Y-90367000D01*
X143880000Y-90367000D01*
X126325000Y-90367000D01*
X126325000Y-88974649D01*
X144187589Y-88965147D01*
X144045446Y-89185249D01*
X143934271Y-89465977D01*
X143880000Y-89763000D01*
X143880000Y-90113000D01*
X145288000Y-90113000D01*
X145288000Y-90093000D01*
X145542000Y-90093000D01*
X145542000Y-90113000D01*
X146950000Y-90113000D01*
X146950000Y-89763000D01*
X146895729Y-89465977D01*
X146784554Y-89185249D01*
X146641568Y-88963842D01*
X151690167Y-88961156D01*
X151545446Y-89185249D01*
X151434271Y-89465977D01*
X151380000Y-89763000D01*
X151380000Y-90113000D01*
X152788000Y-90113000D01*
X152788000Y-90093000D01*
X153042000Y-90093000D01*
X153042000Y-90113000D01*
X154450000Y-90113000D01*
X154450000Y-89763000D01*
X154395729Y-89465977D01*
X154284554Y-89185249D01*
X154138992Y-88959854D01*
X172005001Y-88950351D01*
X172005000Y-124630000D01*
G37*
X172005000Y-124630000D02*
X126325000Y-124630000D01*
X126325000Y-119871229D01*
X129310000Y-119871229D01*
X129310000Y-120488771D01*
X129430476Y-121094446D01*
X129666799Y-121664979D01*
X130009886Y-122178446D01*
X130446554Y-122615114D01*
X130960021Y-122958201D01*
X131530554Y-123194524D01*
X132136229Y-123315000D01*
X132753771Y-123315000D01*
X133359446Y-123194524D01*
X133929979Y-122958201D01*
X134443446Y-122615114D01*
X134821669Y-122236891D01*
X141423519Y-122236891D01*
X141520843Y-122511252D01*
X141669822Y-122761355D01*
X141864731Y-122977588D01*
X142098080Y-123151641D01*
X142360901Y-123276825D01*
X142508110Y-123321476D01*
X142738000Y-123200155D01*
X142738000Y-122007000D01*
X141544186Y-122007000D01*
X141423519Y-122236891D01*
X134821669Y-122236891D01*
X134880114Y-122178446D01*
X135223201Y-121664979D01*
X135281965Y-121523109D01*
X141423519Y-121523109D01*
X141544186Y-121753000D01*
X142738000Y-121753000D01*
X142738000Y-120559845D01*
X142508110Y-120438524D01*
X142360901Y-120483175D01*
X142098080Y-120608359D01*
X141864731Y-120782412D01*
X141669822Y-120998645D01*
X141520843Y-121248748D01*
X141423519Y-121523109D01*
X135281965Y-121523109D01*
X135459524Y-121094446D01*
X135580000Y-120488771D01*
X135580000Y-119871229D01*
X135459524Y-119265554D01*
X135223201Y-118695021D01*
X134880114Y-118181554D01*
X134443446Y-117744886D01*
X133929979Y-117401799D01*
X133359446Y-117165476D01*
X132753771Y-117045000D01*
X132136229Y-117045000D01*
X131530554Y-117165476D01*
X130960021Y-117401799D01*
X130446554Y-117744886D01*
X130009886Y-118181554D01*
X129666799Y-118695021D01*
X129430476Y-119265554D01*
X129310000Y-119871229D01*
X126325000Y-119871229D01*
X126325000Y-111693665D01*
X129590000Y-111693665D01*
X129590000Y-111976335D01*
X129645147Y-112253574D01*
X129753320Y-112514727D01*
X129910363Y-112749759D01*
X130110241Y-112949637D01*
X130345273Y-113106680D01*
X130606426Y-113214853D01*
X130883665Y-113270000D01*
X131166335Y-113270000D01*
X131443574Y-113214853D01*
X131704727Y-113106680D01*
X131939759Y-112949637D01*
X132139637Y-112749759D01*
X132296680Y-112514727D01*
X132404853Y-112253574D01*
X132460000Y-111976335D01*
X132460000Y-111693665D01*
X132404853Y-111416426D01*
X132296680Y-111155273D01*
X132139637Y-110920241D01*
X131939759Y-110720363D01*
X131704727Y-110563320D01*
X131443574Y-110455147D01*
X131415118Y-110449487D01*
X131641292Y-110368603D01*
X131766514Y-110301671D01*
X131838097Y-110057702D01*
X131025000Y-109244605D01*
X130211903Y-110057702D01*
X130283486Y-110301671D01*
X130538996Y-110422571D01*
X130641289Y-110448212D01*
X130606426Y-110455147D01*
X130345273Y-110563320D01*
X130110241Y-110720363D01*
X129910363Y-110920241D01*
X129753320Y-111155273D01*
X129645147Y-111416426D01*
X129590000Y-111693665D01*
X126325000Y-111693665D01*
X126325000Y-109135512D01*
X129584783Y-109135512D01*
X129626213Y-109415130D01*
X129721397Y-109681292D01*
X129788329Y-109806514D01*
X130032298Y-109878097D01*
X130845395Y-109065000D01*
X130032298Y-108251903D01*
X129788329Y-108323486D01*
X129667429Y-108578996D01*
X129598700Y-108853184D01*
X129584783Y-109135512D01*
X126325000Y-109135512D01*
X126325000Y-103383665D01*
X129590000Y-103383665D01*
X129590000Y-103666335D01*
X129645147Y-103943574D01*
X129753320Y-104204727D01*
X129910363Y-104439759D01*
X130110241Y-104639637D01*
X130345273Y-104796680D01*
X130606426Y-104904853D01*
X130632301Y-104910000D01*
X130606426Y-104915147D01*
X130345273Y-105023320D01*
X130110241Y-105180363D01*
X129910363Y-105380241D01*
X129753320Y-105615273D01*
X129645147Y-105876426D01*
X129590000Y-106153665D01*
X129590000Y-106436335D01*
X129645147Y-106713574D01*
X129753320Y-106974727D01*
X129910363Y-107209759D01*
X130110241Y-107409637D01*
X130345273Y-107566680D01*
X130606426Y-107674853D01*
X130634882Y-107680513D01*
X130408708Y-107761397D01*
X130283486Y-107828329D01*
X130211903Y-108072298D01*
X131025000Y-108885395D01*
X131039143Y-108871253D01*
X131218748Y-109050858D01*
X131204605Y-109065000D01*
X132017702Y-109878097D01*
X132261671Y-109806514D01*
X132382571Y-109551004D01*
X132451300Y-109276816D01*
X132464018Y-109018821D01*
X132761199Y-109316003D01*
X132784998Y-109345002D01*
X132813996Y-109368800D01*
X132870463Y-109415141D01*
X132750363Y-109535241D01*
X132593320Y-109770273D01*
X132485147Y-110031426D01*
X132430000Y-110308665D01*
X132430000Y-110591335D01*
X132485147Y-110868574D01*
X132593320Y-111129727D01*
X132750363Y-111364759D01*
X132950241Y-111564637D01*
X133185273Y-111721680D01*
X133446426Y-111829853D01*
X133472301Y-111835000D01*
X133446426Y-111840147D01*
X133185273Y-111948320D01*
X132950241Y-112105363D01*
X132750363Y-112305241D01*
X132593320Y-112540273D01*
X132485147Y-112801426D01*
X132430000Y-113078665D01*
X132430000Y-113361335D01*
X132485147Y-113638574D01*
X132593320Y-113899727D01*
X132750363Y-114134759D01*
X132950241Y-114334637D01*
X133185273Y-114491680D01*
X133446426Y-114599853D01*
X133723665Y-114655000D01*
X134006335Y-114655000D01*
X134283574Y-114599853D01*
X134544727Y-114491680D01*
X134779759Y-114334637D01*
X134979637Y-114134759D01*
X135136680Y-113899727D01*
X135244853Y-113638574D01*
X135300000Y-113361335D01*
X135300000Y-113078665D01*
X135244853Y-112801426D01*
X135136680Y-112540273D01*
X134979637Y-112305241D01*
X134779759Y-112105363D01*
X134544727Y-111948320D01*
X134283574Y-111840147D01*
X134257699Y-111835000D01*
X134283574Y-111829853D01*
X134544727Y-111721680D01*
X134779759Y-111564637D01*
X134979637Y-111364759D01*
X135136680Y-111129727D01*
X135144367Y-111111169D01*
X136879999Y-112846801D01*
X136880000Y-116617667D01*
X136876323Y-116654999D01*
X136890997Y-116803984D01*
X136934453Y-116947245D01*
X137005025Y-117079275D01*
X137067766Y-117155724D01*
X137099999Y-117195000D01*
X137128997Y-117218798D01*
X138030000Y-118119802D01*
X138030000Y-118181939D01*
X138069774Y-118381898D01*
X138147795Y-118570256D01*
X138261063Y-118739774D01*
X138405226Y-118883937D01*
X138574744Y-118997205D01*
X138763102Y-119075226D01*
X138963061Y-119115000D01*
X139166939Y-119115000D01*
X139366898Y-119075226D01*
X139555256Y-118997205D01*
X139724774Y-118883937D01*
X139868937Y-118739774D01*
X139982205Y-118570256D01*
X140060226Y-118381898D01*
X140100000Y-118181939D01*
X140100000Y-117978061D01*
X140060226Y-117778102D01*
X139982205Y-117589744D01*
X139868937Y-117420226D01*
X139724774Y-117276063D01*
X139555256Y-117162795D01*
X139366898Y-117084774D01*
X139166939Y-117045000D01*
X139104802Y-117045000D01*
X138399999Y-116340198D01*
X138399999Y-112569321D01*
X138403675Y-112531998D01*
X138399999Y-112494675D01*
X138399999Y-112494666D01*
X138389002Y-112383013D01*
X138345545Y-112239752D01*
X138294191Y-112143676D01*
X138274973Y-112107722D01*
X138203798Y-112020996D01*
X138180000Y-111991998D01*
X138151003Y-111968201D01*
X134878599Y-108695797D01*
X134979637Y-108594759D01*
X135083043Y-108440000D01*
X135850199Y-108440000D01*
X139095744Y-111685545D01*
X139061063Y-111720226D01*
X138947795Y-111889744D01*
X138869774Y-112078102D01*
X138830000Y-112278061D01*
X138830000Y-112481939D01*
X138869774Y-112681898D01*
X138947795Y-112870256D01*
X139061063Y-113039774D01*
X139205226Y-113183937D01*
X139374744Y-113297205D01*
X139563102Y-113375226D01*
X139763061Y-113415000D01*
X139966939Y-113415000D01*
X140166898Y-113375226D01*
X140355256Y-113297205D01*
X140524774Y-113183937D01*
X140668937Y-113039774D01*
X140782205Y-112870256D01*
X140860226Y-112681898D01*
X140900000Y-112481939D01*
X140900000Y-112278061D01*
X140860226Y-112078102D01*
X140782205Y-111889744D01*
X140668937Y-111720226D01*
X140625000Y-111676289D01*
X140625000Y-111417322D01*
X140628676Y-111379999D01*
X140625000Y-111342676D01*
X140625000Y-111342667D01*
X140614003Y-111231014D01*
X140570546Y-111087753D01*
X140499974Y-110955724D01*
X140405001Y-110839999D01*
X140376004Y-110816202D01*
X136728804Y-107169003D01*
X136705001Y-107139999D01*
X136589276Y-107045026D01*
X136457247Y-106974454D01*
X136313986Y-106930997D01*
X136202333Y-106920000D01*
X136202322Y-106920000D01*
X136165000Y-106916324D01*
X136127678Y-106920000D01*
X135083043Y-106920000D01*
X134979637Y-106765241D01*
X134779759Y-106565363D01*
X134544727Y-106408320D01*
X134283574Y-106300147D01*
X134257699Y-106295000D01*
X134283574Y-106289853D01*
X134544727Y-106181680D01*
X134779759Y-106024637D01*
X134979637Y-105824759D01*
X135083043Y-105670000D01*
X141480199Y-105670000D01*
X146301200Y-110491002D01*
X146324999Y-110520001D01*
X146354002Y-110543804D01*
X147144999Y-111334801D01*
X147144999Y-111822759D01*
X147055256Y-111762795D01*
X146866898Y-111684774D01*
X146666939Y-111645000D01*
X146463061Y-111645000D01*
X146263102Y-111684774D01*
X146200000Y-111710912D01*
X146200000Y-111578061D01*
X146160226Y-111378102D01*
X146082205Y-111189744D01*
X145968937Y-111020226D01*
X145824774Y-110876063D01*
X145655256Y-110762795D01*
X145466898Y-110684774D01*
X145266939Y-110645000D01*
X145063061Y-110645000D01*
X144863102Y-110684774D01*
X144674744Y-110762795D01*
X144505226Y-110876063D01*
X144361063Y-111020226D01*
X144247795Y-111189744D01*
X144169774Y-111378102D01*
X144130000Y-111578061D01*
X144130000Y-111640198D01*
X141553998Y-114216201D01*
X141525000Y-114239999D01*
X141501202Y-114268997D01*
X141501201Y-114268998D01*
X141430026Y-114355724D01*
X141359454Y-114487754D01*
X141334343Y-114570537D01*
X141325451Y-114599853D01*
X141315998Y-114631015D01*
X141301324Y-114780000D01*
X141305001Y-114817332D01*
X141305000Y-118376289D01*
X141261063Y-118420226D01*
X141147795Y-118589744D01*
X141069774Y-118778102D01*
X141030000Y-118978061D01*
X141030000Y-119181939D01*
X141069774Y-119381898D01*
X141147795Y-119570256D01*
X141261063Y-119739774D01*
X141405226Y-119883937D01*
X141574744Y-119997205D01*
X141763102Y-120075226D01*
X141963061Y-120115000D01*
X142166939Y-120115000D01*
X142366898Y-120075226D01*
X142555256Y-119997205D01*
X142724774Y-119883937D01*
X142868937Y-119739774D01*
X142982205Y-119570256D01*
X143060226Y-119381898D01*
X143100000Y-119181939D01*
X143100000Y-118978061D01*
X143060226Y-118778102D01*
X142982205Y-118589744D01*
X142868937Y-118420226D01*
X142825000Y-118376289D01*
X142825000Y-115094801D01*
X145204802Y-112715000D01*
X145266939Y-112715000D01*
X145466898Y-112675226D01*
X145530000Y-112649088D01*
X145530000Y-112781939D01*
X145569774Y-112981898D01*
X145647795Y-113170256D01*
X145761063Y-113339774D01*
X145805000Y-113383711D01*
X145805001Y-120405197D01*
X145771408Y-120438790D01*
X145551260Y-120395000D01*
X145258740Y-120395000D01*
X144971842Y-120452068D01*
X144701589Y-120564010D01*
X144458368Y-120726525D01*
X144251525Y-120933368D01*
X144129805Y-121115534D01*
X144060178Y-120998645D01*
X143865269Y-120782412D01*
X143631920Y-120608359D01*
X143369099Y-120483175D01*
X143221890Y-120438524D01*
X142992000Y-120559845D01*
X142992000Y-121753000D01*
X143012000Y-121753000D01*
X143012000Y-122007000D01*
X142992000Y-122007000D01*
X142992000Y-123200155D01*
X143221890Y-123321476D01*
X143369099Y-123276825D01*
X143631920Y-123151641D01*
X143865269Y-122977588D01*
X144060178Y-122761355D01*
X144129805Y-122644466D01*
X144251525Y-122826632D01*
X144458368Y-123033475D01*
X144701589Y-123195990D01*
X144971842Y-123307932D01*
X145258740Y-123365000D01*
X145551260Y-123365000D01*
X145838158Y-123307932D01*
X146108411Y-123195990D01*
X146351632Y-123033475D01*
X146558475Y-122826632D01*
X146675000Y-122652240D01*
X146791525Y-122826632D01*
X146998368Y-123033475D01*
X147241589Y-123195990D01*
X147511842Y-123307932D01*
X147798740Y-123365000D01*
X148091260Y-123365000D01*
X148378158Y-123307932D01*
X148648411Y-123195990D01*
X148891632Y-123033475D01*
X149098475Y-122826632D01*
X149215000Y-122652240D01*
X149331525Y-122826632D01*
X149538368Y-123033475D01*
X149781589Y-123195990D01*
X150051842Y-123307932D01*
X150338740Y-123365000D01*
X150631260Y-123365000D01*
X150918158Y-123307932D01*
X151188411Y-123195990D01*
X151431632Y-123033475D01*
X151638475Y-122826632D01*
X151755000Y-122652240D01*
X151871525Y-122826632D01*
X152078368Y-123033475D01*
X152321589Y-123195990D01*
X152591842Y-123307932D01*
X152878740Y-123365000D01*
X153171260Y-123365000D01*
X153458158Y-123307932D01*
X153728411Y-123195990D01*
X153971632Y-123033475D01*
X154178475Y-122826632D01*
X154295000Y-122652240D01*
X154411525Y-122826632D01*
X154618368Y-123033475D01*
X154861589Y-123195990D01*
X155131842Y-123307932D01*
X155418740Y-123365000D01*
X155711260Y-123365000D01*
X155998158Y-123307932D01*
X156268411Y-123195990D01*
X156511632Y-123033475D01*
X156718475Y-122826632D01*
X156880990Y-122583411D01*
X156992932Y-122313158D01*
X157050000Y-122026260D01*
X157050000Y-121733740D01*
X156992932Y-121446842D01*
X156880990Y-121176589D01*
X156718475Y-120933368D01*
X156625000Y-120839893D01*
X156625000Y-119891229D01*
X162710000Y-119891229D01*
X162710000Y-120508771D01*
X162830476Y-121114446D01*
X163066799Y-121684979D01*
X163409886Y-122198446D01*
X163846554Y-122635114D01*
X164360021Y-122978201D01*
X164930554Y-123214524D01*
X165536229Y-123335000D01*
X166153771Y-123335000D01*
X166759446Y-123214524D01*
X167329979Y-122978201D01*
X167843446Y-122635114D01*
X168280114Y-122198446D01*
X168623201Y-121684979D01*
X168859524Y-121114446D01*
X168980000Y-120508771D01*
X168980000Y-119891229D01*
X168859524Y-119285554D01*
X168623201Y-118715021D01*
X168280114Y-118201554D01*
X167843446Y-117764886D01*
X167329979Y-117421799D01*
X166759446Y-117185476D01*
X166153771Y-117065000D01*
X165536229Y-117065000D01*
X164930554Y-117185476D01*
X164360021Y-117421799D01*
X163846554Y-117764886D01*
X163409886Y-118201554D01*
X163066799Y-118715021D01*
X162830476Y-119285554D01*
X162710000Y-119891229D01*
X156625000Y-119891229D01*
X156625000Y-118585802D01*
X156661063Y-118639774D01*
X156805226Y-118783937D01*
X156974744Y-118897205D01*
X157163102Y-118975226D01*
X157363061Y-119015000D01*
X157566939Y-119015000D01*
X157766898Y-118975226D01*
X157955256Y-118897205D01*
X158124774Y-118783937D01*
X158268937Y-118639774D01*
X158382205Y-118470256D01*
X158460226Y-118281898D01*
X158500000Y-118081939D01*
X158500000Y-117878061D01*
X158460226Y-117678102D01*
X158382205Y-117489744D01*
X158268937Y-117320226D01*
X158124774Y-117176063D01*
X157955256Y-117062795D01*
X157766898Y-116984774D01*
X157566939Y-116945000D01*
X157504801Y-116945000D01*
X157425000Y-116865199D01*
X157425000Y-114178061D01*
X158030000Y-114178061D01*
X158030000Y-114381939D01*
X158069774Y-114581898D01*
X158147795Y-114770256D01*
X158261063Y-114939774D01*
X158405226Y-115083937D01*
X158567003Y-115192033D01*
X158530000Y-115378061D01*
X158530000Y-115581939D01*
X158569774Y-115781898D01*
X158647795Y-115970256D01*
X158761063Y-116139774D01*
X158905226Y-116283937D01*
X159074744Y-116397205D01*
X159263102Y-116475226D01*
X159463061Y-116515000D01*
X159666939Y-116515000D01*
X159866898Y-116475226D01*
X160055256Y-116397205D01*
X160224774Y-116283937D01*
X160368937Y-116139774D01*
X160482205Y-115970256D01*
X160560226Y-115781898D01*
X160600000Y-115581939D01*
X160600000Y-115519801D01*
X161376004Y-114743798D01*
X161405001Y-114720001D01*
X161499974Y-114604276D01*
X161570546Y-114472247D01*
X161614003Y-114328986D01*
X161625000Y-114217333D01*
X161625000Y-114217325D01*
X161628676Y-114180000D01*
X161625000Y-114142675D01*
X161625000Y-110594801D01*
X163457703Y-108762099D01*
X163510241Y-108814637D01*
X163745273Y-108971680D01*
X164006426Y-109079853D01*
X164032301Y-109085000D01*
X164006426Y-109090147D01*
X163745273Y-109198320D01*
X163510241Y-109355363D01*
X163310363Y-109555241D01*
X163153320Y-109790273D01*
X163045147Y-110051426D01*
X162990000Y-110328665D01*
X162990000Y-110611335D01*
X163045147Y-110888574D01*
X163153320Y-111149727D01*
X163310363Y-111384759D01*
X163510241Y-111584637D01*
X163745273Y-111741680D01*
X163890725Y-111801928D01*
X163625000Y-111801928D01*
X163500518Y-111814188D01*
X163380820Y-111850498D01*
X163270506Y-111909463D01*
X163173815Y-111988815D01*
X163094463Y-112085506D01*
X163035498Y-112195820D01*
X162999188Y-112315518D01*
X162986928Y-112440000D01*
X162986928Y-114040000D01*
X162999188Y-114164482D01*
X163035498Y-114284180D01*
X163094463Y-114394494D01*
X163173815Y-114491185D01*
X163270506Y-114570537D01*
X163380820Y-114629502D01*
X163500518Y-114665812D01*
X163625000Y-114678072D01*
X165225000Y-114678072D01*
X165349482Y-114665812D01*
X165469180Y-114629502D01*
X165579494Y-114570537D01*
X165676185Y-114491185D01*
X165755537Y-114394494D01*
X165814502Y-114284180D01*
X165850812Y-114164482D01*
X165863072Y-114040000D01*
X165863072Y-112440000D01*
X165850812Y-112315518D01*
X165814502Y-112195820D01*
X165755537Y-112085506D01*
X165676185Y-111988815D01*
X165579494Y-111909463D01*
X165469180Y-111850498D01*
X165349482Y-111814188D01*
X165225000Y-111801928D01*
X164959275Y-111801928D01*
X165104727Y-111741680D01*
X165339759Y-111584637D01*
X165539637Y-111384759D01*
X165696680Y-111149727D01*
X165804853Y-110888574D01*
X165860000Y-110611335D01*
X165860000Y-110328665D01*
X165804853Y-110051426D01*
X165696680Y-109790273D01*
X165539637Y-109555241D01*
X165339759Y-109355363D01*
X165104727Y-109198320D01*
X164843574Y-109090147D01*
X164817699Y-109085000D01*
X164843574Y-109079853D01*
X165104727Y-108971680D01*
X165146654Y-108943665D01*
X165830000Y-108943665D01*
X165830000Y-109226335D01*
X165885147Y-109503574D01*
X165993320Y-109764727D01*
X166150363Y-109999759D01*
X166350241Y-110199637D01*
X166585273Y-110356680D01*
X166846426Y-110464853D01*
X166872301Y-110470000D01*
X166846426Y-110475147D01*
X166585273Y-110583320D01*
X166350241Y-110740363D01*
X166150363Y-110940241D01*
X165993320Y-111175273D01*
X165885147Y-111436426D01*
X165830000Y-111713665D01*
X165830000Y-111996335D01*
X165885147Y-112273574D01*
X165993320Y-112534727D01*
X166150363Y-112769759D01*
X166350241Y-112969637D01*
X166585273Y-113126680D01*
X166846426Y-113234853D01*
X167123665Y-113290000D01*
X167406335Y-113290000D01*
X167683574Y-113234853D01*
X167944727Y-113126680D01*
X168179759Y-112969637D01*
X168379637Y-112769759D01*
X168536680Y-112534727D01*
X168644853Y-112273574D01*
X168700000Y-111996335D01*
X168700000Y-111713665D01*
X168644853Y-111436426D01*
X168536680Y-111175273D01*
X168379637Y-110940241D01*
X168179759Y-110740363D01*
X167944727Y-110583320D01*
X167683574Y-110475147D01*
X167657699Y-110470000D01*
X167683574Y-110464853D01*
X167944727Y-110356680D01*
X168179759Y-110199637D01*
X168379637Y-109999759D01*
X168536680Y-109764727D01*
X168644853Y-109503574D01*
X168700000Y-109226335D01*
X168700000Y-108943665D01*
X168644853Y-108666426D01*
X168536680Y-108405273D01*
X168379637Y-108170241D01*
X168179759Y-107970363D01*
X167944727Y-107813320D01*
X167683574Y-107705147D01*
X167655118Y-107699487D01*
X167881292Y-107618603D01*
X168006514Y-107551671D01*
X168078097Y-107307702D01*
X167265000Y-106494605D01*
X166451903Y-107307702D01*
X166523486Y-107551671D01*
X166778996Y-107672571D01*
X166881289Y-107698212D01*
X166846426Y-107705147D01*
X166585273Y-107813320D01*
X166350241Y-107970363D01*
X166150363Y-108170241D01*
X165993320Y-108405273D01*
X165885147Y-108666426D01*
X165830000Y-108943665D01*
X165146654Y-108943665D01*
X165339759Y-108814637D01*
X165539637Y-108614759D01*
X165696680Y-108379727D01*
X165804853Y-108118574D01*
X165860000Y-107841335D01*
X165860000Y-107558665D01*
X165804853Y-107281426D01*
X165696680Y-107020273D01*
X165539637Y-106785241D01*
X165339759Y-106585363D01*
X165104727Y-106428320D01*
X165001380Y-106385512D01*
X165824783Y-106385512D01*
X165866213Y-106665130D01*
X165961397Y-106931292D01*
X166028329Y-107056514D01*
X166272298Y-107128097D01*
X167085395Y-106315000D01*
X167444605Y-106315000D01*
X168257702Y-107128097D01*
X168501671Y-107056514D01*
X168622571Y-106801004D01*
X168691300Y-106526816D01*
X168705217Y-106244488D01*
X168663787Y-105964870D01*
X168568603Y-105698708D01*
X168501671Y-105573486D01*
X168257702Y-105501903D01*
X167444605Y-106315000D01*
X167085395Y-106315000D01*
X166272298Y-105501903D01*
X166028329Y-105573486D01*
X165907429Y-105828996D01*
X165838700Y-106103184D01*
X165824783Y-106385512D01*
X165001380Y-106385512D01*
X164843574Y-106320147D01*
X164817699Y-106315000D01*
X164843574Y-106309853D01*
X165104727Y-106201680D01*
X165339759Y-106044637D01*
X165539637Y-105844759D01*
X165696680Y-105609727D01*
X165804853Y-105348574D01*
X165860000Y-105071335D01*
X165860000Y-104788665D01*
X165804853Y-104511426D01*
X165696680Y-104250273D01*
X165539637Y-104015241D01*
X165339759Y-103815363D01*
X165104727Y-103658320D01*
X164843574Y-103550147D01*
X164817699Y-103545000D01*
X164843574Y-103539853D01*
X165104727Y-103431680D01*
X165146654Y-103403665D01*
X165830000Y-103403665D01*
X165830000Y-103686335D01*
X165885147Y-103963574D01*
X165993320Y-104224727D01*
X166150363Y-104459759D01*
X166350241Y-104659637D01*
X166585273Y-104816680D01*
X166846426Y-104924853D01*
X166874882Y-104930513D01*
X166648708Y-105011397D01*
X166523486Y-105078329D01*
X166451903Y-105322298D01*
X167265000Y-106135395D01*
X168078097Y-105322298D01*
X168006514Y-105078329D01*
X167751004Y-104957429D01*
X167648711Y-104931788D01*
X167683574Y-104924853D01*
X167944727Y-104816680D01*
X168179759Y-104659637D01*
X168379637Y-104459759D01*
X168536680Y-104224727D01*
X168644853Y-103963574D01*
X168700000Y-103686335D01*
X168700000Y-103403665D01*
X168644853Y-103126426D01*
X168536680Y-102865273D01*
X168379637Y-102630241D01*
X168179759Y-102430363D01*
X167944727Y-102273320D01*
X167683574Y-102165147D01*
X167406335Y-102110000D01*
X167123665Y-102110000D01*
X166846426Y-102165147D01*
X166585273Y-102273320D01*
X166350241Y-102430363D01*
X166150363Y-102630241D01*
X165993320Y-102865273D01*
X165885147Y-103126426D01*
X165830000Y-103403665D01*
X165146654Y-103403665D01*
X165339759Y-103274637D01*
X165539637Y-103074759D01*
X165696680Y-102839727D01*
X165804853Y-102578574D01*
X165860000Y-102301335D01*
X165860000Y-102018665D01*
X165804853Y-101741426D01*
X165696680Y-101480273D01*
X165539637Y-101245241D01*
X165339759Y-101045363D01*
X165104727Y-100888320D01*
X164843574Y-100780147D01*
X164566335Y-100725000D01*
X164283665Y-100725000D01*
X164006426Y-100780147D01*
X163745273Y-100888320D01*
X163510241Y-101045363D01*
X163310363Y-101245241D01*
X163153320Y-101480273D01*
X163045147Y-101741426D01*
X162990000Y-102018665D01*
X162990000Y-102301335D01*
X163045147Y-102578574D01*
X163153320Y-102839727D01*
X163310363Y-103074759D01*
X163510241Y-103274637D01*
X163745273Y-103431680D01*
X164006426Y-103539853D01*
X164032301Y-103545000D01*
X164006426Y-103550147D01*
X163745273Y-103658320D01*
X163510241Y-103815363D01*
X163310363Y-104015241D01*
X163153320Y-104250273D01*
X163045147Y-104511426D01*
X162990000Y-104788665D01*
X162990000Y-105071335D01*
X163026312Y-105253886D01*
X160263997Y-108016201D01*
X160263998Y-108016201D01*
X159554003Y-108726196D01*
X159524999Y-108749999D01*
X159471952Y-108814637D01*
X159430026Y-108865724D01*
X159384081Y-108951680D01*
X159359454Y-108997754D01*
X159315997Y-109141015D01*
X159305000Y-109252668D01*
X159305000Y-109252678D01*
X159301324Y-109290000D01*
X159305000Y-109327323D01*
X159305001Y-112965197D01*
X159025199Y-113245000D01*
X158963061Y-113245000D01*
X158763102Y-113284774D01*
X158574744Y-113362795D01*
X158405226Y-113476063D01*
X158261063Y-113620226D01*
X158147795Y-113789744D01*
X158069774Y-113978102D01*
X158030000Y-114178061D01*
X157425000Y-114178061D01*
X157425000Y-107217325D01*
X157428676Y-107180000D01*
X157425000Y-107142675D01*
X157425000Y-107142667D01*
X157414003Y-107031014D01*
X157370546Y-106887753D01*
X157299974Y-106755724D01*
X157205001Y-106639999D01*
X157176004Y-106616202D01*
X154425000Y-103865199D01*
X154425000Y-103083711D01*
X154468937Y-103039774D01*
X154582205Y-102870256D01*
X154660226Y-102681898D01*
X154700000Y-102481939D01*
X154700000Y-102278061D01*
X154660226Y-102078102D01*
X154582205Y-101889744D01*
X154468937Y-101720226D01*
X154324774Y-101576063D01*
X154155256Y-101462795D01*
X153966898Y-101384774D01*
X153766939Y-101345000D01*
X153563061Y-101345000D01*
X153363102Y-101384774D01*
X153174744Y-101462795D01*
X153005226Y-101576063D01*
X152861063Y-101720226D01*
X152747795Y-101889744D01*
X152669774Y-102078102D01*
X152630000Y-102278061D01*
X152630000Y-102481939D01*
X152669774Y-102681898D01*
X152747795Y-102870256D01*
X152861063Y-103039774D01*
X152905000Y-103083711D01*
X152905001Y-104142668D01*
X152901324Y-104180000D01*
X152905001Y-104217333D01*
X152915998Y-104328986D01*
X152921220Y-104346201D01*
X152959454Y-104472246D01*
X153030026Y-104604276D01*
X153101201Y-104691002D01*
X153125000Y-104720001D01*
X153153998Y-104743799D01*
X155373695Y-106963496D01*
X155205226Y-107076063D01*
X155061063Y-107220226D01*
X154947795Y-107389744D01*
X154869774Y-107578102D01*
X154830000Y-107778061D01*
X154830000Y-107981939D01*
X154869774Y-108181898D01*
X154947795Y-108370256D01*
X155061063Y-108539774D01*
X155105000Y-108583711D01*
X155105001Y-120463186D01*
X154861589Y-120564010D01*
X154618368Y-120726525D01*
X154411525Y-120933368D01*
X154295000Y-121107760D01*
X154178475Y-120933368D01*
X153971632Y-120726525D01*
X153728411Y-120564010D01*
X153458158Y-120452068D01*
X153171260Y-120395000D01*
X152878740Y-120395000D01*
X152688081Y-120432925D01*
X152425000Y-120169843D01*
X152425000Y-112283711D01*
X152468937Y-112239774D01*
X152582205Y-112070256D01*
X152660226Y-111881898D01*
X152700000Y-111681939D01*
X152700000Y-111478061D01*
X152660226Y-111278102D01*
X152582205Y-111089744D01*
X152468937Y-110920226D01*
X152324774Y-110776063D01*
X152155256Y-110662795D01*
X151966898Y-110584774D01*
X151766939Y-110545000D01*
X151563061Y-110545000D01*
X151363102Y-110584774D01*
X151174744Y-110662795D01*
X151005226Y-110776063D01*
X150861063Y-110920226D01*
X150747795Y-111089744D01*
X150736478Y-111117066D01*
X150655256Y-111062795D01*
X150466898Y-110984774D01*
X150266939Y-110945000D01*
X150063061Y-110945000D01*
X149863102Y-110984774D01*
X149825000Y-111000556D01*
X149825000Y-103817322D01*
X149828676Y-103779999D01*
X149825000Y-103742676D01*
X149825000Y-103742667D01*
X149814003Y-103631014D01*
X149770546Y-103487753D01*
X149699974Y-103355724D01*
X149605001Y-103239999D01*
X149576004Y-103216202D01*
X148900000Y-102540199D01*
X148900000Y-102478061D01*
X148860226Y-102278102D01*
X148782205Y-102089744D01*
X148668937Y-101920226D01*
X148524774Y-101776063D01*
X148355256Y-101662795D01*
X148166898Y-101584774D01*
X147966939Y-101545000D01*
X147763061Y-101545000D01*
X147563102Y-101584774D01*
X147374744Y-101662795D01*
X147205226Y-101776063D01*
X147061063Y-101920226D01*
X146947795Y-102089744D01*
X146869774Y-102278102D01*
X146830000Y-102478061D01*
X146830000Y-102681939D01*
X146869774Y-102881898D01*
X146947795Y-103070256D01*
X147061063Y-103239774D01*
X147205226Y-103383937D01*
X147374744Y-103497205D01*
X147563102Y-103575226D01*
X147763061Y-103615000D01*
X147825199Y-103615000D01*
X148305000Y-104094802D01*
X148305001Y-110345199D01*
X147428804Y-109469002D01*
X147405001Y-109439999D01*
X147376003Y-109416201D01*
X142358804Y-104399003D01*
X142335001Y-104369999D01*
X142219276Y-104275026D01*
X142087247Y-104204454D01*
X141943986Y-104160997D01*
X141832333Y-104150000D01*
X141832322Y-104150000D01*
X141795000Y-104146324D01*
X141757678Y-104150000D01*
X135083043Y-104150000D01*
X134979637Y-103995241D01*
X134779759Y-103795363D01*
X134544727Y-103638320D01*
X134399275Y-103578072D01*
X134665000Y-103578072D01*
X134789482Y-103565812D01*
X134909180Y-103529502D01*
X135019494Y-103470537D01*
X135116185Y-103391185D01*
X135195537Y-103294494D01*
X135254502Y-103184180D01*
X135290812Y-103064482D01*
X135303072Y-102940000D01*
X135303072Y-101340000D01*
X135290812Y-101215518D01*
X135254502Y-101095820D01*
X135195537Y-100985506D01*
X135116185Y-100888815D01*
X135019494Y-100809463D01*
X134909180Y-100750498D01*
X134789482Y-100714188D01*
X134665000Y-100701928D01*
X133065000Y-100701928D01*
X132940518Y-100714188D01*
X132820820Y-100750498D01*
X132710506Y-100809463D01*
X132613815Y-100888815D01*
X132534463Y-100985506D01*
X132475498Y-101095820D01*
X132439188Y-101215518D01*
X132426928Y-101340000D01*
X132426928Y-102503271D01*
X132229001Y-102701197D01*
X132210537Y-102716351D01*
X132139637Y-102610241D01*
X131939759Y-102410363D01*
X131704727Y-102253320D01*
X131443574Y-102145147D01*
X131166335Y-102090000D01*
X130883665Y-102090000D01*
X130606426Y-102145147D01*
X130345273Y-102253320D01*
X130110241Y-102410363D01*
X129910363Y-102610241D01*
X129753320Y-102845273D01*
X129645147Y-103106426D01*
X129590000Y-103383665D01*
X126325000Y-103383665D01*
X126325000Y-94871229D01*
X129310000Y-94871229D01*
X129310000Y-95488771D01*
X129430476Y-96094446D01*
X129666799Y-96664979D01*
X130009886Y-97178446D01*
X130446554Y-97615114D01*
X130960021Y-97958201D01*
X131530554Y-98194524D01*
X132136229Y-98315000D01*
X132753771Y-98315000D01*
X133359446Y-98194524D01*
X133929979Y-97958201D01*
X134443446Y-97615114D01*
X134880114Y-97178446D01*
X135223201Y-96664979D01*
X135459524Y-96094446D01*
X135483799Y-95972406D01*
X146427489Y-95972406D01*
X146465423Y-96192740D01*
X146545613Y-96401440D01*
X146573412Y-96453450D01*
X146786834Y-96488561D01*
X147385395Y-95890000D01*
X146786834Y-95291439D01*
X146573412Y-95326550D01*
X146482542Y-95530826D01*
X146433269Y-95748905D01*
X146427489Y-95972406D01*
X135483799Y-95972406D01*
X135580000Y-95488771D01*
X135580000Y-95111834D01*
X146966439Y-95111834D01*
X147565000Y-95710395D01*
X147579143Y-95696253D01*
X147758748Y-95875858D01*
X147744605Y-95890000D01*
X147758748Y-95904143D01*
X147579143Y-96083748D01*
X147565000Y-96069605D01*
X146966439Y-96668166D01*
X147001550Y-96881588D01*
X147205826Y-96972458D01*
X147423905Y-97021731D01*
X147647406Y-97027511D01*
X147867740Y-96989577D01*
X148076440Y-96909387D01*
X148128450Y-96881588D01*
X148163561Y-96668169D01*
X148281211Y-96785819D01*
X148368449Y-96698581D01*
X148441480Y-96771612D01*
X148627376Y-96895824D01*
X148833933Y-96981383D01*
X149053212Y-97025000D01*
X149276788Y-97025000D01*
X149496067Y-96981383D01*
X149702624Y-96895824D01*
X149888520Y-96771612D01*
X149965000Y-96695132D01*
X150041480Y-96771612D01*
X150227376Y-96895824D01*
X150433933Y-96981383D01*
X150653212Y-97025000D01*
X150876788Y-97025000D01*
X151096067Y-96981383D01*
X151302624Y-96895824D01*
X151309765Y-96891052D01*
X151304774Y-96903102D01*
X151265000Y-97103061D01*
X151265000Y-97306939D01*
X151304774Y-97506898D01*
X151382795Y-97695256D01*
X151496063Y-97864774D01*
X151640226Y-98008937D01*
X151809744Y-98122205D01*
X151998102Y-98200226D01*
X152002351Y-98201071D01*
X150169952Y-100033470D01*
X150136184Y-100061183D01*
X150108471Y-100094951D01*
X150108468Y-100094954D01*
X150025590Y-100195941D01*
X149943411Y-100349687D01*
X149892805Y-100516510D01*
X149880000Y-100646523D01*
X149880000Y-100646531D01*
X149875719Y-100690000D01*
X149880000Y-100733469D01*
X149880000Y-101233476D01*
X149880001Y-101233486D01*
X149880000Y-102541545D01*
X149847795Y-102589744D01*
X149769774Y-102778102D01*
X149730000Y-102978061D01*
X149730000Y-103181939D01*
X149769774Y-103381898D01*
X149847795Y-103570256D01*
X149961063Y-103739774D01*
X150105226Y-103883937D01*
X150274744Y-103997205D01*
X150463102Y-104075226D01*
X150663061Y-104115000D01*
X150866939Y-104115000D01*
X151066898Y-104075226D01*
X151255256Y-103997205D01*
X151424774Y-103883937D01*
X151568937Y-103739774D01*
X151682205Y-103570256D01*
X151760226Y-103381898D01*
X151800000Y-103181939D01*
X151800000Y-102978061D01*
X151760226Y-102778102D01*
X151682205Y-102589744D01*
X151650000Y-102541546D01*
X151650000Y-101056578D01*
X157815349Y-94891229D01*
X162710000Y-94891229D01*
X162710000Y-95508771D01*
X162830476Y-96114446D01*
X163066799Y-96684979D01*
X163409886Y-97198446D01*
X163846554Y-97635114D01*
X164360021Y-97978201D01*
X164930554Y-98214524D01*
X165536229Y-98335000D01*
X166153771Y-98335000D01*
X166759446Y-98214524D01*
X167329979Y-97978201D01*
X167843446Y-97635114D01*
X168280114Y-97198446D01*
X168623201Y-96684979D01*
X168859524Y-96114446D01*
X168980000Y-95508771D01*
X168980000Y-94891229D01*
X168859524Y-94285554D01*
X168623201Y-93715021D01*
X168280114Y-93201554D01*
X167843446Y-92764886D01*
X167329979Y-92421799D01*
X166759446Y-92185476D01*
X166153771Y-92065000D01*
X165536229Y-92065000D01*
X164930554Y-92185476D01*
X164360021Y-92421799D01*
X163846554Y-92764886D01*
X163409886Y-93201554D01*
X163066799Y-93715021D01*
X162830476Y-94285554D01*
X162710000Y-94891229D01*
X157815349Y-94891229D01*
X158010044Y-94696535D01*
X158066898Y-94685226D01*
X158255256Y-94607205D01*
X158424774Y-94493937D01*
X158568937Y-94349774D01*
X158682205Y-94180256D01*
X158760226Y-93991898D01*
X158800000Y-93791939D01*
X158800000Y-93588061D01*
X158760226Y-93388102D01*
X158682205Y-93199744D01*
X158568937Y-93030226D01*
X158424774Y-92886063D01*
X158255256Y-92772795D01*
X158066898Y-92694774D01*
X157866939Y-92655000D01*
X157663061Y-92655000D01*
X157463102Y-92694774D01*
X157274744Y-92772795D01*
X157105226Y-92886063D01*
X156961063Y-93030226D01*
X156847795Y-93199744D01*
X156769774Y-93388102D01*
X156758465Y-93444956D01*
X153296071Y-96907350D01*
X153295226Y-96903102D01*
X153217205Y-96714744D01*
X153103937Y-96545226D01*
X153060000Y-96501289D01*
X153060000Y-95987322D01*
X153063676Y-95949999D01*
X153060000Y-95912676D01*
X153060000Y-95912667D01*
X153049003Y-95801014D01*
X153005546Y-95657753D01*
X152952725Y-95558933D01*
X152934974Y-95525723D01*
X152863799Y-95438997D01*
X152840001Y-95409999D01*
X152811004Y-95386202D01*
X151603804Y-94179003D01*
X151580001Y-94149999D01*
X151464276Y-94055026D01*
X151332247Y-93984454D01*
X151188986Y-93940997D01*
X151077333Y-93930000D01*
X151077322Y-93930000D01*
X151040000Y-93926324D01*
X151002678Y-93930000D01*
X150810132Y-93930000D01*
X150688520Y-93808388D01*
X150502624Y-93684176D01*
X150296067Y-93598617D01*
X150076788Y-93555000D01*
X149853212Y-93555000D01*
X149633933Y-93598617D01*
X149427376Y-93684176D01*
X149241480Y-93808388D01*
X149165000Y-93884868D01*
X149088520Y-93808388D01*
X148902624Y-93684176D01*
X148696067Y-93598617D01*
X148476788Y-93555000D01*
X148253212Y-93555000D01*
X148033933Y-93598617D01*
X147827376Y-93684176D01*
X147641480Y-93808388D01*
X147483388Y-93966480D01*
X147359176Y-94152376D01*
X147273617Y-94358933D01*
X147230000Y-94578212D01*
X147230000Y-94801788D01*
X147230190Y-94802745D01*
X147053560Y-94870613D01*
X147001550Y-94898412D01*
X146966439Y-95111834D01*
X135580000Y-95111834D01*
X135580000Y-94871229D01*
X135459524Y-94265554D01*
X135223201Y-93695021D01*
X134880114Y-93181554D01*
X134443446Y-92744886D01*
X133929979Y-92401799D01*
X133359446Y-92165476D01*
X132753771Y-92045000D01*
X132136229Y-92045000D01*
X131530554Y-92165476D01*
X130960021Y-92401799D01*
X130446554Y-92744886D01*
X130009886Y-93181554D01*
X129666799Y-93695021D01*
X129430476Y-94265554D01*
X129310000Y-94871229D01*
X126325000Y-94871229D01*
X126325000Y-90367000D01*
X143880000Y-90367000D01*
X143880000Y-90717000D01*
X143934271Y-91014023D01*
X144045446Y-91294751D01*
X144209252Y-91548396D01*
X144419394Y-91765210D01*
X144667796Y-91936862D01*
X144944913Y-92056755D01*
X145050260Y-92081036D01*
X145288000Y-91960378D01*
X145288000Y-90367000D01*
X145542000Y-90367000D01*
X145542000Y-91960378D01*
X145779740Y-92081036D01*
X145885087Y-92056755D01*
X146162204Y-91936862D01*
X146410606Y-91765210D01*
X146620748Y-91548396D01*
X146784554Y-91294751D01*
X146895729Y-91014023D01*
X146950000Y-90717000D01*
X146950000Y-90367000D01*
X151380000Y-90367000D01*
X151380000Y-90717000D01*
X151434271Y-91014023D01*
X151545446Y-91294751D01*
X151709252Y-91548396D01*
X151919394Y-91765210D01*
X152167796Y-91936862D01*
X152444913Y-92056755D01*
X152550260Y-92081036D01*
X152788000Y-91960378D01*
X152788000Y-90367000D01*
X153042000Y-90367000D01*
X153042000Y-91960378D01*
X153279740Y-92081036D01*
X153385087Y-92056755D01*
X153662204Y-91936862D01*
X153910606Y-91765210D01*
X154120748Y-91548396D01*
X154284554Y-91294751D01*
X154395729Y-91014023D01*
X154450000Y-90717000D01*
X154450000Y-90367000D01*
X153042000Y-90367000D01*
X152788000Y-90367000D01*
X151380000Y-90367000D01*
X146950000Y-90367000D01*
X145542000Y-90367000D01*
X145288000Y-90367000D01*
X143880000Y-90367000D01*
X126325000Y-90367000D01*
X126325000Y-88974649D01*
X144187589Y-88965147D01*
X144045446Y-89185249D01*
X143934271Y-89465977D01*
X143880000Y-89763000D01*
X143880000Y-90113000D01*
X145288000Y-90113000D01*
X145288000Y-90093000D01*
X145542000Y-90093000D01*
X145542000Y-90113000D01*
X146950000Y-90113000D01*
X146950000Y-89763000D01*
X146895729Y-89465977D01*
X146784554Y-89185249D01*
X146641568Y-88963842D01*
X151690167Y-88961156D01*
X151545446Y-89185249D01*
X151434271Y-89465977D01*
X151380000Y-89763000D01*
X151380000Y-90113000D01*
X152788000Y-90113000D01*
X152788000Y-90093000D01*
X153042000Y-90093000D01*
X153042000Y-90113000D01*
X154450000Y-90113000D01*
X154450000Y-89763000D01*
X154395729Y-89465977D01*
X154284554Y-89185249D01*
X154138992Y-88959854D01*
X172005001Y-88950351D01*
X172005000Y-124630000D01*
%TD*%
M02*
