%TF.GenerationSoftware,KiCad,Pcbnew,(5.1.6)-1*%
%TF.CreationDate,2021-06-08T09:34:39+02:00*%
%TF.ProjectId,Joyadapter_SMD,4a6f7961-6461-4707-9465-725f534d442e,rev?*%
%TF.SameCoordinates,Original*%
%TF.FileFunction,Legend,Bot*%
%TF.FilePolarity,Positive*%
%FSLAX46Y46*%
G04 Gerber Fmt 4.6, Leading zero omitted, Abs format (unit mm)*
G04 Created by KiCad (PCBNEW (5.1.6)-1) date 2021-06-08 09:34:39*
%MOMM*%
%LPD*%
G01*
G04 APERTURE LIST*
%ADD10C,0.110000*%
%ADD11C,0.120000*%
%ADD12C,0.010000*%
%ADD13C,0.150000*%
G04 APERTURE END LIST*
D10*
X128608095Y-124412785D02*
X127808095Y-124112785D01*
X128608095Y-123812785D01*
X127808095Y-123041357D02*
X127808095Y-123555642D01*
X127808095Y-123298500D02*
X128608095Y-123298500D01*
X128493809Y-123384214D01*
X128417619Y-123469928D01*
X128379523Y-123555642D01*
X127884285Y-122655642D02*
X127846190Y-122612785D01*
X127808095Y-122655642D01*
X127846190Y-122698500D01*
X127884285Y-122655642D01*
X127808095Y-122655642D01*
X128608095Y-122055642D02*
X128608095Y-121969928D01*
X128570000Y-121884214D01*
X128531904Y-121841357D01*
X128455714Y-121798500D01*
X128303333Y-121755642D01*
X128112857Y-121755642D01*
X127960476Y-121798500D01*
X127884285Y-121841357D01*
X127846190Y-121884214D01*
X127808095Y-121969928D01*
X127808095Y-122055642D01*
X127846190Y-122141357D01*
X127884285Y-122184214D01*
X127960476Y-122227071D01*
X128112857Y-122269928D01*
X128303333Y-122269928D01*
X128455714Y-122227071D01*
X128531904Y-122184214D01*
X128570000Y-122141357D01*
X128608095Y-122055642D01*
X128112857Y-120684214D02*
X128112857Y-119998500D01*
X128608095Y-118712785D02*
X128608095Y-118627071D01*
X128570000Y-118541357D01*
X128531904Y-118498500D01*
X128455714Y-118455642D01*
X128303333Y-118412785D01*
X128112857Y-118412785D01*
X127960476Y-118455642D01*
X127884285Y-118498500D01*
X127846190Y-118541357D01*
X127808095Y-118627071D01*
X127808095Y-118712785D01*
X127846190Y-118798500D01*
X127884285Y-118841357D01*
X127960476Y-118884214D01*
X128112857Y-118927071D01*
X128303333Y-118927071D01*
X128455714Y-118884214D01*
X128531904Y-118841357D01*
X128570000Y-118798500D01*
X128608095Y-118712785D01*
X128608095Y-117641357D02*
X128608095Y-117812785D01*
X128570000Y-117898500D01*
X128531904Y-117941357D01*
X128417619Y-118027071D01*
X128265238Y-118069928D01*
X127960476Y-118069928D01*
X127884285Y-118027071D01*
X127846190Y-117984214D01*
X127808095Y-117898500D01*
X127808095Y-117727071D01*
X127846190Y-117641357D01*
X127884285Y-117598500D01*
X127960476Y-117555642D01*
X128150952Y-117555642D01*
X128227142Y-117598500D01*
X128265238Y-117641357D01*
X128303333Y-117727071D01*
X128303333Y-117898500D01*
X128265238Y-117984214D01*
X128227142Y-118027071D01*
X128150952Y-118069928D01*
X128646190Y-116527071D02*
X127617619Y-117298500D01*
X128531904Y-116269928D02*
X128570000Y-116227071D01*
X128608095Y-116141357D01*
X128608095Y-115927071D01*
X128570000Y-115841357D01*
X128531904Y-115798500D01*
X128455714Y-115755642D01*
X128379523Y-115755642D01*
X128265238Y-115798500D01*
X127808095Y-116312785D01*
X127808095Y-115755642D01*
X127808095Y-114898500D02*
X127808095Y-115412785D01*
X127808095Y-115155642D02*
X128608095Y-115155642D01*
X128493809Y-115241357D01*
X128417619Y-115327071D01*
X128379523Y-115412785D01*
X128112857Y-113827071D02*
X128112857Y-113141357D01*
X127808095Y-111641357D02*
X128608095Y-111641357D01*
X127846190Y-111641357D02*
X127808095Y-111727071D01*
X127808095Y-111898500D01*
X127846190Y-111984214D01*
X127884285Y-112027071D01*
X127960476Y-112069928D01*
X128189047Y-112069928D01*
X128265238Y-112027071D01*
X128303333Y-111984214D01*
X128341428Y-111898500D01*
X128341428Y-111727071D01*
X128303333Y-111641357D01*
X127846190Y-110869928D02*
X127808095Y-110955642D01*
X127808095Y-111127071D01*
X127846190Y-111212785D01*
X127922380Y-111255642D01*
X128227142Y-111255642D01*
X128303333Y-111212785D01*
X128341428Y-111127071D01*
X128341428Y-110955642D01*
X128303333Y-110869928D01*
X128227142Y-110827071D01*
X128150952Y-110827071D01*
X128074761Y-111255642D01*
X127808095Y-110441357D02*
X128341428Y-110441357D01*
X128189047Y-110441357D02*
X128265238Y-110398500D01*
X128303333Y-110355642D01*
X128341428Y-110269928D01*
X128341428Y-110184214D01*
X128112857Y-109884214D02*
X128112857Y-109198500D01*
X128341428Y-108769928D02*
X127541428Y-108769928D01*
X128303333Y-108769928D02*
X128341428Y-108684214D01*
X128341428Y-108512785D01*
X128303333Y-108427071D01*
X128265238Y-108384214D01*
X128189047Y-108341357D01*
X127960476Y-108341357D01*
X127884285Y-108384214D01*
X127846190Y-108427071D01*
X127808095Y-108512785D01*
X127808095Y-108684214D01*
X127846190Y-108769928D01*
X128341428Y-108041357D02*
X127808095Y-107869928D01*
X128189047Y-107698500D01*
X127808095Y-107527071D01*
X128341428Y-107355642D01*
X126498095Y-124284214D02*
X127298095Y-124284214D01*
X126498095Y-123898500D02*
X126917142Y-123898500D01*
X126993333Y-123941357D01*
X127031428Y-124027071D01*
X127031428Y-124155642D01*
X126993333Y-124241357D01*
X126955238Y-124284214D01*
X127031428Y-123598500D02*
X127031428Y-123255642D01*
X127298095Y-123469928D02*
X126612380Y-123469928D01*
X126536190Y-123427071D01*
X126498095Y-123341357D01*
X126498095Y-123255642D01*
X127031428Y-123084214D02*
X127031428Y-122741357D01*
X127298095Y-122955642D02*
X126612380Y-122955642D01*
X126536190Y-122912785D01*
X126498095Y-122827071D01*
X126498095Y-122741357D01*
X127031428Y-122441357D02*
X126231428Y-122441357D01*
X126993333Y-122441357D02*
X127031428Y-122355642D01*
X127031428Y-122184214D01*
X126993333Y-122098500D01*
X126955238Y-122055642D01*
X126879047Y-122012785D01*
X126650476Y-122012785D01*
X126574285Y-122055642D01*
X126536190Y-122098500D01*
X126498095Y-122184214D01*
X126498095Y-122355642D01*
X126536190Y-122441357D01*
X126536190Y-121669928D02*
X126498095Y-121584214D01*
X126498095Y-121412785D01*
X126536190Y-121327071D01*
X126612380Y-121284214D01*
X126650476Y-121284214D01*
X126726666Y-121327071D01*
X126764761Y-121412785D01*
X126764761Y-121541357D01*
X126802857Y-121627071D01*
X126879047Y-121669928D01*
X126917142Y-121669928D01*
X126993333Y-121627071D01*
X127031428Y-121541357D01*
X127031428Y-121412785D01*
X126993333Y-121327071D01*
X126574285Y-120898500D02*
X126536190Y-120855642D01*
X126498095Y-120898500D01*
X126536190Y-120941357D01*
X126574285Y-120898500D01*
X126498095Y-120898500D01*
X126993333Y-120898500D02*
X126955238Y-120855642D01*
X126917142Y-120898500D01*
X126955238Y-120941357D01*
X126993333Y-120898500D01*
X126917142Y-120898500D01*
X127336190Y-119827071D02*
X126307619Y-120598500D01*
X127336190Y-118884214D02*
X126307619Y-119655642D01*
X127031428Y-118198500D02*
X126383809Y-118198500D01*
X126307619Y-118241357D01*
X126269523Y-118284214D01*
X126231428Y-118369928D01*
X126231428Y-118498500D01*
X126269523Y-118584214D01*
X126536190Y-118198500D02*
X126498095Y-118284214D01*
X126498095Y-118455642D01*
X126536190Y-118541357D01*
X126574285Y-118584214D01*
X126650476Y-118627071D01*
X126879047Y-118627071D01*
X126955238Y-118584214D01*
X126993333Y-118541357D01*
X127031428Y-118455642D01*
X127031428Y-118284214D01*
X126993333Y-118198500D01*
X126498095Y-117769928D02*
X127031428Y-117769928D01*
X127298095Y-117769928D02*
X127260000Y-117812785D01*
X127221904Y-117769928D01*
X127260000Y-117727071D01*
X127298095Y-117769928D01*
X127221904Y-117769928D01*
X127031428Y-117469928D02*
X127031428Y-117127071D01*
X127298095Y-117341357D02*
X126612380Y-117341357D01*
X126536190Y-117298500D01*
X126498095Y-117212785D01*
X126498095Y-117127071D01*
X126498095Y-116827071D02*
X127298095Y-116827071D01*
X126498095Y-116441357D02*
X126917142Y-116441357D01*
X126993333Y-116484214D01*
X127031428Y-116569928D01*
X127031428Y-116698500D01*
X126993333Y-116784214D01*
X126955238Y-116827071D01*
X127031428Y-115627071D02*
X126498095Y-115627071D01*
X127031428Y-116012785D02*
X126612380Y-116012785D01*
X126536190Y-115969928D01*
X126498095Y-115884214D01*
X126498095Y-115755642D01*
X126536190Y-115669928D01*
X126574285Y-115627071D01*
X126498095Y-115198500D02*
X127298095Y-115198500D01*
X126993333Y-115198500D02*
X127031428Y-115112785D01*
X127031428Y-114941357D01*
X126993333Y-114855642D01*
X126955238Y-114812785D01*
X126879047Y-114769928D01*
X126650476Y-114769928D01*
X126574285Y-114812785D01*
X126536190Y-114855642D01*
X126498095Y-114941357D01*
X126498095Y-115112785D01*
X126536190Y-115198500D01*
X126574285Y-114384214D02*
X126536190Y-114341357D01*
X126498095Y-114384214D01*
X126536190Y-114427071D01*
X126574285Y-114384214D01*
X126498095Y-114384214D01*
X126536190Y-113569928D02*
X126498095Y-113655642D01*
X126498095Y-113827071D01*
X126536190Y-113912785D01*
X126574285Y-113955642D01*
X126650476Y-113998500D01*
X126879047Y-113998500D01*
X126955238Y-113955642D01*
X126993333Y-113912785D01*
X127031428Y-113827071D01*
X127031428Y-113655642D01*
X126993333Y-113569928D01*
X126498095Y-113055642D02*
X126536190Y-113141357D01*
X126574285Y-113184214D01*
X126650476Y-113227071D01*
X126879047Y-113227071D01*
X126955238Y-113184214D01*
X126993333Y-113141357D01*
X127031428Y-113055642D01*
X127031428Y-112927071D01*
X126993333Y-112841357D01*
X126955238Y-112798500D01*
X126879047Y-112755642D01*
X126650476Y-112755642D01*
X126574285Y-112798500D01*
X126536190Y-112841357D01*
X126498095Y-112927071D01*
X126498095Y-113055642D01*
X126498095Y-112369928D02*
X127031428Y-112369928D01*
X126955238Y-112369928D02*
X126993333Y-112327071D01*
X127031428Y-112241357D01*
X127031428Y-112112785D01*
X126993333Y-112027071D01*
X126917142Y-111984214D01*
X126498095Y-111984214D01*
X126917142Y-111984214D02*
X126993333Y-111941357D01*
X127031428Y-111855642D01*
X127031428Y-111727071D01*
X126993333Y-111641357D01*
X126917142Y-111598500D01*
X126498095Y-111598500D01*
X127336190Y-110527071D02*
X126307619Y-111298500D01*
X126498095Y-109841357D02*
X127298095Y-109841357D01*
X126536190Y-109841357D02*
X126498095Y-109927071D01*
X126498095Y-110098500D01*
X126536190Y-110184214D01*
X126574285Y-110227071D01*
X126650476Y-110269928D01*
X126879047Y-110269928D01*
X126955238Y-110227071D01*
X126993333Y-110184214D01*
X127031428Y-110098500D01*
X127031428Y-109927071D01*
X126993333Y-109841357D01*
X126536190Y-109069928D02*
X126498095Y-109155642D01*
X126498095Y-109327071D01*
X126536190Y-109412785D01*
X126612380Y-109455642D01*
X126917142Y-109455642D01*
X126993333Y-109412785D01*
X127031428Y-109327071D01*
X127031428Y-109155642D01*
X126993333Y-109069928D01*
X126917142Y-109027071D01*
X126840952Y-109027071D01*
X126764761Y-109455642D01*
X126498095Y-108641357D02*
X127031428Y-108641357D01*
X126879047Y-108641357D02*
X126955238Y-108598500D01*
X126993333Y-108555642D01*
X127031428Y-108469928D01*
X127031428Y-108384214D01*
X126802857Y-108084214D02*
X126802857Y-107398500D01*
X127031428Y-106969928D02*
X126231428Y-106969928D01*
X126993333Y-106969928D02*
X127031428Y-106884214D01*
X127031428Y-106712785D01*
X126993333Y-106627071D01*
X126955238Y-106584214D01*
X126879047Y-106541357D01*
X126650476Y-106541357D01*
X126574285Y-106584214D01*
X126536190Y-106627071D01*
X126498095Y-106712785D01*
X126498095Y-106884214D01*
X126536190Y-106969928D01*
X127031428Y-106241357D02*
X126498095Y-106069928D01*
X126879047Y-105898500D01*
X126498095Y-105727071D01*
X127031428Y-105555642D01*
X127336190Y-104569928D02*
X126307619Y-105341357D01*
X127298095Y-104269928D02*
X126650476Y-104269928D01*
X126574285Y-104227071D01*
X126536190Y-104184214D01*
X126498095Y-104098500D01*
X126498095Y-103927071D01*
X126536190Y-103841357D01*
X126574285Y-103798500D01*
X126650476Y-103755642D01*
X127298095Y-103755642D01*
X126536190Y-103369928D02*
X126498095Y-103241357D01*
X126498095Y-103027071D01*
X126536190Y-102941357D01*
X126574285Y-102898500D01*
X126650476Y-102855642D01*
X126726666Y-102855642D01*
X126802857Y-102898500D01*
X126840952Y-102941357D01*
X126879047Y-103027071D01*
X126917142Y-103198500D01*
X126955238Y-103284214D01*
X126993333Y-103327071D01*
X127069523Y-103369928D01*
X127145714Y-103369928D01*
X127221904Y-103327071D01*
X127260000Y-103284214D01*
X127298095Y-103198500D01*
X127298095Y-102984214D01*
X127260000Y-102855642D01*
X126917142Y-102169928D02*
X126879047Y-102041357D01*
X126840952Y-101998500D01*
X126764761Y-101955642D01*
X126650476Y-101955642D01*
X126574285Y-101998500D01*
X126536190Y-102041357D01*
X126498095Y-102127071D01*
X126498095Y-102469928D01*
X127298095Y-102469928D01*
X127298095Y-102169928D01*
X127260000Y-102084214D01*
X127221904Y-102041357D01*
X127145714Y-101998500D01*
X127069523Y-101998500D01*
X126993333Y-102041357D01*
X126955238Y-102084214D01*
X126917142Y-102169928D01*
X126917142Y-102469928D01*
X126802857Y-101569928D02*
X126802857Y-100884214D01*
X127298095Y-100198500D02*
X126726666Y-100198500D01*
X126612380Y-100241357D01*
X126536190Y-100327071D01*
X126498095Y-100455642D01*
X126498095Y-100541357D01*
X126498095Y-99641357D02*
X126536190Y-99727071D01*
X126574285Y-99769928D01*
X126650476Y-99812785D01*
X126879047Y-99812785D01*
X126955238Y-99769928D01*
X126993333Y-99727071D01*
X127031428Y-99641357D01*
X127031428Y-99512785D01*
X126993333Y-99427071D01*
X126955238Y-99384214D01*
X126879047Y-99341357D01*
X126650476Y-99341357D01*
X126574285Y-99384214D01*
X126536190Y-99427071D01*
X126498095Y-99512785D01*
X126498095Y-99641357D01*
X127031428Y-99041357D02*
X126498095Y-98827071D01*
X127031428Y-98612785D02*
X126498095Y-98827071D01*
X126307619Y-98912785D01*
X126269523Y-98955642D01*
X126231428Y-99041357D01*
X126498095Y-97884214D02*
X126917142Y-97884214D01*
X126993333Y-97927071D01*
X127031428Y-98012785D01*
X127031428Y-98184214D01*
X126993333Y-98269928D01*
X126536190Y-97884214D02*
X126498095Y-97969928D01*
X126498095Y-98184214D01*
X126536190Y-98269928D01*
X126612380Y-98312785D01*
X126688571Y-98312785D01*
X126764761Y-98269928D01*
X126802857Y-98184214D01*
X126802857Y-97969928D01*
X126840952Y-97884214D01*
X126498095Y-97069928D02*
X127298095Y-97069928D01*
X126536190Y-97069928D02*
X126498095Y-97155642D01*
X126498095Y-97327071D01*
X126536190Y-97412785D01*
X126574285Y-97455642D01*
X126650476Y-97498500D01*
X126879047Y-97498500D01*
X126955238Y-97455642D01*
X126993333Y-97412785D01*
X127031428Y-97327071D01*
X127031428Y-97155642D01*
X126993333Y-97069928D01*
X126498095Y-96255642D02*
X126917142Y-96255642D01*
X126993333Y-96298500D01*
X127031428Y-96384214D01*
X127031428Y-96555642D01*
X126993333Y-96641357D01*
X126536190Y-96255642D02*
X126498095Y-96341357D01*
X126498095Y-96555642D01*
X126536190Y-96641357D01*
X126612380Y-96684214D01*
X126688571Y-96684214D01*
X126764761Y-96641357D01*
X126802857Y-96555642D01*
X126802857Y-96341357D01*
X126840952Y-96255642D01*
X127031428Y-95827071D02*
X126231428Y-95827071D01*
X126993333Y-95827071D02*
X127031428Y-95741357D01*
X127031428Y-95569928D01*
X126993333Y-95484214D01*
X126955238Y-95441357D01*
X126879047Y-95398500D01*
X126650476Y-95398500D01*
X126574285Y-95441357D01*
X126536190Y-95484214D01*
X126498095Y-95569928D01*
X126498095Y-95741357D01*
X126536190Y-95827071D01*
X127031428Y-95141357D02*
X127031428Y-94798500D01*
X127298095Y-95012785D02*
X126612380Y-95012785D01*
X126536190Y-94969928D01*
X126498095Y-94884214D01*
X126498095Y-94798500D01*
X126536190Y-94155642D02*
X126498095Y-94241357D01*
X126498095Y-94412785D01*
X126536190Y-94498500D01*
X126612380Y-94541357D01*
X126917142Y-94541357D01*
X126993333Y-94498500D01*
X127031428Y-94412785D01*
X127031428Y-94241357D01*
X126993333Y-94155642D01*
X126917142Y-94112785D01*
X126840952Y-94112785D01*
X126764761Y-94541357D01*
X126498095Y-93727071D02*
X127031428Y-93727071D01*
X126879047Y-93727071D02*
X126955238Y-93684214D01*
X126993333Y-93641357D01*
X127031428Y-93555642D01*
X127031428Y-93469928D01*
X126421904Y-93384214D02*
X126421904Y-92698500D01*
X126536190Y-92527071D02*
X126498095Y-92398500D01*
X126498095Y-92184214D01*
X126536190Y-92098500D01*
X126574285Y-92055642D01*
X126650476Y-92012785D01*
X126726666Y-92012785D01*
X126802857Y-92055642D01*
X126840952Y-92098500D01*
X126879047Y-92184214D01*
X126917142Y-92355642D01*
X126955238Y-92441357D01*
X126993333Y-92484214D01*
X127069523Y-92527071D01*
X127145714Y-92527071D01*
X127221904Y-92484214D01*
X127260000Y-92441357D01*
X127298095Y-92355642D01*
X127298095Y-92141357D01*
X127260000Y-92012785D01*
X126498095Y-91627071D02*
X127298095Y-91627071D01*
X126726666Y-91327071D01*
X127298095Y-91027071D01*
X126498095Y-91027071D01*
X126498095Y-90598500D02*
X127298095Y-90598500D01*
X127298095Y-90384214D01*
X127260000Y-90255642D01*
X127183809Y-90169928D01*
X127107619Y-90127071D01*
X126955238Y-90084214D01*
X126840952Y-90084214D01*
X126688571Y-90127071D01*
X126612380Y-90169928D01*
X126536190Y-90255642D01*
X126498095Y-90384214D01*
X126498095Y-90598500D01*
D11*
X160223952Y-121861904D02*
X160223952Y-121061904D01*
X159919190Y-121061904D01*
X159843000Y-121100000D01*
X159804904Y-121138095D01*
X159766809Y-121214285D01*
X159766809Y-121328571D01*
X159804904Y-121404761D01*
X159843000Y-121442857D01*
X159919190Y-121480952D01*
X160223952Y-121480952D01*
X159309666Y-121861904D02*
X159385857Y-121823809D01*
X159423952Y-121785714D01*
X159462047Y-121709523D01*
X159462047Y-121480952D01*
X159423952Y-121404761D01*
X159385857Y-121366666D01*
X159309666Y-121328571D01*
X159195380Y-121328571D01*
X159119190Y-121366666D01*
X159081095Y-121404761D01*
X159043000Y-121480952D01*
X159043000Y-121709523D01*
X159081095Y-121785714D01*
X159119190Y-121823809D01*
X159195380Y-121861904D01*
X159309666Y-121861904D01*
X158357285Y-121328571D02*
X158357285Y-121976190D01*
X158395380Y-122052380D01*
X158433476Y-122090476D01*
X158509666Y-122128571D01*
X158623952Y-122128571D01*
X158700142Y-122090476D01*
X158357285Y-121823809D02*
X158433476Y-121861904D01*
X158585857Y-121861904D01*
X158662047Y-121823809D01*
X158700142Y-121785714D01*
X158738238Y-121709523D01*
X158738238Y-121480952D01*
X158700142Y-121404761D01*
X158662047Y-121366666D01*
X158585857Y-121328571D01*
X158433476Y-121328571D01*
X158357285Y-121366666D01*
X157862047Y-121861904D02*
X157938238Y-121823809D01*
X157976333Y-121785714D01*
X158014428Y-121709523D01*
X158014428Y-121480952D01*
X157976333Y-121404761D01*
X157938238Y-121366666D01*
X157862047Y-121328571D01*
X157747761Y-121328571D01*
X157671571Y-121366666D01*
X157633476Y-121404761D01*
X157595380Y-121480952D01*
X157595380Y-121709523D01*
X157633476Y-121785714D01*
X157671571Y-121823809D01*
X157747761Y-121861904D01*
X157862047Y-121861904D01*
X159195380Y-123181904D02*
X159195380Y-122381904D01*
X158852523Y-123143809D02*
X158738238Y-123181904D01*
X158547761Y-123181904D01*
X158471571Y-123143809D01*
X158433476Y-123105714D01*
X158395380Y-123029523D01*
X158395380Y-122953333D01*
X158433476Y-122877142D01*
X158471571Y-122839047D01*
X158547761Y-122800952D01*
X158700142Y-122762857D01*
X158776333Y-122724761D01*
X158814428Y-122686666D01*
X158852523Y-122610476D01*
X158852523Y-122534285D01*
X158814428Y-122458095D01*
X158776333Y-122420000D01*
X158700142Y-122381904D01*
X158509666Y-122381904D01*
X158395380Y-122420000D01*
X158052523Y-123181904D02*
X158052523Y-122381904D01*
X157747761Y-122381904D01*
X157671571Y-122420000D01*
X157633476Y-122458095D01*
X157595380Y-122534285D01*
X157595380Y-122648571D01*
X157633476Y-122724761D01*
X157671571Y-122762857D01*
X157747761Y-122800952D01*
X158052523Y-122800952D01*
X155961666Y-120325809D02*
X155191666Y-120059142D01*
X155961666Y-119792476D01*
X155265000Y-119068666D02*
X155228333Y-119106761D01*
X155191666Y-119221047D01*
X155191666Y-119297238D01*
X155228333Y-119411523D01*
X155301666Y-119487714D01*
X155375000Y-119525809D01*
X155521666Y-119563904D01*
X155631666Y-119563904D01*
X155778333Y-119525809D01*
X155851666Y-119487714D01*
X155925000Y-119411523D01*
X155961666Y-119297238D01*
X155961666Y-119221047D01*
X155925000Y-119106761D01*
X155888333Y-119068666D01*
X155265000Y-118268666D02*
X155228333Y-118306761D01*
X155191666Y-118421047D01*
X155191666Y-118497238D01*
X155228333Y-118611523D01*
X155301666Y-118687714D01*
X155375000Y-118725809D01*
X155521666Y-118763904D01*
X155631666Y-118763904D01*
X155778333Y-118725809D01*
X155851666Y-118687714D01*
X155925000Y-118611523D01*
X155961666Y-118497238D01*
X155961666Y-118421047D01*
X155925000Y-118306761D01*
X155888333Y-118268666D01*
X152641666Y-120211523D02*
X153411666Y-120211523D01*
X152861666Y-119944857D01*
X153411666Y-119678190D01*
X152641666Y-119678190D01*
X152641666Y-119297238D02*
X153411666Y-119297238D01*
X152678333Y-118954380D02*
X152641666Y-118840095D01*
X152641666Y-118649619D01*
X152678333Y-118573428D01*
X152715000Y-118535333D01*
X152788333Y-118497238D01*
X152861666Y-118497238D01*
X152935000Y-118535333D01*
X152971666Y-118573428D01*
X153008333Y-118649619D01*
X153045000Y-118802000D01*
X153081666Y-118878190D01*
X153118333Y-118916285D01*
X153191666Y-118954380D01*
X153265000Y-118954380D01*
X153338333Y-118916285D01*
X153375000Y-118878190D01*
X153411666Y-118802000D01*
X153411666Y-118611523D01*
X153375000Y-118497238D01*
X153411666Y-118002000D02*
X153411666Y-117849619D01*
X153375000Y-117773428D01*
X153301666Y-117697238D01*
X153155000Y-117659142D01*
X152898333Y-117659142D01*
X152751666Y-117697238D01*
X152678333Y-117773428D01*
X152641666Y-117849619D01*
X152641666Y-118002000D01*
X152678333Y-118078190D01*
X152751666Y-118154380D01*
X152898333Y-118192476D01*
X153155000Y-118192476D01*
X153301666Y-118154380D01*
X153375000Y-118078190D01*
X153411666Y-118002000D01*
X150128333Y-120249619D02*
X150091666Y-120135333D01*
X150091666Y-119944857D01*
X150128333Y-119868666D01*
X150165000Y-119830571D01*
X150238333Y-119792476D01*
X150311666Y-119792476D01*
X150385000Y-119830571D01*
X150421666Y-119868666D01*
X150458333Y-119944857D01*
X150495000Y-120097238D01*
X150531666Y-120173428D01*
X150568333Y-120211523D01*
X150641666Y-120249619D01*
X150715000Y-120249619D01*
X150788333Y-120211523D01*
X150825000Y-120173428D01*
X150861666Y-120097238D01*
X150861666Y-119906761D01*
X150825000Y-119792476D01*
X150165000Y-118992476D02*
X150128333Y-119030571D01*
X150091666Y-119144857D01*
X150091666Y-119221047D01*
X150128333Y-119335333D01*
X150201666Y-119411523D01*
X150275000Y-119449619D01*
X150421666Y-119487714D01*
X150531666Y-119487714D01*
X150678333Y-119449619D01*
X150751666Y-119411523D01*
X150825000Y-119335333D01*
X150861666Y-119221047D01*
X150861666Y-119144857D01*
X150825000Y-119030571D01*
X150788333Y-118992476D01*
X150091666Y-118649619D02*
X150861666Y-118649619D01*
X150091666Y-118192476D02*
X150531666Y-118535333D01*
X150861666Y-118192476D02*
X150421666Y-118649619D01*
X147541666Y-120211523D02*
X148311666Y-120211523D01*
X147761666Y-119944857D01*
X148311666Y-119678190D01*
X147541666Y-119678190D01*
X148311666Y-119144857D02*
X148311666Y-118992476D01*
X148275000Y-118916285D01*
X148201666Y-118840095D01*
X148055000Y-118802000D01*
X147798333Y-118802000D01*
X147651666Y-118840095D01*
X147578333Y-118916285D01*
X147541666Y-118992476D01*
X147541666Y-119144857D01*
X147578333Y-119221047D01*
X147651666Y-119297238D01*
X147798333Y-119335333D01*
X148055000Y-119335333D01*
X148201666Y-119297238D01*
X148275000Y-119221047D01*
X148311666Y-119144857D01*
X147578333Y-118497238D02*
X147541666Y-118382952D01*
X147541666Y-118192476D01*
X147578333Y-118116285D01*
X147615000Y-118078190D01*
X147688333Y-118040095D01*
X147761666Y-118040095D01*
X147835000Y-118078190D01*
X147871666Y-118116285D01*
X147908333Y-118192476D01*
X147945000Y-118344857D01*
X147981666Y-118421047D01*
X148018333Y-118459142D01*
X148091666Y-118497238D01*
X148165000Y-118497238D01*
X148238333Y-118459142D01*
X148275000Y-118421047D01*
X148311666Y-118344857D01*
X148311666Y-118154380D01*
X148275000Y-118040095D01*
X147541666Y-117697238D02*
X148311666Y-117697238D01*
X144991666Y-119754380D02*
X145358333Y-120021047D01*
X144991666Y-120211523D02*
X145761666Y-120211523D01*
X145761666Y-119906761D01*
X145725000Y-119830571D01*
X145688333Y-119792476D01*
X145615000Y-119754380D01*
X145505000Y-119754380D01*
X145431666Y-119792476D01*
X145395000Y-119830571D01*
X145358333Y-119906761D01*
X145358333Y-120211523D01*
X145028333Y-119449619D02*
X144991666Y-119335333D01*
X144991666Y-119144857D01*
X145028333Y-119068666D01*
X145065000Y-119030571D01*
X145138333Y-118992476D01*
X145211666Y-118992476D01*
X145285000Y-119030571D01*
X145321666Y-119068666D01*
X145358333Y-119144857D01*
X145395000Y-119297238D01*
X145431666Y-119373428D01*
X145468333Y-119411523D01*
X145541666Y-119449619D01*
X145615000Y-119449619D01*
X145688333Y-119411523D01*
X145725000Y-119373428D01*
X145761666Y-119297238D01*
X145761666Y-119106761D01*
X145725000Y-118992476D01*
X145761666Y-118763904D02*
X145761666Y-118306761D01*
X144991666Y-118535333D02*
X145761666Y-118535333D01*
X143175000Y-119792476D02*
X143211666Y-119868666D01*
X143211666Y-119982952D01*
X143175000Y-120097238D01*
X143101666Y-120173428D01*
X143028333Y-120211523D01*
X142881666Y-120249619D01*
X142771666Y-120249619D01*
X142625000Y-120211523D01*
X142551666Y-120173428D01*
X142478333Y-120097238D01*
X142441666Y-119982952D01*
X142441666Y-119906761D01*
X142478333Y-119792476D01*
X142515000Y-119754380D01*
X142771666Y-119754380D01*
X142771666Y-119906761D01*
X142441666Y-119411523D02*
X143211666Y-119411523D01*
X142441666Y-118954380D01*
X143211666Y-118954380D01*
X142441666Y-118573428D02*
X143211666Y-118573428D01*
X143211666Y-118382952D01*
X143175000Y-118268666D01*
X143101666Y-118192476D01*
X143028333Y-118154380D01*
X142881666Y-118116285D01*
X142771666Y-118116285D01*
X142625000Y-118154380D01*
X142551666Y-118192476D01*
X142478333Y-118268666D01*
X142441666Y-118382952D01*
X142441666Y-118573428D01*
D12*
%TO.C,G\u002A\u002A\u002A*%
G36*
X154359027Y-113031666D02*
G01*
X154279654Y-113039265D01*
X154241565Y-113056695D01*
X154230137Y-113087855D01*
X154229722Y-113100555D01*
X154204777Y-113159515D01*
X154159167Y-113171111D01*
X154101707Y-113193169D01*
X154088611Y-113224028D01*
X154115386Y-113263166D01*
X154200838Y-113276849D01*
X154212083Y-113276944D01*
X154297183Y-113269052D01*
X154331519Y-113238240D01*
X154335555Y-113206389D01*
X154347389Y-113160229D01*
X154395218Y-113139828D01*
X154476667Y-113135833D01*
X154617778Y-113135833D01*
X154617778Y-113453333D01*
X154423750Y-113453333D01*
X154306740Y-113458084D01*
X154246498Y-113474754D01*
X154229722Y-113506250D01*
X154200311Y-113549345D01*
X154159167Y-113559166D01*
X154113007Y-113571000D01*
X154092606Y-113618829D01*
X154088611Y-113700278D01*
X154094528Y-113792598D01*
X154118442Y-113833399D01*
X154159167Y-113841389D01*
X154218127Y-113866334D01*
X154229722Y-113911944D01*
X154235971Y-113948018D01*
X154264466Y-113969185D01*
X154329828Y-113979342D01*
X154446679Y-113982389D01*
X154494305Y-113982500D01*
X154629584Y-113980833D01*
X154708957Y-113973235D01*
X154747046Y-113955805D01*
X154758474Y-113924645D01*
X154758889Y-113911944D01*
X154783834Y-113852984D01*
X154829444Y-113841389D01*
X154888404Y-113816443D01*
X154900000Y-113770833D01*
X154888167Y-113724673D01*
X154840338Y-113704272D01*
X154758889Y-113700278D01*
X154666569Y-113706194D01*
X154625767Y-113730109D01*
X154617778Y-113770833D01*
X154605944Y-113816993D01*
X154558116Y-113837394D01*
X154476667Y-113841389D01*
X154335555Y-113841389D01*
X154335555Y-113559166D01*
X154547222Y-113559166D01*
X154665442Y-113556592D01*
X154729322Y-113545283D01*
X154754997Y-113519861D01*
X154758889Y-113488611D01*
X154783834Y-113429651D01*
X154829444Y-113418055D01*
X154878073Y-113404243D01*
X154897694Y-113350324D01*
X154900000Y-113294583D01*
X154892107Y-113209483D01*
X154861296Y-113175147D01*
X154829444Y-113171111D01*
X154770484Y-113146166D01*
X154758889Y-113100555D01*
X154752640Y-113064481D01*
X154724145Y-113043315D01*
X154658783Y-113033158D01*
X154541932Y-113030110D01*
X154494305Y-113030000D01*
X154359027Y-113031666D01*
G37*
X154359027Y-113031666D02*
X154279654Y-113039265D01*
X154241565Y-113056695D01*
X154230137Y-113087855D01*
X154229722Y-113100555D01*
X154204777Y-113159515D01*
X154159167Y-113171111D01*
X154101707Y-113193169D01*
X154088611Y-113224028D01*
X154115386Y-113263166D01*
X154200838Y-113276849D01*
X154212083Y-113276944D01*
X154297183Y-113269052D01*
X154331519Y-113238240D01*
X154335555Y-113206389D01*
X154347389Y-113160229D01*
X154395218Y-113139828D01*
X154476667Y-113135833D01*
X154617778Y-113135833D01*
X154617778Y-113453333D01*
X154423750Y-113453333D01*
X154306740Y-113458084D01*
X154246498Y-113474754D01*
X154229722Y-113506250D01*
X154200311Y-113549345D01*
X154159167Y-113559166D01*
X154113007Y-113571000D01*
X154092606Y-113618829D01*
X154088611Y-113700278D01*
X154094528Y-113792598D01*
X154118442Y-113833399D01*
X154159167Y-113841389D01*
X154218127Y-113866334D01*
X154229722Y-113911944D01*
X154235971Y-113948018D01*
X154264466Y-113969185D01*
X154329828Y-113979342D01*
X154446679Y-113982389D01*
X154494305Y-113982500D01*
X154629584Y-113980833D01*
X154708957Y-113973235D01*
X154747046Y-113955805D01*
X154758474Y-113924645D01*
X154758889Y-113911944D01*
X154783834Y-113852984D01*
X154829444Y-113841389D01*
X154888404Y-113816443D01*
X154900000Y-113770833D01*
X154888167Y-113724673D01*
X154840338Y-113704272D01*
X154758889Y-113700278D01*
X154666569Y-113706194D01*
X154625767Y-113730109D01*
X154617778Y-113770833D01*
X154605944Y-113816993D01*
X154558116Y-113837394D01*
X154476667Y-113841389D01*
X154335555Y-113841389D01*
X154335555Y-113559166D01*
X154547222Y-113559166D01*
X154665442Y-113556592D01*
X154729322Y-113545283D01*
X154754997Y-113519861D01*
X154758889Y-113488611D01*
X154783834Y-113429651D01*
X154829444Y-113418055D01*
X154878073Y-113404243D01*
X154897694Y-113350324D01*
X154900000Y-113294583D01*
X154892107Y-113209483D01*
X154861296Y-113175147D01*
X154829444Y-113171111D01*
X154770484Y-113146166D01*
X154758889Y-113100555D01*
X154752640Y-113064481D01*
X154724145Y-113043315D01*
X154658783Y-113033158D01*
X154541932Y-113030110D01*
X154494305Y-113030000D01*
X154359027Y-113031666D01*
G36*
X153537680Y-113035916D02*
G01*
X153496878Y-113059831D01*
X153488889Y-113100555D01*
X153466831Y-113158015D01*
X153435972Y-113171111D01*
X153392877Y-113200522D01*
X153383055Y-113241666D01*
X153362385Y-113296993D01*
X153294861Y-113312222D01*
X153225702Y-113295686D01*
X153206667Y-113241666D01*
X153181721Y-113182706D01*
X153136111Y-113171111D01*
X153077151Y-113146166D01*
X153065555Y-113100555D01*
X153051744Y-113051927D01*
X152997824Y-113032306D01*
X152942083Y-113030000D01*
X152818611Y-113030000D01*
X152818611Y-113982500D01*
X153065555Y-113982500D01*
X153065555Y-113700278D01*
X153066495Y-113560307D01*
X153072314Y-113476495D01*
X153087510Y-113434447D01*
X153116581Y-113419768D01*
X153153750Y-113418055D01*
X153222909Y-113434592D01*
X153241944Y-113488611D01*
X153264003Y-113546071D01*
X153294861Y-113559166D01*
X153337956Y-113529755D01*
X153347778Y-113488611D01*
X153372723Y-113429651D01*
X153418333Y-113418055D01*
X153453487Y-113423947D01*
X153474556Y-113451085D01*
X153485087Y-113513661D01*
X153488629Y-113625867D01*
X153488889Y-113700278D01*
X153488889Y-113982500D01*
X153771111Y-113982500D01*
X153771111Y-113030000D01*
X153630000Y-113030000D01*
X153537680Y-113035916D01*
G37*
X153537680Y-113035916D02*
X153496878Y-113059831D01*
X153488889Y-113100555D01*
X153466831Y-113158015D01*
X153435972Y-113171111D01*
X153392877Y-113200522D01*
X153383055Y-113241666D01*
X153362385Y-113296993D01*
X153294861Y-113312222D01*
X153225702Y-113295686D01*
X153206667Y-113241666D01*
X153181721Y-113182706D01*
X153136111Y-113171111D01*
X153077151Y-113146166D01*
X153065555Y-113100555D01*
X153051744Y-113051927D01*
X152997824Y-113032306D01*
X152942083Y-113030000D01*
X152818611Y-113030000D01*
X152818611Y-113982500D01*
X153065555Y-113982500D01*
X153065555Y-113700278D01*
X153066495Y-113560307D01*
X153072314Y-113476495D01*
X153087510Y-113434447D01*
X153116581Y-113419768D01*
X153153750Y-113418055D01*
X153222909Y-113434592D01*
X153241944Y-113488611D01*
X153264003Y-113546071D01*
X153294861Y-113559166D01*
X153337956Y-113529755D01*
X153347778Y-113488611D01*
X153372723Y-113429651D01*
X153418333Y-113418055D01*
X153453487Y-113423947D01*
X153474556Y-113451085D01*
X153485087Y-113513661D01*
X153488629Y-113625867D01*
X153488889Y-113700278D01*
X153488889Y-113982500D01*
X153771111Y-113982500D01*
X153771111Y-113030000D01*
X153630000Y-113030000D01*
X153537680Y-113035916D01*
G36*
X152242361Y-113031666D02*
G01*
X152162987Y-113039265D01*
X152124898Y-113056695D01*
X152113470Y-113087855D01*
X152113055Y-113100555D01*
X152088110Y-113159515D01*
X152042500Y-113171111D01*
X151983540Y-113196056D01*
X151971944Y-113241666D01*
X151946999Y-113300626D01*
X151901389Y-113312222D01*
X151860615Y-113320644D01*
X151839374Y-113357056D01*
X151831586Y-113438179D01*
X151830833Y-113506250D01*
X151833896Y-113618378D01*
X151847137Y-113676791D01*
X151876636Y-113698208D01*
X151901389Y-113700278D01*
X151960349Y-113725223D01*
X151971944Y-113770833D01*
X151996890Y-113829793D01*
X152042500Y-113841389D01*
X152101460Y-113866334D01*
X152113055Y-113911944D01*
X152119305Y-113948018D01*
X152147800Y-113969185D01*
X152213162Y-113979342D01*
X152330012Y-113982389D01*
X152377639Y-113982500D01*
X152642222Y-113982500D01*
X152642222Y-113488611D01*
X152360000Y-113488611D01*
X152359032Y-113649173D01*
X152354424Y-113751959D01*
X152343623Y-113809738D01*
X152324074Y-113835282D01*
X152293223Y-113841360D01*
X152289444Y-113841389D01*
X152230484Y-113816443D01*
X152218889Y-113770833D01*
X152193944Y-113711873D01*
X152148333Y-113700278D01*
X152108927Y-113692554D01*
X152087633Y-113658628D01*
X152079075Y-113582362D01*
X152077778Y-113488611D01*
X152080352Y-113370391D01*
X152091661Y-113306511D01*
X152117083Y-113280836D01*
X152148333Y-113276944D01*
X152207293Y-113251999D01*
X152218889Y-113206389D01*
X152243834Y-113147429D01*
X152289444Y-113135833D01*
X152321557Y-113140675D01*
X152342114Y-113163714D01*
X152353670Y-113217720D01*
X152358779Y-113315465D01*
X152359994Y-113469717D01*
X152360000Y-113488611D01*
X152642222Y-113488611D01*
X152642222Y-113030000D01*
X152377639Y-113030000D01*
X152242361Y-113031666D01*
G37*
X152242361Y-113031666D02*
X152162987Y-113039265D01*
X152124898Y-113056695D01*
X152113470Y-113087855D01*
X152113055Y-113100555D01*
X152088110Y-113159515D01*
X152042500Y-113171111D01*
X151983540Y-113196056D01*
X151971944Y-113241666D01*
X151946999Y-113300626D01*
X151901389Y-113312222D01*
X151860615Y-113320644D01*
X151839374Y-113357056D01*
X151831586Y-113438179D01*
X151830833Y-113506250D01*
X151833896Y-113618378D01*
X151847137Y-113676791D01*
X151876636Y-113698208D01*
X151901389Y-113700278D01*
X151960349Y-113725223D01*
X151971944Y-113770833D01*
X151996890Y-113829793D01*
X152042500Y-113841389D01*
X152101460Y-113866334D01*
X152113055Y-113911944D01*
X152119305Y-113948018D01*
X152147800Y-113969185D01*
X152213162Y-113979342D01*
X152330012Y-113982389D01*
X152377639Y-113982500D01*
X152642222Y-113982500D01*
X152642222Y-113488611D01*
X152360000Y-113488611D01*
X152359032Y-113649173D01*
X152354424Y-113751959D01*
X152343623Y-113809738D01*
X152324074Y-113835282D01*
X152293223Y-113841360D01*
X152289444Y-113841389D01*
X152230484Y-113816443D01*
X152218889Y-113770833D01*
X152193944Y-113711873D01*
X152148333Y-113700278D01*
X152108927Y-113692554D01*
X152087633Y-113658628D01*
X152079075Y-113582362D01*
X152077778Y-113488611D01*
X152080352Y-113370391D01*
X152091661Y-113306511D01*
X152117083Y-113280836D01*
X152148333Y-113276944D01*
X152207293Y-113251999D01*
X152218889Y-113206389D01*
X152243834Y-113147429D01*
X152289444Y-113135833D01*
X152321557Y-113140675D01*
X152342114Y-113163714D01*
X152353670Y-113217720D01*
X152358779Y-113315465D01*
X152359994Y-113469717D01*
X152360000Y-113488611D01*
X152642222Y-113488611D01*
X152642222Y-113030000D01*
X152377639Y-113030000D01*
X152242361Y-113031666D01*
G36*
X143807785Y-107888590D02*
G01*
X143660489Y-108011106D01*
X143559407Y-108175354D01*
X143514203Y-108362717D01*
X143514940Y-108452708D01*
X143530198Y-108620278D01*
X143269661Y-108620278D01*
X143055626Y-108632674D01*
X142892576Y-108673615D01*
X142764765Y-108748729D01*
X142683422Y-108829854D01*
X142588055Y-108943191D01*
X142588187Y-110642637D01*
X142588328Y-111033663D01*
X142588843Y-111360402D01*
X142589971Y-111629121D01*
X142591950Y-111846088D01*
X142595019Y-112017570D01*
X142599417Y-112149836D01*
X142605382Y-112249153D01*
X142613153Y-112321788D01*
X142622969Y-112374011D01*
X142635068Y-112412087D01*
X142649689Y-112442286D01*
X142657183Y-112455023D01*
X142738349Y-112551889D01*
X142839178Y-112629704D01*
X142842259Y-112631412D01*
X142859325Y-112639401D01*
X142882040Y-112646698D01*
X142913542Y-112653338D01*
X142956968Y-112659354D01*
X143015457Y-112664782D01*
X143092146Y-112669656D01*
X143190173Y-112674010D01*
X143312676Y-112677880D01*
X143462794Y-112681300D01*
X143643664Y-112684303D01*
X143858424Y-112686926D01*
X144110211Y-112689202D01*
X144402165Y-112691165D01*
X144737422Y-112692851D01*
X145119122Y-112694295D01*
X145550400Y-112695529D01*
X146034397Y-112696590D01*
X146574248Y-112697511D01*
X147173093Y-112698327D01*
X147834070Y-112699074D01*
X148560315Y-112699784D01*
X149096805Y-112700267D01*
X149751233Y-112700685D01*
X150387594Y-112700780D01*
X151002214Y-112700566D01*
X151591423Y-112700056D01*
X152151549Y-112699263D01*
X152678918Y-112698200D01*
X153169860Y-112696880D01*
X153620702Y-112695317D01*
X154027772Y-112693524D01*
X154387399Y-112691514D01*
X154695910Y-112689301D01*
X154949632Y-112686896D01*
X155144895Y-112684315D01*
X155278026Y-112681569D01*
X155345354Y-112678672D01*
X155352096Y-112677793D01*
X155495761Y-112612219D01*
X155622531Y-112498346D01*
X155690568Y-112395000D01*
X155701609Y-112351455D01*
X155711045Y-112266735D01*
X155718997Y-112136637D01*
X155722460Y-112042222D01*
X154900000Y-112042222D01*
X154875055Y-112101182D01*
X154829444Y-112112778D01*
X154770484Y-112137723D01*
X154758889Y-112183333D01*
X154751166Y-112222740D01*
X154717239Y-112244033D01*
X154640973Y-112252591D01*
X154547222Y-112253889D01*
X154429002Y-112251314D01*
X154365122Y-112240005D01*
X154339447Y-112214583D01*
X154335555Y-112183333D01*
X154310610Y-112124373D01*
X154265000Y-112112778D01*
X154232207Y-112107717D01*
X154211511Y-112083809D01*
X154200155Y-112027968D01*
X154195385Y-111927103D01*
X154195222Y-111901111D01*
X153771111Y-111901111D01*
X153768537Y-112019331D01*
X153757228Y-112083211D01*
X153731806Y-112108886D01*
X153700555Y-112112778D01*
X153641595Y-112137723D01*
X153630000Y-112183333D01*
X153624108Y-112218487D01*
X153596970Y-112239555D01*
X153534394Y-112250087D01*
X153422188Y-112253629D01*
X153347778Y-112253889D01*
X153207162Y-112252416D01*
X153122888Y-112245631D01*
X153080763Y-112229987D01*
X153066594Y-112201936D01*
X153065555Y-112183333D01*
X153040610Y-112124373D01*
X152995000Y-112112778D01*
X152955593Y-112105054D01*
X152934300Y-112071128D01*
X152925742Y-111994862D01*
X152924444Y-111901111D01*
X152927019Y-111782891D01*
X152938328Y-111719011D01*
X152963750Y-111693336D01*
X152995000Y-111689444D01*
X153053960Y-111664499D01*
X153065555Y-111618889D01*
X153071448Y-111583735D01*
X153098585Y-111562666D01*
X153161161Y-111552135D01*
X153273368Y-111548593D01*
X153347778Y-111548333D01*
X152642222Y-111548333D01*
X152642222Y-111760000D01*
X152639648Y-111878220D01*
X152628339Y-111942100D01*
X152602917Y-111967775D01*
X152571667Y-111971666D01*
X152512707Y-111996612D01*
X152501111Y-112042222D01*
X152487299Y-112090850D01*
X152433380Y-112110471D01*
X152377639Y-112112778D01*
X152292539Y-112120670D01*
X152258203Y-112151481D01*
X152254167Y-112183333D01*
X152262588Y-112224107D01*
X152299001Y-112245348D01*
X152380124Y-112253136D01*
X152448194Y-112253889D01*
X152560323Y-112256951D01*
X152618735Y-112270192D01*
X152640153Y-112299691D01*
X152642222Y-112324444D01*
X152636330Y-112359598D01*
X152609192Y-112380667D01*
X152546616Y-112391198D01*
X152434410Y-112394740D01*
X152360000Y-112395000D01*
X152219385Y-112393527D01*
X152135111Y-112386742D01*
X152092985Y-112371098D01*
X152078816Y-112343047D01*
X152077778Y-112324444D01*
X152052833Y-112265484D01*
X152007222Y-112253889D01*
X151948262Y-112228943D01*
X151936667Y-112183333D01*
X151911721Y-112124373D01*
X151866111Y-112112778D01*
X151830957Y-112106885D01*
X151809889Y-112079748D01*
X151803574Y-112042222D01*
X151548611Y-112042222D01*
X151523666Y-112101182D01*
X151478055Y-112112778D01*
X151419095Y-112137723D01*
X151407500Y-112183333D01*
X151402658Y-112215446D01*
X151379619Y-112236003D01*
X151325613Y-112247559D01*
X151227868Y-112252667D01*
X151073616Y-112253883D01*
X151054722Y-112253889D01*
X150701944Y-112253889D01*
X150701944Y-111971666D01*
X150419722Y-111971666D01*
X150413805Y-112063986D01*
X150389891Y-112104788D01*
X150349167Y-112112778D01*
X150290207Y-112137723D01*
X150278611Y-112183333D01*
X150273769Y-112215446D01*
X150250730Y-112236003D01*
X150196724Y-112247559D01*
X150098980Y-112252667D01*
X149944727Y-112253883D01*
X149925833Y-112253889D01*
X149573055Y-112253889D01*
X149573055Y-112042222D01*
X149290833Y-112042222D01*
X149265888Y-112101182D01*
X149220278Y-112112778D01*
X149161318Y-112137723D01*
X149149722Y-112183333D01*
X149144880Y-112215446D01*
X149121842Y-112236003D01*
X149067835Y-112247559D01*
X148970091Y-112252667D01*
X148815838Y-112253883D01*
X148796944Y-112253889D01*
X148444167Y-112253889D01*
X148444167Y-111971666D01*
X148445640Y-111831051D01*
X148452424Y-111746777D01*
X148468068Y-111704652D01*
X148496120Y-111690483D01*
X148514722Y-111689444D01*
X148573682Y-111664499D01*
X148585278Y-111618889D01*
X148591170Y-111583735D01*
X148618308Y-111562666D01*
X148680884Y-111552135D01*
X148793090Y-111548593D01*
X148867500Y-111548333D01*
X148197222Y-111548333D01*
X148197222Y-112395000D01*
X147915000Y-112395000D01*
X147915000Y-112112778D01*
X147703333Y-112112778D01*
X147585113Y-112110203D01*
X147521233Y-112098894D01*
X147495558Y-112073472D01*
X147491667Y-112042222D01*
X147466721Y-111983262D01*
X147421111Y-111971666D01*
X147374951Y-111959833D01*
X147354550Y-111912004D01*
X147350555Y-111830555D01*
X147356472Y-111738235D01*
X147380387Y-111697433D01*
X147421111Y-111689444D01*
X147480071Y-111664499D01*
X147487182Y-111636528D01*
X147068333Y-111636528D01*
X147060631Y-111693350D01*
X147024302Y-111718605D01*
X146939511Y-111724690D01*
X146927222Y-111724722D01*
X146786111Y-111724722D01*
X146786111Y-111918750D01*
X146781360Y-112035760D01*
X146764690Y-112096002D01*
X146733194Y-112112778D01*
X146690099Y-112142188D01*
X146680278Y-112183333D01*
X146673131Y-112221517D01*
X146641297Y-112242805D01*
X146569186Y-112251995D01*
X146450972Y-112253889D01*
X146326876Y-112251690D01*
X146257689Y-112241895D01*
X146227821Y-112219707D01*
X146221667Y-112183333D01*
X146233500Y-112137173D01*
X146281329Y-112116772D01*
X146362778Y-112112778D01*
X146503889Y-112112778D01*
X146503889Y-111901111D01*
X145939444Y-111901111D01*
X145936870Y-112019331D01*
X145925561Y-112083211D01*
X145900139Y-112108886D01*
X145868889Y-112112778D01*
X145809929Y-112137723D01*
X145798333Y-112183333D01*
X145792441Y-112218487D01*
X145765303Y-112239555D01*
X145702727Y-112250087D01*
X145590521Y-112253629D01*
X145516111Y-112253889D01*
X145375496Y-112252416D01*
X145291222Y-112245631D01*
X145249096Y-112229987D01*
X145234927Y-112201936D01*
X145233889Y-112183333D01*
X145241612Y-112143926D01*
X145275539Y-112122633D01*
X145351804Y-112114075D01*
X145445555Y-112112778D01*
X145563776Y-112110203D01*
X145627656Y-112098894D01*
X145653331Y-112073472D01*
X145657222Y-112042222D01*
X145651330Y-112007068D01*
X145624192Y-111986000D01*
X145561616Y-111975468D01*
X145449410Y-111971926D01*
X145375000Y-111971666D01*
X145092778Y-111971666D01*
X145092778Y-111830555D01*
X145098694Y-111738235D01*
X145122609Y-111697433D01*
X145163333Y-111689444D01*
X145222293Y-111664499D01*
X145233889Y-111618889D01*
X145239781Y-111583735D01*
X145266919Y-111562666D01*
X145329495Y-111552135D01*
X145441701Y-111548593D01*
X145516111Y-111548333D01*
X144845833Y-111548333D01*
X144845833Y-112253889D01*
X144563611Y-112253889D01*
X144563611Y-111724722D01*
X144440139Y-111724722D01*
X144348817Y-111736197D01*
X144316890Y-111772819D01*
X144316667Y-111777639D01*
X144295891Y-111812517D01*
X144225249Y-111828404D01*
X144157917Y-111830555D01*
X144058710Y-111825939D01*
X144011799Y-111806770D01*
X143999227Y-111765068D01*
X143999167Y-111760000D01*
X144024112Y-111701040D01*
X144069722Y-111689444D01*
X144128682Y-111664499D01*
X144140278Y-111618889D01*
X144145119Y-111586776D01*
X144168158Y-111566219D01*
X144222165Y-111554663D01*
X144319909Y-111549554D01*
X144474162Y-111548339D01*
X144493055Y-111548333D01*
X144845833Y-111548333D01*
X145516111Y-111548333D01*
X145656726Y-111549806D01*
X145741000Y-111556591D01*
X145783126Y-111572235D01*
X145797295Y-111600286D01*
X145798333Y-111618889D01*
X145823278Y-111677849D01*
X145868889Y-111689444D01*
X145908296Y-111697167D01*
X145929589Y-111731094D01*
X145938147Y-111807360D01*
X145939444Y-111901111D01*
X146503889Y-111901111D01*
X146503889Y-111724722D01*
X146362778Y-111724722D01*
X146271862Y-111719908D01*
X146231454Y-111697202D01*
X146221717Y-111644208D01*
X146221667Y-111636528D01*
X146229369Y-111579705D01*
X146265698Y-111554450D01*
X146350489Y-111548365D01*
X146362778Y-111548333D01*
X146455098Y-111542416D01*
X146495900Y-111518502D01*
X146503889Y-111477778D01*
X146515722Y-111431617D01*
X146563551Y-111411217D01*
X146645000Y-111407222D01*
X146737320Y-111413139D01*
X146778122Y-111437053D01*
X146786111Y-111477778D01*
X146797944Y-111523938D01*
X146845773Y-111544338D01*
X146927222Y-111548333D01*
X147018138Y-111553147D01*
X147058546Y-111575853D01*
X147068283Y-111628847D01*
X147068333Y-111636528D01*
X147487182Y-111636528D01*
X147491667Y-111618889D01*
X147496508Y-111586776D01*
X147519547Y-111566219D01*
X147573554Y-111554663D01*
X147671298Y-111549554D01*
X147825551Y-111548339D01*
X147844444Y-111548333D01*
X148197222Y-111548333D01*
X148867500Y-111548333D01*
X149007471Y-111549273D01*
X149091282Y-111555091D01*
X149133330Y-111570287D01*
X149148010Y-111599359D01*
X149149722Y-111636528D01*
X149144686Y-111687038D01*
X149118065Y-111713339D01*
X149052596Y-111723277D01*
X148955694Y-111724722D01*
X148838684Y-111729473D01*
X148778442Y-111746143D01*
X148761667Y-111777639D01*
X148779086Y-111809551D01*
X148840210Y-111825980D01*
X148955694Y-111830555D01*
X149067823Y-111833618D01*
X149126235Y-111846859D01*
X149147653Y-111876358D01*
X149149722Y-111901111D01*
X149174667Y-111960071D01*
X149220278Y-111971666D01*
X149279238Y-111996612D01*
X149290833Y-112042222D01*
X149573055Y-112042222D01*
X149573055Y-111407222D01*
X149890555Y-111407222D01*
X149890555Y-111689444D01*
X150084583Y-111689444D01*
X150196712Y-111692507D01*
X150255124Y-111705747D01*
X150276542Y-111735247D01*
X150278611Y-111760000D01*
X150303556Y-111818960D01*
X150349167Y-111830555D01*
X150395327Y-111842389D01*
X150415728Y-111890217D01*
X150419722Y-111971666D01*
X150701944Y-111971666D01*
X150703417Y-111831051D01*
X150710202Y-111746777D01*
X150725846Y-111704652D01*
X150753897Y-111690483D01*
X150772500Y-111689444D01*
X150831460Y-111664499D01*
X150843055Y-111618889D01*
X150848948Y-111583735D01*
X150876085Y-111562666D01*
X150938661Y-111552135D01*
X151050868Y-111548593D01*
X151125278Y-111548333D01*
X151265248Y-111549273D01*
X151349060Y-111555091D01*
X151391108Y-111570287D01*
X151405787Y-111599359D01*
X151407500Y-111636528D01*
X151402463Y-111687038D01*
X151375843Y-111713339D01*
X151310373Y-111723277D01*
X151213472Y-111724722D01*
X151096462Y-111729473D01*
X151036220Y-111746143D01*
X151019444Y-111777639D01*
X151036864Y-111809551D01*
X151097987Y-111825980D01*
X151213472Y-111830555D01*
X151325600Y-111833618D01*
X151384013Y-111846859D01*
X151405431Y-111876358D01*
X151407500Y-111901111D01*
X151432445Y-111960071D01*
X151478055Y-111971666D01*
X151537016Y-111996612D01*
X151548611Y-112042222D01*
X151803574Y-112042222D01*
X151799357Y-112017172D01*
X151795815Y-111904965D01*
X151795555Y-111830555D01*
X151795555Y-111548333D01*
X152113055Y-111548333D01*
X152113055Y-111971666D01*
X152360000Y-111971666D01*
X152360000Y-111548333D01*
X152642222Y-111548333D01*
X153347778Y-111548333D01*
X153488393Y-111549806D01*
X153572667Y-111556591D01*
X153614792Y-111572235D01*
X153628961Y-111600286D01*
X153630000Y-111618889D01*
X153654945Y-111677849D01*
X153700555Y-111689444D01*
X153739962Y-111697167D01*
X153761256Y-111731094D01*
X153769814Y-111807360D01*
X153771111Y-111901111D01*
X154195222Y-111901111D01*
X154194444Y-111777639D01*
X154193379Y-111621873D01*
X154188346Y-111523565D01*
X154176590Y-111469627D01*
X154155355Y-111446970D01*
X154123889Y-111442500D01*
X154068562Y-111421829D01*
X154053333Y-111354305D01*
X154056341Y-111310564D01*
X154074960Y-111284373D01*
X154123587Y-111271233D01*
X154216616Y-111266646D01*
X154335555Y-111266111D01*
X154475526Y-111267051D01*
X154559338Y-111272869D01*
X154601386Y-111288065D01*
X154616065Y-111317137D01*
X154617778Y-111354305D01*
X154599377Y-111425238D01*
X154564861Y-111442500D01*
X154539636Y-111454494D01*
X154523673Y-111498362D01*
X154515104Y-111585932D01*
X154512061Y-111729032D01*
X154511944Y-111777639D01*
X154513838Y-111937396D01*
X154520765Y-112038497D01*
X154534592Y-112092769D01*
X154557186Y-112112040D01*
X154564861Y-112112778D01*
X154607956Y-112083367D01*
X154617778Y-112042222D01*
X154629611Y-111996062D01*
X154677440Y-111975661D01*
X154758889Y-111971666D01*
X154851209Y-111977583D01*
X154892011Y-112001497D01*
X154900000Y-112042222D01*
X155722460Y-112042222D01*
X155725588Y-111956957D01*
X155730938Y-111723490D01*
X155735170Y-111432034D01*
X155738406Y-111078384D01*
X155740744Y-110663694D01*
X155745488Y-109572778D01*
X154900000Y-109572778D01*
X154900000Y-109996111D01*
X154899308Y-110174812D01*
X154895932Y-110294653D01*
X154887924Y-110367327D01*
X154873335Y-110404525D01*
X154850216Y-110417940D01*
X154829444Y-110419444D01*
X154770484Y-110444389D01*
X154758889Y-110490000D01*
X154752997Y-110525154D01*
X154725859Y-110546222D01*
X154663283Y-110556753D01*
X154551077Y-110560296D01*
X154476667Y-110560555D01*
X154336051Y-110559082D01*
X154251777Y-110552298D01*
X154209652Y-110536654D01*
X154195483Y-110508602D01*
X154194444Y-110490000D01*
X154169499Y-110431040D01*
X154123889Y-110419444D01*
X154094105Y-110415291D01*
X154074132Y-110395036D01*
X154062020Y-110346987D01*
X154055820Y-110259453D01*
X154053584Y-110120740D01*
X154053333Y-109996111D01*
X154053333Y-109872639D01*
X153771111Y-109872639D01*
X153766495Y-109971845D01*
X153747326Y-110018756D01*
X153705624Y-110031328D01*
X153700555Y-110031389D01*
X153643095Y-110053447D01*
X153630000Y-110084305D01*
X153612581Y-110116217D01*
X153551457Y-110132647D01*
X153435972Y-110137222D01*
X153241944Y-110137222D01*
X153241944Y-110278333D01*
X153245682Y-110368682D01*
X153268762Y-110408833D01*
X153328983Y-110419129D01*
X153365417Y-110419444D01*
X153450516Y-110411552D01*
X153484853Y-110380740D01*
X153488889Y-110348889D01*
X153500722Y-110302729D01*
X153548551Y-110282328D01*
X153630000Y-110278333D01*
X153722320Y-110284250D01*
X153763122Y-110308164D01*
X153771111Y-110348889D01*
X153746166Y-110407849D01*
X153700555Y-110419444D01*
X153641595Y-110444389D01*
X153630000Y-110490000D01*
X153624108Y-110525154D01*
X153596970Y-110546222D01*
X153534394Y-110556753D01*
X153422188Y-110560296D01*
X153347778Y-110560555D01*
X153207162Y-110559082D01*
X153122888Y-110552298D01*
X153080763Y-110536654D01*
X153066594Y-110508602D01*
X153065555Y-110490000D01*
X153040610Y-110431040D01*
X152995000Y-110419444D01*
X152948840Y-110407611D01*
X152928439Y-110359782D01*
X152924444Y-110278333D01*
X152930361Y-110186013D01*
X152954275Y-110145211D01*
X152995000Y-110137222D01*
X153053960Y-110112277D01*
X153065555Y-110066666D01*
X153073279Y-110027260D01*
X153107205Y-110005966D01*
X153183471Y-109997408D01*
X153277222Y-109996111D01*
X153488889Y-109996111D01*
X153488889Y-109872639D01*
X153483340Y-109789853D01*
X153452771Y-109755899D01*
X153376300Y-109749176D01*
X153369531Y-109749166D01*
X153278973Y-109761439D01*
X153236559Y-109804786D01*
X153231723Y-109819722D01*
X153203735Y-109866887D01*
X153139532Y-109887263D01*
X153068858Y-109890278D01*
X152976597Y-109885718D01*
X152935048Y-109864034D01*
X152924555Y-109813224D01*
X152924444Y-109802083D01*
X152940981Y-109732924D01*
X152995000Y-109713889D01*
X153053960Y-109688943D01*
X153065555Y-109643333D01*
X153071448Y-109608179D01*
X153098585Y-109587111D01*
X153161161Y-109576579D01*
X153273368Y-109573037D01*
X153347778Y-109572778D01*
X152642222Y-109572778D01*
X152642222Y-110560555D01*
X152289444Y-110560555D01*
X152128882Y-110559587D01*
X152026096Y-110554979D01*
X151968317Y-110544178D01*
X151942773Y-110524629D01*
X151936695Y-110493778D01*
X151936667Y-110490000D01*
X151911721Y-110431040D01*
X151866111Y-110419444D01*
X151819951Y-110407611D01*
X151799550Y-110359782D01*
X151795555Y-110278333D01*
X151801472Y-110186013D01*
X151825387Y-110145211D01*
X151866111Y-110137222D01*
X151923571Y-110115164D01*
X151936667Y-110084305D01*
X151907256Y-110041210D01*
X151866111Y-110031389D01*
X151822019Y-110021002D01*
X151801170Y-109977871D01*
X151795582Y-109884043D01*
X151795555Y-109872639D01*
X151800172Y-109773432D01*
X151819341Y-109726521D01*
X151861042Y-109713949D01*
X151866111Y-109713889D01*
X151925071Y-109688943D01*
X151936667Y-109643333D01*
X151941508Y-109611221D01*
X151964547Y-109590663D01*
X152018554Y-109579108D01*
X152116298Y-109573999D01*
X152270551Y-109572783D01*
X152289444Y-109572778D01*
X152642222Y-109572778D01*
X153347778Y-109572778D01*
X153488393Y-109574251D01*
X153572667Y-109581035D01*
X153614792Y-109596679D01*
X153628961Y-109624731D01*
X153630000Y-109643333D01*
X153654945Y-109702293D01*
X153700555Y-109713889D01*
X153744647Y-109724276D01*
X153765497Y-109767406D01*
X153771084Y-109861234D01*
X153771111Y-109872639D01*
X154053333Y-109872639D01*
X154053333Y-109572778D01*
X154370833Y-109572778D01*
X154370833Y-110419444D01*
X154617778Y-110419444D01*
X154617778Y-109572778D01*
X154900000Y-109572778D01*
X155745488Y-109572778D01*
X155747890Y-109020583D01*
X155667903Y-108903049D01*
X155581699Y-108790097D01*
X155493591Y-108713382D01*
X155386669Y-108665453D01*
X155244022Y-108638859D01*
X155048743Y-108626150D01*
X155038627Y-108625791D01*
X154879152Y-108619513D01*
X154777304Y-108611687D01*
X154720179Y-108598824D01*
X154694875Y-108577434D01*
X154688489Y-108544030D01*
X154688333Y-108531074D01*
X154659429Y-108376233D01*
X154577146Y-108258735D01*
X154515212Y-108216273D01*
X154431302Y-108192588D01*
X154293928Y-108174982D01*
X154119702Y-108163518D01*
X153925239Y-108158255D01*
X153727151Y-108159257D01*
X153542052Y-108166585D01*
X153386556Y-108180300D01*
X153277275Y-108200463D01*
X153247764Y-108211573D01*
X153133617Y-108308362D01*
X153065278Y-108449273D01*
X153053164Y-108514969D01*
X153037456Y-108584740D01*
X153019408Y-108611458D01*
X152976432Y-108614922D01*
X152877782Y-108617758D01*
X152738339Y-108619665D01*
X152580486Y-108620342D01*
X152165972Y-108620406D01*
X152177374Y-108417495D01*
X152162678Y-108224949D01*
X152090684Y-108064395D01*
X151955375Y-107923491D01*
X151925268Y-107900327D01*
X151909141Y-107888878D01*
X151890772Y-107878671D01*
X151866209Y-107869624D01*
X151831500Y-107861657D01*
X151782693Y-107854689D01*
X151715834Y-107848641D01*
X151626973Y-107843430D01*
X151512156Y-107838978D01*
X151367431Y-107835203D01*
X151188847Y-107832025D01*
X150972450Y-107829363D01*
X150714290Y-107827137D01*
X150410412Y-107825267D01*
X150056865Y-107823671D01*
X149649698Y-107822269D01*
X149184956Y-107820981D01*
X148658690Y-107819727D01*
X148066945Y-107818425D01*
X147885962Y-107818034D01*
X143946250Y-107809541D01*
X143807785Y-107888590D01*
G37*
X143807785Y-107888590D02*
X143660489Y-108011106D01*
X143559407Y-108175354D01*
X143514203Y-108362717D01*
X143514940Y-108452708D01*
X143530198Y-108620278D01*
X143269661Y-108620278D01*
X143055626Y-108632674D01*
X142892576Y-108673615D01*
X142764765Y-108748729D01*
X142683422Y-108829854D01*
X142588055Y-108943191D01*
X142588187Y-110642637D01*
X142588328Y-111033663D01*
X142588843Y-111360402D01*
X142589971Y-111629121D01*
X142591950Y-111846088D01*
X142595019Y-112017570D01*
X142599417Y-112149836D01*
X142605382Y-112249153D01*
X142613153Y-112321788D01*
X142622969Y-112374011D01*
X142635068Y-112412087D01*
X142649689Y-112442286D01*
X142657183Y-112455023D01*
X142738349Y-112551889D01*
X142839178Y-112629704D01*
X142842259Y-112631412D01*
X142859325Y-112639401D01*
X142882040Y-112646698D01*
X142913542Y-112653338D01*
X142956968Y-112659354D01*
X143015457Y-112664782D01*
X143092146Y-112669656D01*
X143190173Y-112674010D01*
X143312676Y-112677880D01*
X143462794Y-112681300D01*
X143643664Y-112684303D01*
X143858424Y-112686926D01*
X144110211Y-112689202D01*
X144402165Y-112691165D01*
X144737422Y-112692851D01*
X145119122Y-112694295D01*
X145550400Y-112695529D01*
X146034397Y-112696590D01*
X146574248Y-112697511D01*
X147173093Y-112698327D01*
X147834070Y-112699074D01*
X148560315Y-112699784D01*
X149096805Y-112700267D01*
X149751233Y-112700685D01*
X150387594Y-112700780D01*
X151002214Y-112700566D01*
X151591423Y-112700056D01*
X152151549Y-112699263D01*
X152678918Y-112698200D01*
X153169860Y-112696880D01*
X153620702Y-112695317D01*
X154027772Y-112693524D01*
X154387399Y-112691514D01*
X154695910Y-112689301D01*
X154949632Y-112686896D01*
X155144895Y-112684315D01*
X155278026Y-112681569D01*
X155345354Y-112678672D01*
X155352096Y-112677793D01*
X155495761Y-112612219D01*
X155622531Y-112498346D01*
X155690568Y-112395000D01*
X155701609Y-112351455D01*
X155711045Y-112266735D01*
X155718997Y-112136637D01*
X155722460Y-112042222D01*
X154900000Y-112042222D01*
X154875055Y-112101182D01*
X154829444Y-112112778D01*
X154770484Y-112137723D01*
X154758889Y-112183333D01*
X154751166Y-112222740D01*
X154717239Y-112244033D01*
X154640973Y-112252591D01*
X154547222Y-112253889D01*
X154429002Y-112251314D01*
X154365122Y-112240005D01*
X154339447Y-112214583D01*
X154335555Y-112183333D01*
X154310610Y-112124373D01*
X154265000Y-112112778D01*
X154232207Y-112107717D01*
X154211511Y-112083809D01*
X154200155Y-112027968D01*
X154195385Y-111927103D01*
X154195222Y-111901111D01*
X153771111Y-111901111D01*
X153768537Y-112019331D01*
X153757228Y-112083211D01*
X153731806Y-112108886D01*
X153700555Y-112112778D01*
X153641595Y-112137723D01*
X153630000Y-112183333D01*
X153624108Y-112218487D01*
X153596970Y-112239555D01*
X153534394Y-112250087D01*
X153422188Y-112253629D01*
X153347778Y-112253889D01*
X153207162Y-112252416D01*
X153122888Y-112245631D01*
X153080763Y-112229987D01*
X153066594Y-112201936D01*
X153065555Y-112183333D01*
X153040610Y-112124373D01*
X152995000Y-112112778D01*
X152955593Y-112105054D01*
X152934300Y-112071128D01*
X152925742Y-111994862D01*
X152924444Y-111901111D01*
X152927019Y-111782891D01*
X152938328Y-111719011D01*
X152963750Y-111693336D01*
X152995000Y-111689444D01*
X153053960Y-111664499D01*
X153065555Y-111618889D01*
X153071448Y-111583735D01*
X153098585Y-111562666D01*
X153161161Y-111552135D01*
X153273368Y-111548593D01*
X153347778Y-111548333D01*
X152642222Y-111548333D01*
X152642222Y-111760000D01*
X152639648Y-111878220D01*
X152628339Y-111942100D01*
X152602917Y-111967775D01*
X152571667Y-111971666D01*
X152512707Y-111996612D01*
X152501111Y-112042222D01*
X152487299Y-112090850D01*
X152433380Y-112110471D01*
X152377639Y-112112778D01*
X152292539Y-112120670D01*
X152258203Y-112151481D01*
X152254167Y-112183333D01*
X152262588Y-112224107D01*
X152299001Y-112245348D01*
X152380124Y-112253136D01*
X152448194Y-112253889D01*
X152560323Y-112256951D01*
X152618735Y-112270192D01*
X152640153Y-112299691D01*
X152642222Y-112324444D01*
X152636330Y-112359598D01*
X152609192Y-112380667D01*
X152546616Y-112391198D01*
X152434410Y-112394740D01*
X152360000Y-112395000D01*
X152219385Y-112393527D01*
X152135111Y-112386742D01*
X152092985Y-112371098D01*
X152078816Y-112343047D01*
X152077778Y-112324444D01*
X152052833Y-112265484D01*
X152007222Y-112253889D01*
X151948262Y-112228943D01*
X151936667Y-112183333D01*
X151911721Y-112124373D01*
X151866111Y-112112778D01*
X151830957Y-112106885D01*
X151809889Y-112079748D01*
X151803574Y-112042222D01*
X151548611Y-112042222D01*
X151523666Y-112101182D01*
X151478055Y-112112778D01*
X151419095Y-112137723D01*
X151407500Y-112183333D01*
X151402658Y-112215446D01*
X151379619Y-112236003D01*
X151325613Y-112247559D01*
X151227868Y-112252667D01*
X151073616Y-112253883D01*
X151054722Y-112253889D01*
X150701944Y-112253889D01*
X150701944Y-111971666D01*
X150419722Y-111971666D01*
X150413805Y-112063986D01*
X150389891Y-112104788D01*
X150349167Y-112112778D01*
X150290207Y-112137723D01*
X150278611Y-112183333D01*
X150273769Y-112215446D01*
X150250730Y-112236003D01*
X150196724Y-112247559D01*
X150098980Y-112252667D01*
X149944727Y-112253883D01*
X149925833Y-112253889D01*
X149573055Y-112253889D01*
X149573055Y-112042222D01*
X149290833Y-112042222D01*
X149265888Y-112101182D01*
X149220278Y-112112778D01*
X149161318Y-112137723D01*
X149149722Y-112183333D01*
X149144880Y-112215446D01*
X149121842Y-112236003D01*
X149067835Y-112247559D01*
X148970091Y-112252667D01*
X148815838Y-112253883D01*
X148796944Y-112253889D01*
X148444167Y-112253889D01*
X148444167Y-111971666D01*
X148445640Y-111831051D01*
X148452424Y-111746777D01*
X148468068Y-111704652D01*
X148496120Y-111690483D01*
X148514722Y-111689444D01*
X148573682Y-111664499D01*
X148585278Y-111618889D01*
X148591170Y-111583735D01*
X148618308Y-111562666D01*
X148680884Y-111552135D01*
X148793090Y-111548593D01*
X148867500Y-111548333D01*
X148197222Y-111548333D01*
X148197222Y-112395000D01*
X147915000Y-112395000D01*
X147915000Y-112112778D01*
X147703333Y-112112778D01*
X147585113Y-112110203D01*
X147521233Y-112098894D01*
X147495558Y-112073472D01*
X147491667Y-112042222D01*
X147466721Y-111983262D01*
X147421111Y-111971666D01*
X147374951Y-111959833D01*
X147354550Y-111912004D01*
X147350555Y-111830555D01*
X147356472Y-111738235D01*
X147380387Y-111697433D01*
X147421111Y-111689444D01*
X147480071Y-111664499D01*
X147487182Y-111636528D01*
X147068333Y-111636528D01*
X147060631Y-111693350D01*
X147024302Y-111718605D01*
X146939511Y-111724690D01*
X146927222Y-111724722D01*
X146786111Y-111724722D01*
X146786111Y-111918750D01*
X146781360Y-112035760D01*
X146764690Y-112096002D01*
X146733194Y-112112778D01*
X146690099Y-112142188D01*
X146680278Y-112183333D01*
X146673131Y-112221517D01*
X146641297Y-112242805D01*
X146569186Y-112251995D01*
X146450972Y-112253889D01*
X146326876Y-112251690D01*
X146257689Y-112241895D01*
X146227821Y-112219707D01*
X146221667Y-112183333D01*
X146233500Y-112137173D01*
X146281329Y-112116772D01*
X146362778Y-112112778D01*
X146503889Y-112112778D01*
X146503889Y-111901111D01*
X145939444Y-111901111D01*
X145936870Y-112019331D01*
X145925561Y-112083211D01*
X145900139Y-112108886D01*
X145868889Y-112112778D01*
X145809929Y-112137723D01*
X145798333Y-112183333D01*
X145792441Y-112218487D01*
X145765303Y-112239555D01*
X145702727Y-112250087D01*
X145590521Y-112253629D01*
X145516111Y-112253889D01*
X145375496Y-112252416D01*
X145291222Y-112245631D01*
X145249096Y-112229987D01*
X145234927Y-112201936D01*
X145233889Y-112183333D01*
X145241612Y-112143926D01*
X145275539Y-112122633D01*
X145351804Y-112114075D01*
X145445555Y-112112778D01*
X145563776Y-112110203D01*
X145627656Y-112098894D01*
X145653331Y-112073472D01*
X145657222Y-112042222D01*
X145651330Y-112007068D01*
X145624192Y-111986000D01*
X145561616Y-111975468D01*
X145449410Y-111971926D01*
X145375000Y-111971666D01*
X145092778Y-111971666D01*
X145092778Y-111830555D01*
X145098694Y-111738235D01*
X145122609Y-111697433D01*
X145163333Y-111689444D01*
X145222293Y-111664499D01*
X145233889Y-111618889D01*
X145239781Y-111583735D01*
X145266919Y-111562666D01*
X145329495Y-111552135D01*
X145441701Y-111548593D01*
X145516111Y-111548333D01*
X144845833Y-111548333D01*
X144845833Y-112253889D01*
X144563611Y-112253889D01*
X144563611Y-111724722D01*
X144440139Y-111724722D01*
X144348817Y-111736197D01*
X144316890Y-111772819D01*
X144316667Y-111777639D01*
X144295891Y-111812517D01*
X144225249Y-111828404D01*
X144157917Y-111830555D01*
X144058710Y-111825939D01*
X144011799Y-111806770D01*
X143999227Y-111765068D01*
X143999167Y-111760000D01*
X144024112Y-111701040D01*
X144069722Y-111689444D01*
X144128682Y-111664499D01*
X144140278Y-111618889D01*
X144145119Y-111586776D01*
X144168158Y-111566219D01*
X144222165Y-111554663D01*
X144319909Y-111549554D01*
X144474162Y-111548339D01*
X144493055Y-111548333D01*
X144845833Y-111548333D01*
X145516111Y-111548333D01*
X145656726Y-111549806D01*
X145741000Y-111556591D01*
X145783126Y-111572235D01*
X145797295Y-111600286D01*
X145798333Y-111618889D01*
X145823278Y-111677849D01*
X145868889Y-111689444D01*
X145908296Y-111697167D01*
X145929589Y-111731094D01*
X145938147Y-111807360D01*
X145939444Y-111901111D01*
X146503889Y-111901111D01*
X146503889Y-111724722D01*
X146362778Y-111724722D01*
X146271862Y-111719908D01*
X146231454Y-111697202D01*
X146221717Y-111644208D01*
X146221667Y-111636528D01*
X146229369Y-111579705D01*
X146265698Y-111554450D01*
X146350489Y-111548365D01*
X146362778Y-111548333D01*
X146455098Y-111542416D01*
X146495900Y-111518502D01*
X146503889Y-111477778D01*
X146515722Y-111431617D01*
X146563551Y-111411217D01*
X146645000Y-111407222D01*
X146737320Y-111413139D01*
X146778122Y-111437053D01*
X146786111Y-111477778D01*
X146797944Y-111523938D01*
X146845773Y-111544338D01*
X146927222Y-111548333D01*
X147018138Y-111553147D01*
X147058546Y-111575853D01*
X147068283Y-111628847D01*
X147068333Y-111636528D01*
X147487182Y-111636528D01*
X147491667Y-111618889D01*
X147496508Y-111586776D01*
X147519547Y-111566219D01*
X147573554Y-111554663D01*
X147671298Y-111549554D01*
X147825551Y-111548339D01*
X147844444Y-111548333D01*
X148197222Y-111548333D01*
X148867500Y-111548333D01*
X149007471Y-111549273D01*
X149091282Y-111555091D01*
X149133330Y-111570287D01*
X149148010Y-111599359D01*
X149149722Y-111636528D01*
X149144686Y-111687038D01*
X149118065Y-111713339D01*
X149052596Y-111723277D01*
X148955694Y-111724722D01*
X148838684Y-111729473D01*
X148778442Y-111746143D01*
X148761667Y-111777639D01*
X148779086Y-111809551D01*
X148840210Y-111825980D01*
X148955694Y-111830555D01*
X149067823Y-111833618D01*
X149126235Y-111846859D01*
X149147653Y-111876358D01*
X149149722Y-111901111D01*
X149174667Y-111960071D01*
X149220278Y-111971666D01*
X149279238Y-111996612D01*
X149290833Y-112042222D01*
X149573055Y-112042222D01*
X149573055Y-111407222D01*
X149890555Y-111407222D01*
X149890555Y-111689444D01*
X150084583Y-111689444D01*
X150196712Y-111692507D01*
X150255124Y-111705747D01*
X150276542Y-111735247D01*
X150278611Y-111760000D01*
X150303556Y-111818960D01*
X150349167Y-111830555D01*
X150395327Y-111842389D01*
X150415728Y-111890217D01*
X150419722Y-111971666D01*
X150701944Y-111971666D01*
X150703417Y-111831051D01*
X150710202Y-111746777D01*
X150725846Y-111704652D01*
X150753897Y-111690483D01*
X150772500Y-111689444D01*
X150831460Y-111664499D01*
X150843055Y-111618889D01*
X150848948Y-111583735D01*
X150876085Y-111562666D01*
X150938661Y-111552135D01*
X151050868Y-111548593D01*
X151125278Y-111548333D01*
X151265248Y-111549273D01*
X151349060Y-111555091D01*
X151391108Y-111570287D01*
X151405787Y-111599359D01*
X151407500Y-111636528D01*
X151402463Y-111687038D01*
X151375843Y-111713339D01*
X151310373Y-111723277D01*
X151213472Y-111724722D01*
X151096462Y-111729473D01*
X151036220Y-111746143D01*
X151019444Y-111777639D01*
X151036864Y-111809551D01*
X151097987Y-111825980D01*
X151213472Y-111830555D01*
X151325600Y-111833618D01*
X151384013Y-111846859D01*
X151405431Y-111876358D01*
X151407500Y-111901111D01*
X151432445Y-111960071D01*
X151478055Y-111971666D01*
X151537016Y-111996612D01*
X151548611Y-112042222D01*
X151803574Y-112042222D01*
X151799357Y-112017172D01*
X151795815Y-111904965D01*
X151795555Y-111830555D01*
X151795555Y-111548333D01*
X152113055Y-111548333D01*
X152113055Y-111971666D01*
X152360000Y-111971666D01*
X152360000Y-111548333D01*
X152642222Y-111548333D01*
X153347778Y-111548333D01*
X153488393Y-111549806D01*
X153572667Y-111556591D01*
X153614792Y-111572235D01*
X153628961Y-111600286D01*
X153630000Y-111618889D01*
X153654945Y-111677849D01*
X153700555Y-111689444D01*
X153739962Y-111697167D01*
X153761256Y-111731094D01*
X153769814Y-111807360D01*
X153771111Y-111901111D01*
X154195222Y-111901111D01*
X154194444Y-111777639D01*
X154193379Y-111621873D01*
X154188346Y-111523565D01*
X154176590Y-111469627D01*
X154155355Y-111446970D01*
X154123889Y-111442500D01*
X154068562Y-111421829D01*
X154053333Y-111354305D01*
X154056341Y-111310564D01*
X154074960Y-111284373D01*
X154123587Y-111271233D01*
X154216616Y-111266646D01*
X154335555Y-111266111D01*
X154475526Y-111267051D01*
X154559338Y-111272869D01*
X154601386Y-111288065D01*
X154616065Y-111317137D01*
X154617778Y-111354305D01*
X154599377Y-111425238D01*
X154564861Y-111442500D01*
X154539636Y-111454494D01*
X154523673Y-111498362D01*
X154515104Y-111585932D01*
X154512061Y-111729032D01*
X154511944Y-111777639D01*
X154513838Y-111937396D01*
X154520765Y-112038497D01*
X154534592Y-112092769D01*
X154557186Y-112112040D01*
X154564861Y-112112778D01*
X154607956Y-112083367D01*
X154617778Y-112042222D01*
X154629611Y-111996062D01*
X154677440Y-111975661D01*
X154758889Y-111971666D01*
X154851209Y-111977583D01*
X154892011Y-112001497D01*
X154900000Y-112042222D01*
X155722460Y-112042222D01*
X155725588Y-111956957D01*
X155730938Y-111723490D01*
X155735170Y-111432034D01*
X155738406Y-111078384D01*
X155740744Y-110663694D01*
X155745488Y-109572778D01*
X154900000Y-109572778D01*
X154900000Y-109996111D01*
X154899308Y-110174812D01*
X154895932Y-110294653D01*
X154887924Y-110367327D01*
X154873335Y-110404525D01*
X154850216Y-110417940D01*
X154829444Y-110419444D01*
X154770484Y-110444389D01*
X154758889Y-110490000D01*
X154752997Y-110525154D01*
X154725859Y-110546222D01*
X154663283Y-110556753D01*
X154551077Y-110560296D01*
X154476667Y-110560555D01*
X154336051Y-110559082D01*
X154251777Y-110552298D01*
X154209652Y-110536654D01*
X154195483Y-110508602D01*
X154194444Y-110490000D01*
X154169499Y-110431040D01*
X154123889Y-110419444D01*
X154094105Y-110415291D01*
X154074132Y-110395036D01*
X154062020Y-110346987D01*
X154055820Y-110259453D01*
X154053584Y-110120740D01*
X154053333Y-109996111D01*
X154053333Y-109872639D01*
X153771111Y-109872639D01*
X153766495Y-109971845D01*
X153747326Y-110018756D01*
X153705624Y-110031328D01*
X153700555Y-110031389D01*
X153643095Y-110053447D01*
X153630000Y-110084305D01*
X153612581Y-110116217D01*
X153551457Y-110132647D01*
X153435972Y-110137222D01*
X153241944Y-110137222D01*
X153241944Y-110278333D01*
X153245682Y-110368682D01*
X153268762Y-110408833D01*
X153328983Y-110419129D01*
X153365417Y-110419444D01*
X153450516Y-110411552D01*
X153484853Y-110380740D01*
X153488889Y-110348889D01*
X153500722Y-110302729D01*
X153548551Y-110282328D01*
X153630000Y-110278333D01*
X153722320Y-110284250D01*
X153763122Y-110308164D01*
X153771111Y-110348889D01*
X153746166Y-110407849D01*
X153700555Y-110419444D01*
X153641595Y-110444389D01*
X153630000Y-110490000D01*
X153624108Y-110525154D01*
X153596970Y-110546222D01*
X153534394Y-110556753D01*
X153422188Y-110560296D01*
X153347778Y-110560555D01*
X153207162Y-110559082D01*
X153122888Y-110552298D01*
X153080763Y-110536654D01*
X153066594Y-110508602D01*
X153065555Y-110490000D01*
X153040610Y-110431040D01*
X152995000Y-110419444D01*
X152948840Y-110407611D01*
X152928439Y-110359782D01*
X152924444Y-110278333D01*
X152930361Y-110186013D01*
X152954275Y-110145211D01*
X152995000Y-110137222D01*
X153053960Y-110112277D01*
X153065555Y-110066666D01*
X153073279Y-110027260D01*
X153107205Y-110005966D01*
X153183471Y-109997408D01*
X153277222Y-109996111D01*
X153488889Y-109996111D01*
X153488889Y-109872639D01*
X153483340Y-109789853D01*
X153452771Y-109755899D01*
X153376300Y-109749176D01*
X153369531Y-109749166D01*
X153278973Y-109761439D01*
X153236559Y-109804786D01*
X153231723Y-109819722D01*
X153203735Y-109866887D01*
X153139532Y-109887263D01*
X153068858Y-109890278D01*
X152976597Y-109885718D01*
X152935048Y-109864034D01*
X152924555Y-109813224D01*
X152924444Y-109802083D01*
X152940981Y-109732924D01*
X152995000Y-109713889D01*
X153053960Y-109688943D01*
X153065555Y-109643333D01*
X153071448Y-109608179D01*
X153098585Y-109587111D01*
X153161161Y-109576579D01*
X153273368Y-109573037D01*
X153347778Y-109572778D01*
X152642222Y-109572778D01*
X152642222Y-110560555D01*
X152289444Y-110560555D01*
X152128882Y-110559587D01*
X152026096Y-110554979D01*
X151968317Y-110544178D01*
X151942773Y-110524629D01*
X151936695Y-110493778D01*
X151936667Y-110490000D01*
X151911721Y-110431040D01*
X151866111Y-110419444D01*
X151819951Y-110407611D01*
X151799550Y-110359782D01*
X151795555Y-110278333D01*
X151801472Y-110186013D01*
X151825387Y-110145211D01*
X151866111Y-110137222D01*
X151923571Y-110115164D01*
X151936667Y-110084305D01*
X151907256Y-110041210D01*
X151866111Y-110031389D01*
X151822019Y-110021002D01*
X151801170Y-109977871D01*
X151795582Y-109884043D01*
X151795555Y-109872639D01*
X151800172Y-109773432D01*
X151819341Y-109726521D01*
X151861042Y-109713949D01*
X151866111Y-109713889D01*
X151925071Y-109688943D01*
X151936667Y-109643333D01*
X151941508Y-109611221D01*
X151964547Y-109590663D01*
X152018554Y-109579108D01*
X152116298Y-109573999D01*
X152270551Y-109572783D01*
X152289444Y-109572778D01*
X152642222Y-109572778D01*
X153347778Y-109572778D01*
X153488393Y-109574251D01*
X153572667Y-109581035D01*
X153614792Y-109596679D01*
X153628961Y-109624731D01*
X153630000Y-109643333D01*
X153654945Y-109702293D01*
X153700555Y-109713889D01*
X153744647Y-109724276D01*
X153765497Y-109767406D01*
X153771084Y-109861234D01*
X153771111Y-109872639D01*
X154053333Y-109872639D01*
X154053333Y-109572778D01*
X154370833Y-109572778D01*
X154370833Y-110419444D01*
X154617778Y-110419444D01*
X154617778Y-109572778D01*
X154900000Y-109572778D01*
X155745488Y-109572778D01*
X155747890Y-109020583D01*
X155667903Y-108903049D01*
X155581699Y-108790097D01*
X155493591Y-108713382D01*
X155386669Y-108665453D01*
X155244022Y-108638859D01*
X155048743Y-108626150D01*
X155038627Y-108625791D01*
X154879152Y-108619513D01*
X154777304Y-108611687D01*
X154720179Y-108598824D01*
X154694875Y-108577434D01*
X154688489Y-108544030D01*
X154688333Y-108531074D01*
X154659429Y-108376233D01*
X154577146Y-108258735D01*
X154515212Y-108216273D01*
X154431302Y-108192588D01*
X154293928Y-108174982D01*
X154119702Y-108163518D01*
X153925239Y-108158255D01*
X153727151Y-108159257D01*
X153542052Y-108166585D01*
X153386556Y-108180300D01*
X153277275Y-108200463D01*
X153247764Y-108211573D01*
X153133617Y-108308362D01*
X153065278Y-108449273D01*
X153053164Y-108514969D01*
X153037456Y-108584740D01*
X153019408Y-108611458D01*
X152976432Y-108614922D01*
X152877782Y-108617758D01*
X152738339Y-108619665D01*
X152580486Y-108620342D01*
X152165972Y-108620406D01*
X152177374Y-108417495D01*
X152162678Y-108224949D01*
X152090684Y-108064395D01*
X151955375Y-107923491D01*
X151925268Y-107900327D01*
X151909141Y-107888878D01*
X151890772Y-107878671D01*
X151866209Y-107869624D01*
X151831500Y-107861657D01*
X151782693Y-107854689D01*
X151715834Y-107848641D01*
X151626973Y-107843430D01*
X151512156Y-107838978D01*
X151367431Y-107835203D01*
X151188847Y-107832025D01*
X150972450Y-107829363D01*
X150714290Y-107827137D01*
X150410412Y-107825267D01*
X150056865Y-107823671D01*
X149649698Y-107822269D01*
X149184956Y-107820981D01*
X148658690Y-107819727D01*
X148066945Y-107818425D01*
X147885962Y-107818034D01*
X143946250Y-107809541D01*
X143807785Y-107888590D01*
G36*
X148023781Y-106962217D02*
G01*
X147844172Y-106962222D01*
X147301622Y-106962255D01*
X146825116Y-106962420D01*
X146410145Y-106962814D01*
X146052199Y-106963534D01*
X145746766Y-106964679D01*
X145489337Y-106966345D01*
X145275401Y-106968629D01*
X145100447Y-106971630D01*
X144959965Y-106975445D01*
X144849445Y-106980171D01*
X144764376Y-106985906D01*
X144700248Y-106992747D01*
X144652550Y-107000792D01*
X144616772Y-107010138D01*
X144588404Y-107020882D01*
X144562934Y-107033123D01*
X144562933Y-107033124D01*
X144422850Y-107139425D01*
X144340841Y-107285787D01*
X144316667Y-107454359D01*
X144316667Y-107597222D01*
X147845552Y-107597222D01*
X148427891Y-107597130D01*
X148943643Y-107596814D01*
X149396775Y-107596214D01*
X149791255Y-107595271D01*
X150131051Y-107593926D01*
X150420130Y-107592119D01*
X150662461Y-107589791D01*
X150862010Y-107586882D01*
X151022746Y-107583333D01*
X151148636Y-107579084D01*
X151243649Y-107574076D01*
X151311752Y-107568250D01*
X151356912Y-107561545D01*
X151383098Y-107553903D01*
X151394277Y-107545264D01*
X151394845Y-107544040D01*
X151403575Y-107446560D01*
X151378013Y-107322507D01*
X151325908Y-107201970D01*
X151294816Y-107155554D01*
X151269574Y-107122954D01*
X151245390Y-107094238D01*
X151217872Y-107069160D01*
X151182630Y-107047473D01*
X151135274Y-107028931D01*
X151071412Y-107013288D01*
X150986653Y-107000299D01*
X150876607Y-106989717D01*
X150736883Y-106981296D01*
X150563090Y-106974791D01*
X150350837Y-106969955D01*
X150095734Y-106966542D01*
X149793389Y-106964306D01*
X149439413Y-106963002D01*
X149029413Y-106962383D01*
X148558999Y-106962203D01*
X148023781Y-106962217D01*
G37*
X148023781Y-106962217D02*
X147844172Y-106962222D01*
X147301622Y-106962255D01*
X146825116Y-106962420D01*
X146410145Y-106962814D01*
X146052199Y-106963534D01*
X145746766Y-106964679D01*
X145489337Y-106966345D01*
X145275401Y-106968629D01*
X145100447Y-106971630D01*
X144959965Y-106975445D01*
X144849445Y-106980171D01*
X144764376Y-106985906D01*
X144700248Y-106992747D01*
X144652550Y-107000792D01*
X144616772Y-107010138D01*
X144588404Y-107020882D01*
X144562934Y-107033123D01*
X144562933Y-107033124D01*
X144422850Y-107139425D01*
X144340841Y-107285787D01*
X144316667Y-107454359D01*
X144316667Y-107597222D01*
X147845552Y-107597222D01*
X148427891Y-107597130D01*
X148943643Y-107596814D01*
X149396775Y-107596214D01*
X149791255Y-107595271D01*
X150131051Y-107593926D01*
X150420130Y-107592119D01*
X150662461Y-107589791D01*
X150862010Y-107586882D01*
X151022746Y-107583333D01*
X151148636Y-107579084D01*
X151243649Y-107574076D01*
X151311752Y-107568250D01*
X151356912Y-107561545D01*
X151383098Y-107553903D01*
X151394277Y-107545264D01*
X151394845Y-107544040D01*
X151403575Y-107446560D01*
X151378013Y-107322507D01*
X151325908Y-107201970D01*
X151294816Y-107155554D01*
X151269574Y-107122954D01*
X151245390Y-107094238D01*
X151217872Y-107069160D01*
X151182630Y-107047473D01*
X151135274Y-107028931D01*
X151071412Y-107013288D01*
X150986653Y-107000299D01*
X150876607Y-106989717D01*
X150736883Y-106981296D01*
X150563090Y-106974791D01*
X150350837Y-106969955D01*
X150095734Y-106966542D01*
X149793389Y-106964306D01*
X149439413Y-106963002D01*
X149029413Y-106962383D01*
X148558999Y-106962203D01*
X148023781Y-106962217D01*
G36*
X147413054Y-98910566D02*
G01*
X147065381Y-98999627D01*
X146745098Y-99140268D01*
X146735157Y-99145787D01*
X146541583Y-99271191D01*
X146342948Y-99429138D01*
X146160231Y-99601011D01*
X146014412Y-99768192D01*
X145980318Y-99815653D01*
X145798966Y-100143043D01*
X145671919Y-100500442D01*
X145601905Y-100873476D01*
X145591653Y-101247773D01*
X145641628Y-101599465D01*
X145764641Y-101973588D01*
X145947363Y-102311808D01*
X146186619Y-102610213D01*
X146479234Y-102864897D01*
X146822034Y-103071949D01*
X146847847Y-103084568D01*
X147138889Y-103224784D01*
X147142398Y-104537878D01*
X147143561Y-104842070D01*
X147145323Y-105129476D01*
X147147582Y-105391133D01*
X147150231Y-105618074D01*
X147153167Y-105801337D01*
X147156284Y-105931956D01*
X147159473Y-106000903D01*
X147173038Y-106150833D01*
X146466914Y-106150833D01*
X146189347Y-106152433D01*
X145972958Y-106158355D01*
X145808418Y-106170285D01*
X145686398Y-106189909D01*
X145597569Y-106218912D01*
X145532604Y-106258979D01*
X145482172Y-106311796D01*
X145467805Y-106331345D01*
X145420125Y-106453232D01*
X145414528Y-106607945D01*
X145432513Y-106706458D01*
X145453784Y-106785833D01*
X150234773Y-106785833D01*
X150280495Y-106675450D01*
X150306532Y-106588084D01*
X150300779Y-106502650D01*
X150275956Y-106419686D01*
X150240995Y-106335150D01*
X150195890Y-106270285D01*
X150131543Y-106222535D01*
X150038857Y-106189344D01*
X149908733Y-106168155D01*
X149732075Y-106156412D01*
X149499785Y-106151559D01*
X149319366Y-106150888D01*
X148659982Y-106150833D01*
X148648175Y-105718680D01*
X148644766Y-105568604D01*
X148641068Y-105361903D01*
X148637279Y-105112505D01*
X148633593Y-104834339D01*
X148630207Y-104541333D01*
X148627318Y-104247417D01*
X148627093Y-104221919D01*
X148617818Y-103157310D01*
X148804395Y-103063843D01*
X149136965Y-102858910D01*
X149423394Y-102601192D01*
X149662049Y-102292653D01*
X149851296Y-101935252D01*
X149939880Y-101699922D01*
X149980539Y-101521391D01*
X150005225Y-101299303D01*
X150013084Y-101059016D01*
X150009124Y-100965000D01*
X149201475Y-100965000D01*
X149198506Y-101132059D01*
X149187928Y-101252350D01*
X149165170Y-101349592D01*
X149125662Y-101447508D01*
X149097190Y-101506145D01*
X149030464Y-101624716D01*
X148961495Y-101724239D01*
X148914321Y-101774880D01*
X148804580Y-101819860D01*
X148680408Y-101804759D01*
X148560354Y-101731872D01*
X148559359Y-101730971D01*
X148476539Y-101612841D01*
X148458901Y-101470673D01*
X148506764Y-101308190D01*
X148520804Y-101280018D01*
X148592399Y-101077394D01*
X148593502Y-100876098D01*
X148524096Y-100676043D01*
X148384162Y-100477139D01*
X148354060Y-100444177D01*
X148283161Y-100357501D01*
X148239356Y-100281781D01*
X148232500Y-100254391D01*
X148264799Y-100114849D01*
X148351557Y-100000935D01*
X148477564Y-99927122D01*
X148597927Y-99906666D01*
X148684266Y-99935560D01*
X148790489Y-100013222D01*
X148903357Y-100126120D01*
X149009632Y-100260725D01*
X149096077Y-100403506D01*
X149108056Y-100428060D01*
X149154437Y-100536572D01*
X149182683Y-100635541D01*
X149196963Y-100748922D01*
X149201443Y-100900665D01*
X149201475Y-100965000D01*
X150009124Y-100965000D01*
X150003263Y-100825889D01*
X149975886Y-100629861D01*
X149863435Y-100262826D01*
X149689738Y-99925116D01*
X149460032Y-99622443D01*
X149179556Y-99360516D01*
X148853549Y-99145046D01*
X148487251Y-98981742D01*
X148453077Y-98969997D01*
X148123637Y-98894039D01*
X147771384Y-98874800D01*
X147413054Y-98910566D01*
G37*
X147413054Y-98910566D02*
X147065381Y-98999627D01*
X146745098Y-99140268D01*
X146735157Y-99145787D01*
X146541583Y-99271191D01*
X146342948Y-99429138D01*
X146160231Y-99601011D01*
X146014412Y-99768192D01*
X145980318Y-99815653D01*
X145798966Y-100143043D01*
X145671919Y-100500442D01*
X145601905Y-100873476D01*
X145591653Y-101247773D01*
X145641628Y-101599465D01*
X145764641Y-101973588D01*
X145947363Y-102311808D01*
X146186619Y-102610213D01*
X146479234Y-102864897D01*
X146822034Y-103071949D01*
X146847847Y-103084568D01*
X147138889Y-103224784D01*
X147142398Y-104537878D01*
X147143561Y-104842070D01*
X147145323Y-105129476D01*
X147147582Y-105391133D01*
X147150231Y-105618074D01*
X147153167Y-105801337D01*
X147156284Y-105931956D01*
X147159473Y-106000903D01*
X147173038Y-106150833D01*
X146466914Y-106150833D01*
X146189347Y-106152433D01*
X145972958Y-106158355D01*
X145808418Y-106170285D01*
X145686398Y-106189909D01*
X145597569Y-106218912D01*
X145532604Y-106258979D01*
X145482172Y-106311796D01*
X145467805Y-106331345D01*
X145420125Y-106453232D01*
X145414528Y-106607945D01*
X145432513Y-106706458D01*
X145453784Y-106785833D01*
X150234773Y-106785833D01*
X150280495Y-106675450D01*
X150306532Y-106588084D01*
X150300779Y-106502650D01*
X150275956Y-106419686D01*
X150240995Y-106335150D01*
X150195890Y-106270285D01*
X150131543Y-106222535D01*
X150038857Y-106189344D01*
X149908733Y-106168155D01*
X149732075Y-106156412D01*
X149499785Y-106151559D01*
X149319366Y-106150888D01*
X148659982Y-106150833D01*
X148648175Y-105718680D01*
X148644766Y-105568604D01*
X148641068Y-105361903D01*
X148637279Y-105112505D01*
X148633593Y-104834339D01*
X148630207Y-104541333D01*
X148627318Y-104247417D01*
X148627093Y-104221919D01*
X148617818Y-103157310D01*
X148804395Y-103063843D01*
X149136965Y-102858910D01*
X149423394Y-102601192D01*
X149662049Y-102292653D01*
X149851296Y-101935252D01*
X149939880Y-101699922D01*
X149980539Y-101521391D01*
X150005225Y-101299303D01*
X150013084Y-101059016D01*
X150009124Y-100965000D01*
X149201475Y-100965000D01*
X149198506Y-101132059D01*
X149187928Y-101252350D01*
X149165170Y-101349592D01*
X149125662Y-101447508D01*
X149097190Y-101506145D01*
X149030464Y-101624716D01*
X148961495Y-101724239D01*
X148914321Y-101774880D01*
X148804580Y-101819860D01*
X148680408Y-101804759D01*
X148560354Y-101731872D01*
X148559359Y-101730971D01*
X148476539Y-101612841D01*
X148458901Y-101470673D01*
X148506764Y-101308190D01*
X148520804Y-101280018D01*
X148592399Y-101077394D01*
X148593502Y-100876098D01*
X148524096Y-100676043D01*
X148384162Y-100477139D01*
X148354060Y-100444177D01*
X148283161Y-100357501D01*
X148239356Y-100281781D01*
X148232500Y-100254391D01*
X148264799Y-100114849D01*
X148351557Y-100000935D01*
X148477564Y-99927122D01*
X148597927Y-99906666D01*
X148684266Y-99935560D01*
X148790489Y-100013222D01*
X148903357Y-100126120D01*
X149009632Y-100260725D01*
X149096077Y-100403506D01*
X149108056Y-100428060D01*
X149154437Y-100536572D01*
X149182683Y-100635541D01*
X149196963Y-100748922D01*
X149201443Y-100900665D01*
X149201475Y-100965000D01*
X150009124Y-100965000D01*
X150003263Y-100825889D01*
X149975886Y-100629861D01*
X149863435Y-100262826D01*
X149689738Y-99925116D01*
X149460032Y-99622443D01*
X149179556Y-99360516D01*
X148853549Y-99145046D01*
X148487251Y-98981742D01*
X148453077Y-98969997D01*
X148123637Y-98894039D01*
X147771384Y-98874800D01*
X147413054Y-98910566D01*
G36*
X147708773Y-111730183D02*
G01*
X147674834Y-111760994D01*
X147668071Y-111838796D01*
X147668055Y-111848194D01*
X147673517Y-111930949D01*
X147704327Y-111964888D01*
X147782130Y-111971651D01*
X147791528Y-111971666D01*
X147874283Y-111966205D01*
X147908221Y-111935394D01*
X147914985Y-111857592D01*
X147915000Y-111848194D01*
X147909539Y-111765439D01*
X147878728Y-111731501D01*
X147800926Y-111724737D01*
X147791528Y-111724722D01*
X147708773Y-111730183D01*
G37*
X147708773Y-111730183D02*
X147674834Y-111760994D01*
X147668071Y-111838796D01*
X147668055Y-111848194D01*
X147673517Y-111930949D01*
X147704327Y-111964888D01*
X147782130Y-111971651D01*
X147791528Y-111971666D01*
X147874283Y-111966205D01*
X147908221Y-111935394D01*
X147914985Y-111857592D01*
X147915000Y-111848194D01*
X147909539Y-111765439D01*
X147878728Y-111731501D01*
X147800926Y-111724737D01*
X147791528Y-111724722D01*
X147708773Y-111730183D01*
G36*
X153241944Y-112112778D02*
G01*
X153488889Y-112112778D01*
X153488889Y-111724722D01*
X153241944Y-111724722D01*
X153241944Y-112112778D01*
G37*
X153241944Y-112112778D02*
X153488889Y-112112778D01*
X153488889Y-111724722D01*
X153241944Y-111724722D01*
X153241944Y-112112778D01*
G36*
X151057817Y-111979559D02*
G01*
X151023480Y-112010370D01*
X151019444Y-112042222D01*
X151033256Y-112090850D01*
X151087176Y-112110471D01*
X151142917Y-112112778D01*
X151228016Y-112104885D01*
X151262353Y-112074074D01*
X151266389Y-112042222D01*
X151252577Y-111993594D01*
X151198657Y-111973973D01*
X151142917Y-111971666D01*
X151057817Y-111979559D01*
G37*
X151057817Y-111979559D02*
X151023480Y-112010370D01*
X151019444Y-112042222D01*
X151033256Y-112090850D01*
X151087176Y-112110471D01*
X151142917Y-112112778D01*
X151228016Y-112104885D01*
X151262353Y-112074074D01*
X151266389Y-112042222D01*
X151252577Y-111993594D01*
X151198657Y-111973973D01*
X151142917Y-111971666D01*
X151057817Y-111979559D01*
G36*
X149934973Y-111834827D02*
G01*
X149899840Y-111861204D01*
X149890832Y-111930028D01*
X149890555Y-111971666D01*
X149894293Y-112062015D01*
X149917373Y-112102166D01*
X149977594Y-112112462D01*
X150014028Y-112112778D01*
X150093083Y-112108506D01*
X150128215Y-112082128D01*
X150137224Y-112013305D01*
X150137500Y-111971666D01*
X150133762Y-111881318D01*
X150110682Y-111841167D01*
X150050461Y-111830871D01*
X150014028Y-111830555D01*
X149934973Y-111834827D01*
G37*
X149934973Y-111834827D02*
X149899840Y-111861204D01*
X149890832Y-111930028D01*
X149890555Y-111971666D01*
X149894293Y-112062015D01*
X149917373Y-112102166D01*
X149977594Y-112112462D01*
X150014028Y-112112778D01*
X150093083Y-112108506D01*
X150128215Y-112082128D01*
X150137224Y-112013305D01*
X150137500Y-111971666D01*
X150133762Y-111881318D01*
X150110682Y-111841167D01*
X150050461Y-111830871D01*
X150014028Y-111830555D01*
X149934973Y-111834827D01*
G36*
X148800039Y-111979559D02*
G01*
X148765703Y-112010370D01*
X148761667Y-112042222D01*
X148775478Y-112090850D01*
X148829398Y-112110471D01*
X148885139Y-112112778D01*
X148970238Y-112104885D01*
X149004575Y-112074074D01*
X149008611Y-112042222D01*
X148994799Y-111993594D01*
X148940880Y-111973973D01*
X148885139Y-111971666D01*
X148800039Y-111979559D01*
G37*
X148800039Y-111979559D02*
X148765703Y-112010370D01*
X148761667Y-112042222D01*
X148775478Y-112090850D01*
X148829398Y-112110471D01*
X148885139Y-112112778D01*
X148970238Y-112104885D01*
X149004575Y-112074074D01*
X149008611Y-112042222D01*
X148994799Y-111993594D01*
X148940880Y-111973973D01*
X148885139Y-111971666D01*
X148800039Y-111979559D01*
G36*
X145442428Y-111736197D02*
G01*
X145410501Y-111772819D01*
X145410278Y-111777639D01*
X145437053Y-111816777D01*
X145522505Y-111830460D01*
X145533750Y-111830555D01*
X145625072Y-111819080D01*
X145656999Y-111782458D01*
X145657222Y-111777639D01*
X145630447Y-111738501D01*
X145544995Y-111724818D01*
X145533750Y-111724722D01*
X145442428Y-111736197D01*
G37*
X145442428Y-111736197D02*
X145410501Y-111772819D01*
X145410278Y-111777639D01*
X145437053Y-111816777D01*
X145522505Y-111830460D01*
X145533750Y-111830555D01*
X145625072Y-111819080D01*
X145656999Y-111782458D01*
X145657222Y-111777639D01*
X145630447Y-111738501D01*
X145544995Y-111724818D01*
X145533750Y-111724722D01*
X145442428Y-111736197D01*
G36*
X152157473Y-110141494D02*
G01*
X152122340Y-110167871D01*
X152113332Y-110236695D01*
X152113055Y-110278333D01*
X152116793Y-110368682D01*
X152139873Y-110408833D01*
X152200094Y-110419129D01*
X152236528Y-110419444D01*
X152315583Y-110415172D01*
X152350715Y-110388795D01*
X152359724Y-110319972D01*
X152360000Y-110278333D01*
X152356262Y-110187985D01*
X152333182Y-110147833D01*
X152272961Y-110137537D01*
X152236528Y-110137222D01*
X152157473Y-110141494D01*
G37*
X152157473Y-110141494D02*
X152122340Y-110167871D01*
X152113332Y-110236695D01*
X152113055Y-110278333D01*
X152116793Y-110368682D01*
X152139873Y-110408833D01*
X152200094Y-110419129D01*
X152236528Y-110419444D01*
X152315583Y-110415172D01*
X152350715Y-110388795D01*
X152359724Y-110319972D01*
X152360000Y-110278333D01*
X152356262Y-110187985D01*
X152333182Y-110147833D01*
X152272961Y-110137537D01*
X152236528Y-110137222D01*
X152157473Y-110141494D01*
G36*
X152153773Y-109754627D02*
G01*
X152119834Y-109785438D01*
X152113071Y-109863241D01*
X152113055Y-109872639D01*
X152118517Y-109955394D01*
X152149327Y-109989332D01*
X152227130Y-109996095D01*
X152236528Y-109996111D01*
X152319283Y-109990650D01*
X152353221Y-109959839D01*
X152359985Y-109882037D01*
X152360000Y-109872639D01*
X152354539Y-109789884D01*
X152323728Y-109755945D01*
X152245926Y-109749182D01*
X152236528Y-109749166D01*
X152153773Y-109754627D01*
G37*
X152153773Y-109754627D02*
X152119834Y-109785438D01*
X152113071Y-109863241D01*
X152113055Y-109872639D01*
X152118517Y-109955394D01*
X152149327Y-109989332D01*
X152227130Y-109996095D01*
X152236528Y-109996111D01*
X152319283Y-109990650D01*
X152353221Y-109959839D01*
X152359985Y-109882037D01*
X152360000Y-109872639D01*
X152354539Y-109789884D01*
X152323728Y-109755945D01*
X152245926Y-109749182D01*
X152236528Y-109749166D01*
X152153773Y-109754627D01*
D11*
%TO.C,J1*%
X141535000Y-123210000D02*
X141535000Y-120550000D01*
X154295000Y-123210000D02*
X141535000Y-123210000D01*
X154295000Y-120550000D02*
X141535000Y-120550000D01*
X154295000Y-123210000D02*
X154295000Y-120550000D01*
D13*
X154465000Y-123190000D02*
X154465000Y-120560000D01*
X154465000Y-120560000D02*
X156835000Y-120560000D01*
X156835000Y-120560000D02*
X156835000Y-123190000D01*
X156835000Y-123190000D02*
X154465000Y-123190000D01*
%TD*%
M02*
